solid MAIN-PRINT-PLATE-2FINAL3
facet normal 0.991444861373808 0.130526192220069 -0.0
   outer loop
      vertex 78.944771448734 21.0 0.0
      vertex 79.019734630898 20.4305981007745 10.0
      vertex 79.019734630898 20.4305981007745 0.0
   endloop
endfacet
facet normal 0.991444861373808 0.130526192220069 -0.0
   outer loop
      vertex 79.019734630898 20.4305981007745 10.0
      vertex 78.944771448734 21.0 0.0
      vertex 78.944771448734 21.0 10.0
   endloop
endfacet
facet normal -0.923879532511276 0.382683432365116 0.0
   outer loop
      vertex 65.26980826657 20.4305981007746 10.0
      vertex 65.0500273370598 19.9000000000001 0.0
      vertex 65.0500273370598 19.9000000000001 10.0
   endloop
endfacet
facet normal -0.923879532511276 0.382683432365116 0.0
   outer loop
      vertex 65.0500273370598 19.9000000000001 0.0
      vertex 65.26980826657 20.4305981007746 10.0
      vertex 65.26980826657 20.4305981007746 0.0
   endloop
endfacet
facet normal -0.793353340291274 0.608761429008671 0.0
   outer loop
      vertex 65.0500273370598 19.9000000000001 10.0
      vertex 64.7004063673445 19.4443650813896 0.0
      vertex 64.7004063673445 19.4443650813896 10.0
   endloop
endfacet
facet normal -0.793353340291274 0.608761429008671 0.0
   outer loop
      vertex 64.7004063673445 19.4443650813896 0.0
      vertex 65.0500273370598 19.9000000000001 10.0
      vertex 65.0500273370598 19.9000000000001 0.0
   endloop
endfacet
facet normal -0.991444861373818 0.130526192219993 0.0
   outer loop
      vertex 65.344771448734 21.0000000000001 10.0
      vertex 65.26980826657 20.4305981007746 0.0
      vertex 65.26980826657 20.4305981007746 10.0
   endloop
endfacet
facet normal -0.991444861373818 0.130526192219993 0.0
   outer loop
      vertex 65.26980826657 20.4305981007746 0.0
      vertex 65.344771448734 21.0000000000001 10.0
      vertex 65.344771448734 21.0000000000001 0.0
   endloop
endfacet
facet normal -0.608761429008761 0.793353340291205 -0.0
   outer loop
      vertex 64.2447714487341 19.0947441116743 10.0
      vertex 64.7004063673445 19.4443650813896 0.0
      vertex 64.2447714487341 19.0947441116743 0.0
   endloop
endfacet
facet normal -0.608761429008761 0.793353340291205 -0.0
   outer loop
      vertex 64.7004063673445 19.4443650813896 0.0
      vertex 64.2447714487341 19.0947441116743 10.0
      vertex 64.7004063673445 19.4443650813896 10.0
   endloop
endfacet
facet normal -0.991444861373819 -0.130526192219986 0.0
   outer loop
      vertex 65.26980826657 21.5694018992256 10.0
      vertex 65.344771448734 21.0000000000001 0.0
      vertex 65.344771448734 21.0000000000001 10.0
   endloop
endfacet
facet normal -0.991444861373819 -0.130526192219986 0.0
   outer loop
      vertex 65.344771448734 21.0000000000001 0.0
      vertex 65.26980826657 21.5694018992256 10.0
      vertex 65.26980826657 21.5694018992256 0.0
   endloop
endfacet
facet normal -0.923879532511256 -0.382683432365165 0.0
   outer loop
      vertex 65.0500273370598 22.1 10.0
      vertex 65.26980826657 21.5694018992256 0.0
      vertex 65.26980826657 21.5694018992256 10.0
   endloop
endfacet
facet normal -0.923879532511256 -0.382683432365165 0.0
   outer loop
      vertex 65.26980826657 21.5694018992256 0.0
      vertex 65.0500273370598 22.1 10.0
      vertex 65.0500273370598 22.1 0.0
   endloop
endfacet
facet normal -0.793353340291254 -0.608761429008696 0.0
   outer loop
      vertex 64.7004063673444 22.5556349186105 10.0
      vertex 65.0500273370598 22.1 0.0
      vertex 65.0500273370598 22.1 10.0
   endloop
endfacet
facet normal -0.793353340291254 -0.608761429008696 0.0
   outer loop
      vertex 65.0500273370598 22.1 0.0
      vertex 64.7004063673444 22.5556349186105 10.0
      vertex 64.7004063673444 22.5556349186105 0.0
   endloop
endfacet
facet normal -0.608761429008721 -0.793353340291235 0.0
   outer loop
      vertex 64.7004063673444 22.5556349186105 10.0
      vertex 64.244771448734 22.9052558883258 0.0
      vertex 64.7004063673444 22.5556349186105 0.0
   endloop
endfacet
facet normal -0.608761429008721 -0.793353340291235 0.0
   outer loop
      vertex 64.244771448734 22.9052558883258 0.0
      vertex 64.7004063673444 22.5556349186105 10.0
      vertex 64.244771448734 22.9052558883258 10.0
   endloop
endfacet
facet normal -0.382683432365058 -0.9238795325113 0.0
   outer loop
      vertex 64.244771448734 22.9052558883258 10.0
      vertex 63.7141733479596 23.125036817836 0.0
      vertex 64.244771448734 22.9052558883258 0.0
   endloop
endfacet
facet normal -0.382683432365058 -0.9238795325113 0.0
   outer loop
      vertex 63.7141733479596 23.125036817836 0.0
      vertex 64.244771448734 22.9052558883258 10.0
      vertex 63.7141733479596 23.125036817836 10.0
   endloop
endfacet
facet normal -0.130526192220099 -0.991444861373804 0.0
   outer loop
      vertex 63.7141733479596 23.125036817836 10.0
      vertex 63.144771448734 23.2 0.0
      vertex 63.7141733479596 23.125036817836 0.0
   endloop
endfacet
facet normal -0.130526192220099 -0.991444861373804 0.0
   outer loop
      vertex 63.144771448734 23.2 0.0
      vertex 63.7141733479596 23.125036817836 10.0
      vertex 63.144771448734 23.2 10.0
   endloop
endfacet
facet normal 0.9914448613738 -0.130526192220133 -0.0
   outer loop
      vertex 61.0197346308981 21.5694018992256 0.0
      vertex 60.944771448734 21.0 10.0
      vertex 60.944771448734 21.0 0.0
   endloop
endfacet
facet normal 0.9914448613738 -0.130526192220133 -0.0
   outer loop
      vertex 60.944771448734 21.0 10.0
      vertex 61.0197346308981 21.5694018992256 0.0
      vertex 61.0197346308981 21.5694018992256 10.0
   endloop
endfacet
facet normal 0.991444861373821 0.130526192219967 -0.0
   outer loop
      vertex 60.944771448734 21.0 0.0
      vertex 61.019734630898 20.4305981007744 10.0
      vertex 61.019734630898 20.4305981007744 0.0
   endloop
endfacet
facet normal 0.991444861373821 0.130526192219967 -0.0
   outer loop
      vertex 61.019734630898 20.4305981007744 10.0
      vertex 60.944771448734 21.0 0.0
      vertex 60.944771448734 21.0 10.0
   endloop
endfacet
facet normal 0.923879532511253 0.382683432365171 -0.0
   outer loop
      vertex 61.019734630898 20.4305981007744 0.0
      vertex 61.2395155604083 19.9 10.0
      vertex 61.2395155604083 19.9 0.0
   endloop
endfacet
facet normal 0.923879532511253 0.382683432365171 -0.0
   outer loop
      vertex 61.2395155604083 19.9 10.0
      vertex 61.019734630898 20.4305981007744 0.0
      vertex 61.019734630898 20.4305981007744 10.0
   endloop
endfacet
facet normal 0.793353340291118 0.608761429008873 -0.0
   outer loop
      vertex 61.2395155604083 19.9 0.0
      vertex 61.5891365301237 19.4443650813897 10.0
      vertex 61.5891365301237 19.4443650813897 0.0
   endloop
endfacet
facet normal 0.793353340291118 0.608761429008873 -0.0
   outer loop
      vertex 61.5891365301237 19.4443650813897 10.0
      vertex 61.2395155604083 19.9 0.0
      vertex 61.2395155604083 19.9 10.0
   endloop
endfacet
facet normal 0.608761429008736 0.793353340291224 -0.0
   outer loop
      vertex 61.5891365301237 19.4443650813897 10.0
      vertex 62.0447714487341 19.0947441116743 0.0
      vertex 61.5891365301237 19.4443650813897 0.0
   endloop
endfacet
facet normal 0.608761429008736 0.793353340291224 -0.0
   outer loop
      vertex 62.0447714487341 19.0947441116743 0.0
      vertex 61.5891365301237 19.4443650813897 10.0
      vertex 62.0447714487341 19.0947441116743 10.0
   endloop
endfacet
facet normal 0.382683432365211 0.923879532511236 -0.0
   outer loop
      vertex 62.0447714487341 19.0947441116743 10.0
      vertex 62.5753695495085 18.8749631821641 0.0
      vertex 62.0447714487341 19.0947441116743 0.0
   endloop
endfacet
facet normal 0.382683432365211 0.923879532511236 -0.0
   outer loop
      vertex 62.5753695495085 18.8749631821641 0.0
      vertex 62.0447714487341 19.0947441116743 10.0
      vertex 62.5753695495085 18.8749631821641 10.0
   endloop
endfacet
facet normal 0.13052619221994 0.991444861373825 -0.0
   outer loop
      vertex 62.5753695495085 18.8749631821641 10.0
      vertex 63.1447714487341 18.8000000000001 0.0
      vertex 62.5753695495085 18.8749631821641 0.0
   endloop
endfacet
facet normal 0.13052619221994 0.991444861373825 -0.0
   outer loop
      vertex 63.1447714487341 18.8000000000001 0.0
      vertex 62.5753695495085 18.8749631821641 10.0
      vertex 63.1447714487341 18.8000000000001 10.0
   endloop
endfacet
facet normal -0.130526192220008 0.991444861373816 -0.0
   outer loop
      vertex 63.1447714487341 18.8000000000001 10.0
      vertex 63.7141733479596 18.8749631821641 0.0
      vertex 63.1447714487341 18.8000000000001 0.0
   endloop
endfacet
facet normal -0.130526192220008 0.991444861373816 -0.0
   outer loop
      vertex 63.7141733479596 18.8749631821641 0.0
      vertex 63.1447714487341 18.8000000000001 10.0
      vertex 63.7141733479596 18.8749631821641 10.0
   endloop
endfacet
facet normal -0.382683432364999 0.923879532511324 -0.0
   outer loop
      vertex 63.7141733479596 18.8749631821641 10.0
      vertex 64.2447714487341 19.0947441116743 0.0
      vertex 63.7141733479596 18.8749631821641 0.0
   endloop
endfacet
facet normal -0.382683432364999 0.923879532511324 -0.0
   outer loop
      vertex 64.2447714487341 19.0947441116743 0.0
      vertex 63.7141733479596 18.8749631821641 10.0
      vertex 64.2447714487341 19.0947441116743 10.0
   endloop
endfacet
facet normal 0.130526192220061 -0.991444861373809 0.0
   outer loop
      vertex 63.144771448734 23.2 10.0
      vertex 62.5753695495085 23.125036817836 0.0
      vertex 63.144771448734 23.2 0.0
   endloop
endfacet
facet normal 0.130526192220061 -0.991444861373809 0.0
   outer loop
      vertex 62.5753695495085 23.125036817836 0.0
      vertex 63.144771448734 23.2 10.0
      vertex 62.5753695495085 23.125036817836 10.0
   endloop
endfacet
facet normal 0.382683432365083 -0.92387953251129 0.0
   outer loop
      vertex 62.5753695495085 23.125036817836 10.0
      vertex 62.044771448734 22.9052558883258 0.0
      vertex 62.5753695495085 23.125036817836 0.0
   endloop
endfacet
facet normal 0.382683432365083 -0.92387953251129 0.0
   outer loop
      vertex 62.044771448734 22.9052558883258 0.0
      vertex 62.5753695495085 23.125036817836 10.0
      vertex 62.044771448734 22.9052558883258 10.0
   endloop
endfacet
facet normal 0.608761429008658 -0.793353340291283 0.0
   outer loop
      vertex 80.0447714487341 22.9052558883256 10.0
      vertex 79.5891365301237 22.5556349186103 0.0
      vertex 80.0447714487341 22.9052558883256 0.0
   endloop
endfacet
facet normal 0.608761429008658 -0.793353340291283 0.0
   outer loop
      vertex 79.5891365301237 22.5556349186103 0.0
      vertex 80.0447714487341 22.9052558883256 10.0
      vertex 79.5891365301237 22.5556349186103 10.0
   endloop
endfacet
facet normal 0.793353340291141 -0.608761429008844 -0.0
   outer loop
      vertex 79.5891365301237 22.5556349186103 0.0
      vertex 79.2395155604082 22.0999999999999 10.0
      vertex 79.2395155604082 22.0999999999999 0.0
   endloop
endfacet
facet normal 0.793353340291141 -0.608761429008844 -0.0
   outer loop
      vertex 79.2395155604082 22.0999999999999 10.0
      vertex 79.5891365301237 22.5556349186103 0.0
      vertex 79.5891365301237 22.5556349186103 10.0
   endloop
endfacet
facet normal 0.382683432365077 0.923879532511292 -0.0
   outer loop
      vertex 80.0447714487341 19.0947441116742 10.0
      vertex 80.5753695495085 18.874963182164 0.0
      vertex 80.0447714487341 19.0947441116742 0.0
   endloop
endfacet
facet normal 0.382683432365077 0.923879532511292 -0.0
   outer loop
      vertex 80.5753695495085 18.874963182164 0.0
      vertex 80.0447714487341 19.0947441116742 10.0
      vertex 80.5753695495085 18.874963182164 10.0
   endloop
endfacet
facet normal 0.130526192220158 0.991444861373797 -0.0
   outer loop
      vertex 80.5753695495085 18.874963182164 10.0
      vertex 81.144771448734 18.7999999999999 0.0
      vertex 80.5753695495085 18.874963182164 0.0
   endloop
endfacet
facet normal 0.130526192220158 0.991444861373797 -0.0
   outer loop
      vertex 81.144771448734 18.7999999999999 0.0
      vertex 80.5753695495085 18.874963182164 10.0
      vertex 81.144771448734 18.7999999999999 10.0
   endloop
endfacet
facet normal 0.608761429008789 -0.793353340291183 0.0
   outer loop
      vertex 62.044771448734 22.9052558883258 10.0
      vertex 61.5891365301237 22.5556349186104 0.0
      vertex 62.044771448734 22.9052558883258 0.0
   endloop
endfacet
facet normal 0.608761429008789 -0.793353340291183 0.0
   outer loop
      vertex 61.5891365301237 22.5556349186104 0.0
      vertex 62.044771448734 22.9052558883258 10.0
      vertex 61.5891365301237 22.5556349186104 10.0
   endloop
endfacet
facet normal -0.991444861373819 0.130526192219988 0.0
   outer loop
      vertex 83.3447714487341 20.9999999999999 10.0
      vertex 83.2698082665701 20.4305981007744 0.0
      vertex 83.2698082665701 20.4305981007744 10.0
   endloop
endfacet
facet normal -0.991444861373819 0.130526192219988 0.0
   outer loop
      vertex 83.2698082665701 20.4305981007744 0.0
      vertex 83.3447714487341 20.9999999999999 10.0
      vertex 83.3447714487341 20.9999999999999 0.0
   endloop
endfacet
facet normal -0.991444861373821 -0.130526192219975 0.0
   outer loop
      vertex 83.2698082665701 21.5694018992255 10.0
      vertex 83.3447714487341 20.9999999999999 0.0
      vertex 83.3447714487341 20.9999999999999 10.0
   endloop
endfacet
facet normal -0.991444861373821 -0.130526192219975 0.0
   outer loop
      vertex 83.3447714487341 20.9999999999999 0.0
      vertex 83.2698082665701 21.5694018992255 10.0
      vertex 83.2698082665701 21.5694018992255 0.0
   endloop
endfacet
facet normal 0.3826834323651 -0.923879532511283 0.0
   outer loop
      vertex 80.5753695495085 23.1250368178358 10.0
      vertex 80.0447714487341 22.9052558883256 0.0
      vertex 80.5753695495085 23.1250368178358 0.0
   endloop
endfacet
facet normal 0.3826834323651 -0.923879532511283 0.0
   outer loop
      vertex 80.0447714487341 22.9052558883256 0.0
      vertex 80.5753695495085 23.1250368178358 10.0
      vertex 80.0447714487341 22.9052558883256 10.0
   endloop
endfacet
facet normal -0.130526192220109 0.991444861373803 -0.0
   outer loop
      vertex 81.144771448734 18.7999999999999 10.0
      vertex 81.7141733479596 18.874963182164 0.0
      vertex 81.144771448734 18.7999999999999 0.0
   endloop
endfacet
facet normal -0.130526192220109 0.991444861373803 -0.0
   outer loop
      vertex 81.7141733479596 18.874963182164 0.0
      vertex 81.144771448734 18.7999999999999 10.0
      vertex 81.7141733479596 18.874963182164 10.0
   endloop
endfacet
facet normal -0.923879532511288 -0.382683432365087 0.0
   outer loop
      vertex 83.0500273370599 22.0999999999999 10.0
      vertex 83.2698082665701 21.5694018992255 0.0
      vertex 83.2698082665701 21.5694018992255 10.0
   endloop
endfacet
facet normal -0.923879532511288 -0.382683432365087 0.0
   outer loop
      vertex 83.2698082665701 21.5694018992255 0.0
      vertex 83.0500273370599 22.0999999999999 10.0
      vertex 83.0500273370599 22.0999999999999 0.0
   endloop
endfacet
facet normal -0.793353340291259 -0.60876142900869 0.0
   outer loop
      vertex 82.7004063673446 22.5556349186103 10.0
      vertex 83.0500273370599 22.0999999999999 0.0
      vertex 83.0500273370599 22.0999999999999 10.0
   endloop
endfacet
facet normal -0.793353340291259 -0.60876142900869 0.0
   outer loop
      vertex 83.0500273370599 22.0999999999999 0.0
      vertex 82.7004063673446 22.5556349186103 10.0
      vertex 82.7004063673446 22.5556349186103 0.0
   endloop
endfacet
facet normal -0.382683432365108 -0.923879532511279 0.0
   outer loop
      vertex 82.2447714487341 22.9052558883256 10.0
      vertex 81.7141733479596 23.1250368178358 0.0
      vertex 82.2447714487341 22.9052558883256 0.0
   endloop
endfacet
facet normal -0.382683432365108 -0.923879532511279 0.0
   outer loop
      vertex 81.7141733479596 23.1250368178358 0.0
      vertex 82.2447714487341 22.9052558883256 10.0
      vertex 81.7141733479596 23.1250368178358 10.0
   endloop
endfacet
facet normal -0.608761429008589 -0.793353340291336 0.0
   outer loop
      vertex 82.7004063673446 22.5556349186103 10.0
      vertex 82.2447714487341 22.9052558883256 0.0
      vertex 82.7004063673446 22.5556349186103 0.0
   endloop
endfacet
facet normal -0.608761429008589 -0.793353340291336 0.0
   outer loop
      vertex 82.2447714487341 22.9052558883256 0.0
      vertex 82.7004063673446 22.5556349186103 10.0
      vertex 82.2447714487341 22.9052558883256 10.0
   endloop
endfacet
facet normal -0.382683432365077 0.923879532511292 -0.0
   outer loop
      vertex 81.7141733479596 18.874963182164 10.0
      vertex 82.2447714487341 19.0947441116742 0.0
      vertex 81.7141733479596 18.874963182164 0.0
   endloop
endfacet
facet normal -0.382683432365077 0.923879532511292 -0.0
   outer loop
      vertex 82.2447714487341 19.0947441116742 0.0
      vertex 81.7141733479596 18.874963182164 10.0
      vertex 82.2447714487341 19.0947441116742 10.0
   endloop
endfacet
facet normal 0.130526192220128 -0.991444861373801 0.0
   outer loop
      vertex 81.1447714487341 23.1999999999999 10.0
      vertex 80.5753695495085 23.1250368178358 0.0
      vertex 81.1447714487341 23.1999999999999 0.0
   endloop
endfacet
facet normal 0.130526192220128 -0.991444861373801 0.0
   outer loop
      vertex 80.5753695495085 23.1250368178358 0.0
      vertex 81.1447714487341 23.1999999999999 10.0
      vertex 80.5753695495085 23.1250368178358 10.0
   endloop
endfacet
facet normal -0.130526192220129 -0.9914448613738 0.0
   outer loop
      vertex 81.7141733479596 23.1250368178358 10.0
      vertex 81.1447714487341 23.1999999999999 0.0
      vertex 81.7141733479596 23.1250368178358 0.0
   endloop
endfacet
facet normal -0.130526192220129 -0.9914448613738 0.0
   outer loop
      vertex 81.1447714487341 23.1999999999999 0.0
      vertex 81.7141733479596 23.1250368178358 10.0
      vertex 81.1447714487341 23.1999999999999 10.0
   endloop
endfacet
facet normal -0.608761429008672 0.793353340291272 -0.0
   outer loop
      vertex 82.2447714487341 19.0947441116742 10.0
      vertex 82.7004063673445 19.4443650813895 0.0
      vertex 82.2447714487341 19.0947441116742 0.0
   endloop
endfacet
facet normal -0.608761429008672 0.793353340291272 -0.0
   outer loop
      vertex 82.7004063673445 19.4443650813895 0.0
      vertex 82.2447714487341 19.0947441116742 10.0
      vertex 82.7004063673445 19.4443650813895 10.0
   endloop
endfacet
facet normal 0.793353340291209 -0.608761429008755 -0.0
   outer loop
      vertex 61.5891365301237 22.5556349186104 0.0
      vertex 61.2395155604083 22.1 10.0
      vertex 61.2395155604083 22.1 0.0
   endloop
endfacet
facet normal 0.793353340291209 -0.608761429008755 -0.0
   outer loop
      vertex 61.2395155604083 22.1 10.0
      vertex 61.5891365301237 22.5556349186104 0.0
      vertex 61.5891365301237 22.5556349186104 10.0
   endloop
endfacet
facet normal 0.923879532511293 -0.382683432365074 -0.0
   outer loop
      vertex 61.2395155604083 22.1 0.0
      vertex 61.0197346308981 21.5694018992256 10.0
      vertex 61.0197346308981 21.5694018992256 0.0
   endloop
endfacet
facet normal 0.923879532511293 -0.382683432365074 -0.0
   outer loop
      vertex 61.0197346308981 21.5694018992256 10.0
      vertex 61.2395155604083 22.1 0.0
      vertex 61.2395155604083 22.1 10.0
   endloop
endfacet
facet normal -1.0 -2.25597318603837e-014 0.0
   outer loop
      vertex 59.1447714487339 25.9999999999999 10.0
      vertex 59.1447714487341 16.0000000000001 0.0
      vertex 59.1447714487341 16.0000000000001 10.0
   endloop
endfacet
facet normal -1.0 -2.25597318603837e-014 0.0
   outer loop
      vertex 59.1447714487341 16.0000000000001 0.0
      vertex 59.1447714487339 25.9999999999999 10.0
      vertex 59.1447714487339 25.9999999999999 0.0
   endloop
endfacet
facet normal -5.20609196778074e-015 -1.0 0.0
   outer loop
      vertex 85.144771448734 16.0 10.0
      vertex 59.1447714487341 16.0000000000001 0.0
      vertex 85.144771448734 16.0 0.0
   endloop
endfacet
facet normal -5.20609196778074e-015 -1.0 0.0
   outer loop
      vertex 59.1447714487341 16.0000000000001 0.0
      vertex 85.144771448734 16.0 10.0
      vertex 59.1447714487341 16.0000000000001 10.0
   endloop
endfacet
facet normal 1.0 -2.25597318603834e-015 -0.0
   outer loop
      vertex 85.1447714487341 25.9999999999999 0.0
      vertex 85.144771448734 16.0 10.0
      vertex 85.144771448734 16.0 0.0
   endloop
endfacet
facet normal 1.0 -2.25597318603834e-015 -0.0
   outer loop
      vertex 85.144771448734 16.0 10.0
      vertex 85.1447714487341 25.9999999999999 0.0
      vertex 85.1447714487341 25.9999999999999 10.0
   endloop
endfacet
facet normal -4.33840997315058e-016 1.0 -0.0
   outer loop
      vertex 59.1447714487339 25.9999999999999 10.0
      vertex 85.1447714487341 25.9999999999999 0.0
      vertex 59.1447714487339 25.9999999999999 0.0
   endloop
endfacet
facet normal -4.33840997315058e-016 1.0 -0.0
   outer loop
      vertex 85.1447714487341 25.9999999999999 0.0
      vertex 59.1447714487339 25.9999999999999 10.0
      vertex 85.1447714487341 25.9999999999999 10.0
   endloop
endfacet
facet normal 0.0 0.0 -1.0
   outer loop
      vertex 59.1447714487339 25.9999999999999 0.0
      vertex 61.0197346308981 21.5694018992256 0.0
      vertex 59.1447714487341 16.0000000000001 0.0
   endloop
endfacet
facet normal 0.0 0.0 -1.0
   outer loop
      vertex 61.0197346308981 21.5694018992256 0.0
      vertex 59.1447714487339 25.9999999999999 0.0
      vertex 61.2395155604083 22.1 0.0
   endloop
endfacet
facet normal 0.0 0.0 -1.0
   outer loop
      vertex 61.2395155604083 22.1 0.0
      vertex 59.1447714487339 25.9999999999999 0.0
      vertex 61.5891365301237 22.5556349186104 0.0
   endloop
endfacet
facet normal 0.0 0.0 -1.0
   outer loop
      vertex 61.5891365301237 22.5556349186104 0.0
      vertex 59.1447714487339 25.9999999999999 0.0
      vertex 62.044771448734 22.9052558883258 0.0
   endloop
endfacet
facet normal 0.0 0.0 -1.0
   outer loop
      vertex 62.044771448734 22.9052558883258 0.0
      vertex 59.1447714487339 25.9999999999999 0.0
      vertex 62.5753695495085 23.125036817836 0.0
   endloop
endfacet
facet normal 0.0 0.0 -1.0
   outer loop
      vertex 62.5753695495085 23.125036817836 0.0
      vertex 59.1447714487339 25.9999999999999 0.0
      vertex 63.144771448734 23.2 0.0
   endloop
endfacet
facet normal 0.0 0.0 -1.0
   outer loop
      vertex 63.144771448734 23.2 0.0
      vertex 59.1447714487339 25.9999999999999 0.0
      vertex 85.1447714487341 25.9999999999999 0.0
   endloop
endfacet
facet normal 0.0 0.0 -1.0
   outer loop
      vertex 59.1447714487341 16.0000000000001 0.0
      vertex 61.0197346308981 21.5694018992256 0.0
      vertex 60.944771448734 21.0 0.0
   endloop
endfacet
facet normal 0.0 0.0 -1.0
   outer loop
      vertex 63.144771448734 23.2 0.0
      vertex 85.1447714487341 25.9999999999999 0.0
      vertex 63.7141733479596 23.125036817836 0.0
   endloop
endfacet
facet normal 0.0 0.0 -1.0
   outer loop
      vertex 63.7141733479596 23.125036817836 0.0
      vertex 85.1447714487341 25.9999999999999 0.0
      vertex 64.244771448734 22.9052558883258 0.0
   endloop
endfacet
facet normal 0.0 0.0 -1.0
   outer loop
      vertex 64.244771448734 22.9052558883258 0.0
      vertex 85.1447714487341 25.9999999999999 0.0
      vertex 64.7004063673444 22.5556349186105 0.0
   endloop
endfacet
facet normal 0.0 0.0 -1.0
   outer loop
      vertex 64.7004063673444 22.5556349186105 0.0
      vertex 85.1447714487341 25.9999999999999 0.0
      vertex 65.0500273370598 22.1 0.0
   endloop
endfacet
facet normal 0.0 0.0 -1.0
   outer loop
      vertex 65.0500273370598 22.1 0.0
      vertex 85.1447714487341 25.9999999999999 0.0
      vertex 65.26980826657 21.5694018992256 0.0
   endloop
endfacet
facet normal 0.0 0.0 -1.0
   outer loop
      vertex 65.26980826657 21.5694018992256 0.0
      vertex 85.1447714487341 25.9999999999999 0.0
      vertex 65.344771448734 21.0000000000001 0.0
   endloop
endfacet
facet normal 0.0 0.0 -1.0
   outer loop
      vertex 65.344771448734 21.0000000000001 0.0
      vertex 85.1447714487341 25.9999999999999 0.0
      vertex 80.0447714487341 22.9052558883256 0.0
   endloop
endfacet
facet normal 0.0 0.0 -1.0
   outer loop
      vertex 65.344771448734 21.0000000000001 0.0
      vertex 80.0447714487341 22.9052558883256 0.0
      vertex 79.5891365301237 22.5556349186103 0.0
   endloop
endfacet
facet normal 0.0 0.0 -1.0
   outer loop
      vertex 65.344771448734 21.0000000000001 0.0
      vertex 79.5891365301237 22.5556349186103 0.0
      vertex 79.2395155604082 22.0999999999999 0.0
   endloop
endfacet
facet normal 0.0 0.0 -1.0
   outer loop
      vertex 65.344771448734 21.0000000000001 0.0
      vertex 79.2395155604082 22.0999999999999 0.0
      vertex 79.0197346308981 21.5694018992255 0.0
   endloop
endfacet
facet normal 0.0 0.0 -1.0
   outer loop
      vertex 65.344771448734 21.0000000000001 0.0
      vertex 79.0197346308981 21.5694018992255 0.0
      vertex 78.944771448734 21.0 0.0
   endloop
endfacet
facet normal 0.0 0.0 -1.0
   outer loop
      vertex 80.0447714487341 22.9052558883256 0.0
      vertex 85.1447714487341 25.9999999999999 0.0
      vertex 80.5753695495085 23.1250368178358 0.0
   endloop
endfacet
facet normal 0.0 0.0 -1.0
   outer loop
      vertex 80.5753695495085 23.1250368178358 0.0
      vertex 85.1447714487341 25.9999999999999 0.0
      vertex 81.1447714487341 23.1999999999999 0.0
   endloop
endfacet
facet normal 0.0 0.0 -1.0
   outer loop
      vertex 81.1447714487341 23.1999999999999 0.0
      vertex 85.1447714487341 25.9999999999999 0.0
      vertex 81.7141733479596 23.1250368178358 0.0
   endloop
endfacet
facet normal 0.0 0.0 -1.0
   outer loop
      vertex 81.7141733479596 23.1250368178358 0.0
      vertex 85.1447714487341 25.9999999999999 0.0
      vertex 82.2447714487341 22.9052558883256 0.0
   endloop
endfacet
facet normal 0.0 0.0 -1.0
   outer loop
      vertex 82.2447714487341 22.9052558883256 0.0
      vertex 85.1447714487341 25.9999999999999 0.0
      vertex 82.7004063673446 22.5556349186103 0.0
   endloop
endfacet
facet normal 0.0 0.0 -1.0
   outer loop
      vertex 82.7004063673446 22.5556349186103 0.0
      vertex 85.1447714487341 25.9999999999999 0.0
      vertex 83.0500273370599 22.0999999999999 0.0
   endloop
endfacet
facet normal 0.0 0.0 -1.0
   outer loop
      vertex 83.0500273370599 22.0999999999999 0.0
      vertex 85.1447714487341 25.9999999999999 0.0
      vertex 83.2698082665701 21.5694018992255 0.0
   endloop
endfacet
facet normal 0.0 0.0 -1.0
   outer loop
      vertex 83.2698082665701 21.5694018992255 0.0
      vertex 85.1447714487341 25.9999999999999 0.0
      vertex 83.3447714487341 20.9999999999999 0.0
   endloop
endfacet
facet normal 0.0 0.0 -1.0
   outer loop
      vertex 83.3447714487341 20.9999999999999 0.0
      vertex 85.1447714487341 25.9999999999999 0.0
      vertex 85.144771448734 16.0 0.0
   endloop
endfacet
facet normal 0.0 0.0 -1.0
   outer loop
      vertex 59.1447714487341 16.0000000000001 0.0
      vertex 63.1447714487341 18.8000000000001 0.0
      vertex 85.144771448734 16.0 0.0
   endloop
endfacet
facet normal 0.0 0.0 -1.0
   outer loop
      vertex 63.1447714487341 18.8000000000001 0.0
      vertex 59.1447714487341 16.0000000000001 0.0
      vertex 62.5753695495085 18.8749631821641 0.0
   endloop
endfacet
facet normal 0.0 0.0 -1.0
   outer loop
      vertex 62.5753695495085 18.8749631821641 0.0
      vertex 59.1447714487341 16.0000000000001 0.0
      vertex 62.0447714487341 19.0947441116743 0.0
   endloop
endfacet
facet normal 0.0 0.0 -1.0
   outer loop
      vertex 62.0447714487341 19.0947441116743 0.0
      vertex 59.1447714487341 16.0000000000001 0.0
      vertex 61.5891365301237 19.4443650813897 0.0
   endloop
endfacet
facet normal 0.0 0.0 -1.0
   outer loop
      vertex 61.5891365301237 19.4443650813897 0.0
      vertex 59.1447714487341 16.0000000000001 0.0
      vertex 61.2395155604083 19.9 0.0
   endloop
endfacet
facet normal 0.0 0.0 -1.0
   outer loop
      vertex 61.2395155604083 19.9 0.0
      vertex 59.1447714487341 16.0000000000001 0.0
      vertex 61.019734630898 20.4305981007744 0.0
   endloop
endfacet
facet normal 0.0 0.0 -1.0
   outer loop
      vertex 61.019734630898 20.4305981007744 0.0
      vertex 59.1447714487341 16.0000000000001 0.0
      vertex 60.944771448734 21.0 0.0
   endloop
endfacet
facet normal 0.0 0.0 -1.0
   outer loop
      vertex 85.144771448734 16.0 0.0
      vertex 63.1447714487341 18.8000000000001 0.0
      vertex 63.7141733479596 18.8749631821641 0.0
   endloop
endfacet
facet normal 0.0 0.0 -1.0
   outer loop
      vertex 85.144771448734 16.0 0.0
      vertex 63.7141733479596 18.8749631821641 0.0
      vertex 64.2447714487341 19.0947441116743 0.0
   endloop
endfacet
facet normal 0.0 0.0 -1.0
   outer loop
      vertex 85.144771448734 16.0 0.0
      vertex 64.2447714487341 19.0947441116743 0.0
      vertex 64.7004063673445 19.4443650813896 0.0
   endloop
endfacet
facet normal 0.0 0.0 -1.0
   outer loop
      vertex 85.144771448734 16.0 0.0
      vertex 64.7004063673445 19.4443650813896 0.0
      vertex 65.0500273370598 19.9000000000001 0.0
   endloop
endfacet
facet normal 0.0 0.0 -1.0
   outer loop
      vertex 85.144771448734 16.0 0.0
      vertex 65.0500273370598 19.9000000000001 0.0
      vertex 65.26980826657 20.4305981007746 0.0
   endloop
endfacet
facet normal 0.0 0.0 -1.0
   outer loop
      vertex 85.144771448734 16.0 0.0
      vertex 65.26980826657 20.4305981007746 0.0
      vertex 65.344771448734 21.0000000000001 0.0
   endloop
endfacet
facet normal 0.0 0.0 -1.0
   outer loop
      vertex 85.144771448734 16.0 0.0
      vertex 65.344771448734 21.0000000000001 0.0
      vertex 80.0447714487341 19.0947441116742 0.0
   endloop
endfacet
facet normal 0.0 0.0 -1.0
   outer loop
      vertex 80.0447714487341 19.0947441116742 0.0
      vertex 65.344771448734 21.0000000000001 0.0
      vertex 79.5891365301236 19.4443650813896 0.0
   endloop
endfacet
facet normal 0.0 0.0 -1.0
   outer loop
      vertex 79.5891365301236 19.4443650813896 0.0
      vertex 65.344771448734 21.0000000000001 0.0
      vertex 79.2395155604082 19.8999999999999 0.0
   endloop
endfacet
facet normal 0.0 0.0 -1.0
   outer loop
      vertex 79.2395155604082 19.8999999999999 0.0
      vertex 65.344771448734 21.0000000000001 0.0
      vertex 79.019734630898 20.4305981007745 0.0
   endloop
endfacet
facet normal 0.0 0.0 -1.0
   outer loop
      vertex 79.019734630898 20.4305981007745 0.0
      vertex 65.344771448734 21.0000000000001 0.0
      vertex 78.944771448734 21.0 0.0
   endloop
endfacet
facet normal 0.0 0.0 -1.0
   outer loop
      vertex 85.144771448734 16.0 0.0
      vertex 80.0447714487341 19.0947441116742 0.0
      vertex 80.5753695495085 18.874963182164 0.0
   endloop
endfacet
facet normal 0.0 0.0 -1.0
   outer loop
      vertex 85.144771448734 16.0 0.0
      vertex 80.5753695495085 18.874963182164 0.0
      vertex 81.144771448734 18.7999999999999 0.0
   endloop
endfacet
facet normal 0.0 0.0 -1.0
   outer loop
      vertex 85.144771448734 16.0 0.0
      vertex 81.144771448734 18.7999999999999 0.0
      vertex 81.7141733479596 18.874963182164 0.0
   endloop
endfacet
facet normal 0.0 0.0 -1.0
   outer loop
      vertex 85.144771448734 16.0 0.0
      vertex 81.7141733479596 18.874963182164 0.0
      vertex 82.2447714487341 19.0947441116742 0.0
   endloop
endfacet
facet normal 0.0 0.0 -1.0
   outer loop
      vertex 85.144771448734 16.0 0.0
      vertex 82.2447714487341 19.0947441116742 0.0
      vertex 82.7004063673445 19.4443650813895 0.0
   endloop
endfacet
facet normal 0.0 0.0 -1.0
   outer loop
      vertex 85.144771448734 16.0 0.0
      vertex 82.7004063673445 19.4443650813895 0.0
      vertex 83.0500273370598 19.8999999999999 0.0
   endloop
endfacet
facet normal 0.0 0.0 -1.0
   outer loop
      vertex 85.144771448734 16.0 0.0
      vertex 83.0500273370598 19.8999999999999 0.0
      vertex 83.2698082665701 20.4305981007744 0.0
   endloop
endfacet
facet normal 0.0 0.0 -1.0
   outer loop
      vertex 85.144771448734 16.0 0.0
      vertex 83.2698082665701 20.4305981007744 0.0
      vertex 83.3447714487341 20.9999999999999 0.0
   endloop
endfacet
facet normal -0.0 -0.0 1.0
   outer loop
      vertex 59.1447714487341 16.0000000000001 10.0
      vertex 61.019734630898 20.4305981007744 10.0
      vertex 60.944771448734 21.0 10.0
   endloop
endfacet
facet normal -0.0 -0.0 1.0
   outer loop
      vertex 61.019734630898 20.4305981007744 10.0
      vertex 59.1447714487341 16.0000000000001 10.0
      vertex 61.2395155604083 19.9 10.0
   endloop
endfacet
facet normal -0.0 -0.0 1.0
   outer loop
      vertex 61.2395155604083 19.9 10.0
      vertex 59.1447714487341 16.0000000000001 10.0
      vertex 61.5891365301237 19.4443650813897 10.0
   endloop
endfacet
facet normal -0.0 -0.0 1.0
   outer loop
      vertex 61.5891365301237 19.4443650813897 10.0
      vertex 59.1447714487341 16.0000000000001 10.0
      vertex 62.0447714487341 19.0947441116743 10.0
   endloop
endfacet
facet normal -0.0 -0.0 1.0
   outer loop
      vertex 62.0447714487341 19.0947441116743 10.0
      vertex 59.1447714487341 16.0000000000001 10.0
      vertex 62.5753695495085 18.8749631821641 10.0
   endloop
endfacet
facet normal -0.0 -0.0 1.0
   outer loop
      vertex 62.5753695495085 18.8749631821641 10.0
      vertex 59.1447714487341 16.0000000000001 10.0
      vertex 63.1447714487341 18.8000000000001 10.0
   endloop
endfacet
facet normal -0.0 -0.0 1.0
   outer loop
      vertex 63.1447714487341 18.8000000000001 10.0
      vertex 59.1447714487341 16.0000000000001 10.0
      vertex 85.144771448734 16.0 10.0
   endloop
endfacet
facet normal -0.0 -0.0 1.0
   outer loop
      vertex 63.1447714487341 18.8000000000001 10.0
      vertex 85.144771448734 16.0 10.0
      vertex 63.7141733479596 18.8749631821641 10.0
   endloop
endfacet
facet normal -0.0 -0.0 1.0
   outer loop
      vertex 63.7141733479596 18.8749631821641 10.0
      vertex 85.144771448734 16.0 10.0
      vertex 64.2447714487341 19.0947441116743 10.0
   endloop
endfacet
facet normal -0.0 -0.0 1.0
   outer loop
      vertex 64.2447714487341 19.0947441116743 10.0
      vertex 85.144771448734 16.0 10.0
      vertex 64.7004063673445 19.4443650813896 10.0
   endloop
endfacet
facet normal -0.0 -0.0 1.0
   outer loop
      vertex 64.7004063673445 19.4443650813896 10.0
      vertex 85.144771448734 16.0 10.0
      vertex 65.0500273370598 19.9000000000001 10.0
   endloop
endfacet
facet normal -0.0 -0.0 1.0
   outer loop
      vertex 65.0500273370598 19.9000000000001 10.0
      vertex 85.144771448734 16.0 10.0
      vertex 65.26980826657 20.4305981007746 10.0
   endloop
endfacet
facet normal -0.0 -0.0 1.0
   outer loop
      vertex 65.26980826657 20.4305981007746 10.0
      vertex 85.144771448734 16.0 10.0
      vertex 65.344771448734 21.0000000000001 10.0
   endloop
endfacet
facet normal -0.0 -0.0 1.0
   outer loop
      vertex 65.344771448734 21.0000000000001 10.0
      vertex 85.144771448734 16.0 10.0
      vertex 80.0447714487341 19.0947441116742 10.0
   endloop
endfacet
facet normal -0.0 -0.0 1.0
   outer loop
      vertex 65.344771448734 21.0000000000001 10.0
      vertex 80.0447714487341 19.0947441116742 10.0
      vertex 79.5891365301236 19.4443650813896 10.0
   endloop
endfacet
facet normal -0.0 -0.0 1.0
   outer loop
      vertex 65.344771448734 21.0000000000001 10.0
      vertex 79.5891365301236 19.4443650813896 10.0
      vertex 79.2395155604082 19.8999999999999 10.0
   endloop
endfacet
facet normal -0.0 -0.0 1.0
   outer loop
      vertex 65.344771448734 21.0000000000001 10.0
      vertex 79.2395155604082 19.8999999999999 10.0
      vertex 79.019734630898 20.4305981007745 10.0
   endloop
endfacet
facet normal -0.0 -0.0 1.0
   outer loop
      vertex 65.344771448734 21.0000000000001 10.0
      vertex 79.019734630898 20.4305981007745 10.0
      vertex 78.944771448734 21.0 10.0
   endloop
endfacet
facet normal -0.0 -0.0 1.0
   outer loop
      vertex 80.0447714487341 19.0947441116742 10.0
      vertex 85.144771448734 16.0 10.0
      vertex 80.5753695495085 18.874963182164 10.0
   endloop
endfacet
facet normal -0.0 -0.0 1.0
   outer loop
      vertex 80.5753695495085 18.874963182164 10.0
      vertex 85.144771448734 16.0 10.0
      vertex 81.144771448734 18.7999999999999 10.0
   endloop
endfacet
facet normal -0.0 -0.0 1.0
   outer loop
      vertex 81.144771448734 18.7999999999999 10.0
      vertex 85.144771448734 16.0 10.0
      vertex 81.7141733479596 18.874963182164 10.0
   endloop
endfacet
facet normal -0.0 -0.0 1.0
   outer loop
      vertex 81.7141733479596 18.874963182164 10.0
      vertex 85.144771448734 16.0 10.0
      vertex 82.2447714487341 19.0947441116742 10.0
   endloop
endfacet
facet normal -0.0 -0.0 1.0
   outer loop
      vertex 82.2447714487341 19.0947441116742 10.0
      vertex 85.144771448734 16.0 10.0
      vertex 82.7004063673445 19.4443650813895 10.0
   endloop
endfacet
facet normal -0.0 -0.0 1.0
   outer loop
      vertex 82.7004063673445 19.4443650813895 10.0
      vertex 85.144771448734 16.0 10.0
      vertex 83.0500273370598 19.8999999999999 10.0
   endloop
endfacet
facet normal -0.0 -0.0 1.0
   outer loop
      vertex 83.0500273370598 19.8999999999999 10.0
      vertex 85.144771448734 16.0 10.0
      vertex 83.2698082665701 20.4305981007744 10.0
   endloop
endfacet
facet normal -0.0 -0.0 1.0
   outer loop
      vertex 83.2698082665701 20.4305981007744 10.0
      vertex 85.144771448734 16.0 10.0
      vertex 83.3447714487341 20.9999999999999 10.0
   endloop
endfacet
facet normal -0.0 -0.0 1.0
   outer loop
      vertex 59.1447714487339 25.9999999999999 10.0
      vertex 63.144771448734 23.2 10.0
      vertex 85.1447714487341 25.9999999999999 10.0
   endloop
endfacet
facet normal -0.0 -0.0 1.0
   outer loop
      vertex 63.144771448734 23.2 10.0
      vertex 59.1447714487339 25.9999999999999 10.0
      vertex 62.5753695495085 23.125036817836 10.0
   endloop
endfacet
facet normal -0.0 -0.0 1.0
   outer loop
      vertex 62.5753695495085 23.125036817836 10.0
      vertex 59.1447714487339 25.9999999999999 10.0
      vertex 62.044771448734 22.9052558883258 10.0
   endloop
endfacet
facet normal -0.0 -0.0 1.0
   outer loop
      vertex 62.044771448734 22.9052558883258 10.0
      vertex 59.1447714487339 25.9999999999999 10.0
      vertex 61.5891365301237 22.5556349186104 10.0
   endloop
endfacet
facet normal -0.0 -0.0 1.0
   outer loop
      vertex 61.5891365301237 22.5556349186104 10.0
      vertex 59.1447714487339 25.9999999999999 10.0
      vertex 61.2395155604083 22.1 10.0
   endloop
endfacet
facet normal -0.0 -0.0 1.0
   outer loop
      vertex 61.2395155604083 22.1 10.0
      vertex 59.1447714487339 25.9999999999999 10.0
      vertex 61.0197346308981 21.5694018992256 10.0
   endloop
endfacet
facet normal -0.0 -0.0 1.0
   outer loop
      vertex 61.0197346308981 21.5694018992256 10.0
      vertex 59.1447714487339 25.9999999999999 10.0
      vertex 59.1447714487341 16.0000000000001 10.0
   endloop
endfacet
facet normal -0.0 -0.0 1.0
   outer loop
      vertex 61.0197346308981 21.5694018992256 10.0
      vertex 59.1447714487341 16.0000000000001 10.0
      vertex 60.944771448734 21.0 10.0
   endloop
endfacet
facet normal -0.0 -0.0 1.0
   outer loop
      vertex 85.1447714487341 25.9999999999999 10.0
      vertex 63.144771448734 23.2 10.0
      vertex 63.7141733479596 23.125036817836 10.0
   endloop
endfacet
facet normal -0.0 -0.0 1.0
   outer loop
      vertex 85.1447714487341 25.9999999999999 10.0
      vertex 63.7141733479596 23.125036817836 10.0
      vertex 64.244771448734 22.9052558883258 10.0
   endloop
endfacet
facet normal -0.0 -0.0 1.0
   outer loop
      vertex 85.1447714487341 25.9999999999999 10.0
      vertex 64.244771448734 22.9052558883258 10.0
      vertex 64.7004063673444 22.5556349186105 10.0
   endloop
endfacet
facet normal -0.0 -0.0 1.0
   outer loop
      vertex 85.1447714487341 25.9999999999999 10.0
      vertex 64.7004063673444 22.5556349186105 10.0
      vertex 65.0500273370598 22.1 10.0
   endloop
endfacet
facet normal -0.0 -0.0 1.0
   outer loop
      vertex 85.1447714487341 25.9999999999999 10.0
      vertex 65.0500273370598 22.1 10.0
      vertex 65.26980826657 21.5694018992256 10.0
   endloop
endfacet
facet normal -0.0 -0.0 1.0
   outer loop
      vertex 85.1447714487341 25.9999999999999 10.0
      vertex 65.26980826657 21.5694018992256 10.0
      vertex 65.344771448734 21.0000000000001 10.0
   endloop
endfacet
facet normal -0.0 -0.0 1.0
   outer loop
      vertex 85.1447714487341 25.9999999999999 10.0
      vertex 65.344771448734 21.0000000000001 10.0
      vertex 80.0447714487341 22.9052558883256 10.0
   endloop
endfacet
facet normal -0.0 -0.0 1.0
   outer loop
      vertex 80.0447714487341 22.9052558883256 10.0
      vertex 65.344771448734 21.0000000000001 10.0
      vertex 79.5891365301237 22.5556349186103 10.0
   endloop
endfacet
facet normal -0.0 -0.0 1.0
   outer loop
      vertex 79.5891365301237 22.5556349186103 10.0
      vertex 65.344771448734 21.0000000000001 10.0
      vertex 79.2395155604082 22.0999999999999 10.0
   endloop
endfacet
facet normal -0.0 -0.0 1.0
   outer loop
      vertex 79.2395155604082 22.0999999999999 10.0
      vertex 65.344771448734 21.0000000000001 10.0
      vertex 79.0197346308981 21.5694018992255 10.0
   endloop
endfacet
facet normal -0.0 -0.0 1.0
   outer loop
      vertex 79.0197346308981 21.5694018992255 10.0
      vertex 65.344771448734 21.0000000000001 10.0
      vertex 78.944771448734 21.0 10.0
   endloop
endfacet
facet normal -0.0 -0.0 1.0
   outer loop
      vertex 85.1447714487341 25.9999999999999 10.0
      vertex 80.0447714487341 22.9052558883256 10.0
      vertex 80.5753695495085 23.1250368178358 10.0
   endloop
endfacet
facet normal -0.0 -0.0 1.0
   outer loop
      vertex 85.1447714487341 25.9999999999999 10.0
      vertex 80.5753695495085 23.1250368178358 10.0
      vertex 81.1447714487341 23.1999999999999 10.0
   endloop
endfacet
facet normal -0.0 -0.0 1.0
   outer loop
      vertex 85.1447714487341 25.9999999999999 10.0
      vertex 81.1447714487341 23.1999999999999 10.0
      vertex 81.7141733479596 23.1250368178358 10.0
   endloop
endfacet
facet normal -0.0 -0.0 1.0
   outer loop
      vertex 85.1447714487341 25.9999999999999 10.0
      vertex 81.7141733479596 23.1250368178358 10.0
      vertex 82.2447714487341 22.9052558883256 10.0
   endloop
endfacet
facet normal -0.0 -0.0 1.0
   outer loop
      vertex 85.1447714487341 25.9999999999999 10.0
      vertex 82.2447714487341 22.9052558883256 10.0
      vertex 82.7004063673446 22.5556349186103 10.0
   endloop
endfacet
facet normal -0.0 -0.0 1.0
   outer loop
      vertex 85.1447714487341 25.9999999999999 10.0
      vertex 82.7004063673446 22.5556349186103 10.0
      vertex 83.0500273370599 22.0999999999999 10.0
   endloop
endfacet
facet normal -0.0 -0.0 1.0
   outer loop
      vertex 85.1447714487341 25.9999999999999 10.0
      vertex 83.0500273370599 22.0999999999999 10.0
      vertex 83.2698082665701 21.5694018992255 10.0
   endloop
endfacet
facet normal -0.0 -0.0 1.0
   outer loop
      vertex 85.1447714487341 25.9999999999999 10.0
      vertex 83.2698082665701 21.5694018992255 10.0
      vertex 83.3447714487341 20.9999999999999 10.0
   endloop
endfacet
facet normal -0.0 -0.0 1.0
   outer loop
      vertex 85.1447714487341 25.9999999999999 10.0
      vertex 83.3447714487341 20.9999999999999 10.0
      vertex 85.144771448734 16.0 10.0
   endloop
endfacet
facet normal -0.923879532511267 0.382683432365137 0.0
   outer loop
      vertex 83.2698082665701 20.4305981007744 10.0
      vertex 83.0500273370598 19.8999999999999 0.0
      vertex 83.0500273370598 19.8999999999999 10.0
   endloop
endfacet
facet normal -0.923879532511267 0.382683432365137 0.0
   outer loop
      vertex 83.0500273370598 19.8999999999999 0.0
      vertex 83.2698082665701 20.4305981007744 10.0
      vertex 83.2698082665701 20.4305981007744 0.0
   endloop
endfacet
facet normal -0.79335334029126 0.608761429008689 0.0
   outer loop
      vertex 83.0500273370598 19.8999999999999 10.0
      vertex 82.7004063673445 19.4443650813895 0.0
      vertex 82.7004063673445 19.4443650813895 10.0
   endloop
endfacet
facet normal -0.79335334029126 0.608761429008689 0.0
   outer loop
      vertex 82.7004063673445 19.4443650813895 0.0
      vertex 83.0500273370598 19.8999999999999 10.0
      vertex 83.0500273370598 19.8999999999999 0.0
   endloop
endfacet
facet normal 0.923879532511324 -0.382683432365 -0.0
   outer loop
      vertex 79.2395155604082 22.0999999999999 0.0
      vertex 79.0197346308981 21.5694018992255 10.0
      vertex 79.0197346308981 21.5694018992255 0.0
   endloop
endfacet
facet normal 0.923879532511324 -0.382683432365 -0.0
   outer loop
      vertex 79.0197346308981 21.5694018992255 10.0
      vertex 79.2395155604082 22.0999999999999 0.0
      vertex 79.2395155604082 22.0999999999999 10.0
   endloop
endfacet
facet normal 0.608761429008672 0.793353340291272 -0.0
   outer loop
      vertex 79.5891365301236 19.4443650813896 10.0
      vertex 80.0447714487341 19.0947441116742 0.0
      vertex 79.5891365301236 19.4443650813896 0.0
   endloop
endfacet
facet normal 0.608761429008672 0.793353340291272 -0.0
   outer loop
      vertex 80.0447714487341 19.0947441116742 0.0
      vertex 79.5891365301236 19.4443650813896 10.0
      vertex 80.0447714487341 19.0947441116742 10.0
   endloop
endfacet
facet normal 0.923879532511333 0.382683432364978 -0.0
   outer loop
      vertex 79.019734630898 20.4305981007745 0.0
      vertex 79.2395155604082 19.8999999999999 10.0
      vertex 79.2395155604082 19.8999999999999 0.0
   endloop
endfacet
facet normal 0.923879532511333 0.382683432364978 -0.0
   outer loop
      vertex 79.2395155604082 19.8999999999999 10.0
      vertex 79.019734630898 20.4305981007745 0.0
      vertex 79.019734630898 20.4305981007745 10.0
   endloop
endfacet
facet normal 0.793353340291206 0.608761429008759 -0.0
   outer loop
      vertex 79.2395155604082 19.8999999999999 0.0
      vertex 79.5891365301236 19.4443650813896 10.0
      vertex 79.5891365301236 19.4443650813896 0.0
   endloop
endfacet
facet normal 0.793353340291206 0.608761429008759 -0.0
   outer loop
      vertex 79.5891365301236 19.4443650813896 10.0
      vertex 79.2395155604082 19.8999999999999 0.0
      vertex 79.2395155604082 19.8999999999999 10.0
   endloop
endfacet
facet normal 0.991444861373803 -0.130526192220109 -0.0
   outer loop
      vertex 79.0197346308981 21.5694018992255 0.0
      vertex 78.944771448734 21.0 10.0
      vertex 78.944771448734 21.0 0.0
   endloop
endfacet
facet normal 0.991444861373803 -0.130526192220109 -0.0
   outer loop
      vertex 78.944771448734 21.0 10.0
      vertex 79.0197346308981 21.5694018992255 0.0
      vertex 79.0197346308981 21.5694018992255 10.0
   endloop
endfacet
endsolid MAIN-PRINT-PLATE-2FINAL3
