solid z-captive-nut-cradle-plus-pocket2
facet normal -1.0 0.0 -6.52015371687376e-016
   outer loop
      vertex 32.3519686370645 39.76 17.3
      vertex 32.3519686370645 24.9635935394491 0.0
      vertex 32.3519686370645 24.9635935394491 17.3
   endloop
endfacet
facet normal -1.0 0.0 -6.52015371687376e-016
   outer loop
      vertex 32.3519686370645 24.9635935394491 0.0
      vertex 32.3519686370645 39.76 17.3
      vertex 32.3519686370645 39.76 0.0
   endloop
endfacet
facet normal 1.0 -0.0 -0.0
   outer loop
      vertex 52.3519686370647 39.76 0.0
      vertex 52.3519686370647 24.963593539449 17.3
      vertex 52.3519686370647 24.963593539449 0.0
   endloop
endfacet
facet normal 1.0 -0.0 -0.0
   outer loop
      vertex 52.3519686370647 24.963593539449 17.3
      vertex 52.3519686370647 39.76 0.0
      vertex 52.3519686370647 39.76 17.3
   endloop
endfacet
facet normal 0.793353340291219 -0.608761429008741 -0.0
   outer loop
      vertex 39.0992774436065 35.6144879631827 0.0
      vertex 38.3682517796562 34.6617967697246 10.3
      vertex 38.3682517796562 34.6617967697246 0.0
   endloop
endfacet
facet normal 0.793353340291219 -0.608761429008741 -0.0
   outer loop
      vertex 38.3682517796562 34.6617967697246 10.3
      vertex 39.0992774436065 35.6144879631827 0.0
      vertex 39.0992774436065 35.6144879631827 10.3
   endloop
endfacet
facet normal 0.923879532511296 -0.382683432365067 -0.0
   outer loop
      vertex 38.3682517796562 34.6617967697246 0.0
      vertex 37.9087098361349 33.5523643771962 10.3
      vertex 37.9087098361349 33.5523643771962 0.0
   endloop
endfacet
facet normal 0.923879532511296 -0.382683432365067 -0.0
   outer loop
      vertex 37.9087098361349 33.5523643771962 10.3
      vertex 38.3682517796562 34.6617967697246 0.0
      vertex 38.3682517796562 34.6617967697246 10.3
   endloop
endfacet
facet normal -0.866025403784437 0.500000000000003 2.78901823264283e-015
   outer loop
      vertex 49.8519686370648 32.3617967697246 17.3
      vertex 46.1019686370647 25.8666062413413 10.3
      vertex 46.1019686370647 25.8666062413413 17.3
   endloop
endfacet
facet normal -0.866025403784437 0.500000000000003 2.78901823264283e-015
   outer loop
      vertex 46.1019686370647 25.8666062413413 10.3
      vertex 49.8519686370648 32.3617967697246 17.3
      vertex 49.8519686370647 32.3617967697246 10.3
   endloop
endfacet
facet normal -1.0 3.14293983810503e-044 3.2228188371976e-015
   outer loop
      vertex 46.1019686370647 25.8666062413413 17.3
      vertex 46.1019686370647 24.963593539449 10.3
      vertex 46.1019686370647 24.963593539449 17.3
   endloop
endfacet
facet normal -1.0 3.14293983810503e-044 3.2228188371976e-015
   outer loop
      vertex 46.1019686370647 24.963593539449 10.3
      vertex 46.1019686370647 25.8666062413413 17.3
      vertex 46.1019686370647 25.8666062413413 10.3
   endloop
endfacet
facet normal 0.991444861373806 -0.130526192220086 -0.0
   outer loop
      vertex 37.9087098361349 33.5523643771962 0.0
      vertex 37.7519686370646 32.3617967697246 10.3
      vertex 37.7519686370646 32.3617967697246 0.0
   endloop
endfacet
facet normal 0.991444861373806 -0.130526192220086 -0.0
   outer loop
      vertex 37.7519686370646 32.3617967697246 10.3
      vertex 37.9087098361349 33.5523643771962 0.0
      vertex 37.9087098361349 33.5523643771962 10.3
   endloop
endfacet
facet normal 0.99144486137381 0.130526192220053 -0.0
   outer loop
      vertex 37.7519686370646 32.3617967697246 0.0
      vertex 37.9087098361349 31.171229162253 10.3
      vertex 37.9087098361349 31.171229162253 0.0
   endloop
endfacet
facet normal 0.99144486137381 0.130526192220053 -0.0
   outer loop
      vertex 37.9087098361349 31.171229162253 10.3
      vertex 37.7519686370646 32.3617967697246 0.0
      vertex 37.7519686370646 32.3617967697246 10.3
   endloop
endfacet
facet normal -1.0 0.0 0.0
   outer loop
      vertex 46.1019686370647 39.7600000000001 17.3
      vertex 46.1019686370647 38.8569872981079 10.3
      vertex 46.1019686370647 38.8569872981079 17.3
   endloop
endfacet
facet normal -1.0 0.0 0.0
   outer loop
      vertex 46.1019686370647 38.8569872981079 10.3
      vertex 46.1019686370647 39.7600000000001 17.3
      vertex 46.1019686370647 39.7600000000001 10.3
   endloop
endfacet
facet normal 0.923879532511283 0.382683432365099 -0.0
   outer loop
      vertex 37.9087098361349 31.171229162253 0.0
      vertex 38.3682517796562 30.0617967697246 10.3
      vertex 38.3682517796562 30.0617967697246 0.0
   endloop
endfacet
facet normal 0.923879532511283 0.382683432365099 -0.0
   outer loop
      vertex 38.3682517796562 30.0617967697246 10.3
      vertex 37.9087098361349 31.171229162253 0.0
      vertex 37.9087098361349 31.171229162253 10.3
   endloop
endfacet
facet normal 0.793353340291215 0.608761429008747 -0.0
   outer loop
      vertex 38.3682517796562 30.0617967697246 0.0
      vertex 39.0992774436066 29.1091055762664 10.3
      vertex 39.0992774436066 29.1091055762664 0.0
   endloop
endfacet
facet normal 0.793353340291215 0.608761429008747 -0.0
   outer loop
      vertex 39.0992774436066 29.1091055762664 10.3
      vertex 38.3682517796562 30.0617967697246 0.0
      vertex 38.3682517796562 30.0617967697246 10.3
   endloop
endfacet
facet normal 0.608761429008769 0.793353340291199 -0.0
   outer loop
      vertex 39.0992774436066 29.1091055762664 10.3
      vertex 40.0519686370646 28.3780799123161 0.0
      vertex 39.0992774436066 29.1091055762664 0.0
   endloop
endfacet
facet normal 0.608761429008769 0.793353340291199 -0.0
   outer loop
      vertex 40.0519686370646 28.3780799123161 0.0
      vertex 39.0992774436066 29.1091055762664 10.3
      vertex 40.0519686370646 28.3780799123161 10.3
   endloop
endfacet
facet normal -0.991444861373811 -0.130526192220045 0.0
   outer loop
      vertex 46.7952274379943 33.5523643771962 10.3
      vertex 46.9519686370646 32.3617967697246 0.0
      vertex 46.9519686370646 32.3617967697246 10.3
   endloop
endfacet
facet normal -0.991444861373811 -0.130526192220045 0.0
   outer loop
      vertex 46.9519686370646 32.3617967697246 0.0
      vertex 46.7952274379943 33.5523643771962 10.3
      vertex 46.7952274379943 33.5523643771962 0.0
   endloop
endfacet
facet normal -0.923879532511286 -0.382683432365091 0.0
   outer loop
      vertex 46.335685494473 34.6617967697246 10.3
      vertex 46.7952274379943 33.5523643771962 0.0
      vertex 46.7952274379943 33.5523643771962 10.3
   endloop
endfacet
facet normal -0.923879532511286 -0.382683432365091 0.0
   outer loop
      vertex 46.7952274379943 33.5523643771962 0.0
      vertex 46.335685494473 34.6617967697246 10.3
      vertex 46.335685494473 34.6617967697246 0.0
   endloop
endfacet
facet normal -0.793353340291192 -0.608761429008777 0.0
   outer loop
      vertex 45.6046598305227 35.6144879631826 10.3
      vertex 46.335685494473 34.6617967697246 0.0
      vertex 46.335685494473 34.6617967697246 10.3
   endloop
endfacet
facet normal -0.793353340291192 -0.608761429008777 0.0
   outer loop
      vertex 46.335685494473 34.6617967697246 0.0
      vertex 45.6046598305227 35.6144879631826 10.3
      vertex 45.6046598305227 35.6144879631826 0.0
   endloop
endfacet
facet normal -0.608761429008716 -0.793353340291239 0.0
   outer loop
      vertex 45.6046598305227 35.6144879631826 10.3
      vertex 44.6519686370646 36.3455136271329 0.0
      vertex 45.6046598305227 35.6144879631826 0.0
   endloop
endfacet
facet normal -0.608761429008716 -0.793353340291239 0.0
   outer loop
      vertex 44.6519686370646 36.3455136271329 0.0
      vertex 45.6046598305227 35.6144879631826 10.3
      vertex 44.6519686370646 36.3455136271329 10.3
   endloop
endfacet
facet normal -0.38268343236518 -0.92387953251125 0.0
   outer loop
      vertex 44.6519686370646 36.3455136271329 10.3
      vertex 43.5425362445363 36.8050555706543 0.0
      vertex 44.6519686370646 36.3455136271329 0.0
   endloop
endfacet
facet normal -0.38268343236518 -0.92387953251125 0.0
   outer loop
      vertex 43.5425362445363 36.8050555706543 0.0
      vertex 44.6519686370646 36.3455136271329 10.3
      vertex 43.5425362445363 36.8050555706543 10.3
   endloop
endfacet
facet normal -0.13052619221999 -0.991444861373819 0.0
   outer loop
      vertex 43.5425362445363 36.8050555706543 10.3
      vertex 42.3519686370646 36.9617967697245 0.0
      vertex 43.5425362445363 36.8050555706543 0.0
   endloop
endfacet
facet normal -0.13052619221999 -0.991444861373819 0.0
   outer loop
      vertex 42.3519686370646 36.9617967697245 0.0
      vertex 43.5425362445363 36.8050555706543 10.3
      vertex 42.3519686370646 36.9617967697245 10.3
   endloop
endfacet
facet normal 0.130526192220035 -0.991444861373812 0.0
   outer loop
      vertex 42.3519686370646 36.9617967697245 10.3
      vertex 41.1614010295931 36.8050555706543 0.0
      vertex 42.3519686370646 36.9617967697245 0.0
   endloop
endfacet
facet normal 0.130526192220035 -0.991444861373812 0.0
   outer loop
      vertex 41.1614010295931 36.8050555706543 0.0
      vertex 42.3519686370646 36.9617967697245 10.3
      vertex 41.1614010295931 36.8050555706543 10.3
   endloop
endfacet
facet normal 0.382683432365052 -0.923879532511303 0.0
   outer loop
      vertex 41.1614010295931 36.8050555706543 10.3
      vertex 40.0519686370646 36.345513627133 0.0
      vertex 41.1614010295931 36.8050555706543 0.0
   endloop
endfacet
facet normal 0.382683432365052 -0.923879532511303 0.0
   outer loop
      vertex 40.0519686370646 36.345513627133 0.0
      vertex 41.1614010295931 36.8050555706543 10.3
      vertex 40.0519686370646 36.345513627133 10.3
   endloop
endfacet
facet normal 0.608761429008735 -0.793353340291224 0.0
   outer loop
      vertex 40.0519686370646 36.345513627133 10.3
      vertex 39.0992774436065 35.6144879631827 0.0
      vertex 40.0519686370646 36.345513627133 0.0
   endloop
endfacet
facet normal 0.608761429008735 -0.793353340291224 0.0
   outer loop
      vertex 39.0992774436065 35.6144879631827 0.0
      vertex 40.0519686370646 36.345513627133 10.3
      vertex 39.0992774436065 35.6144879631827 10.3
   endloop
endfacet
facet normal 0.382683432365052 0.923879532511303 -0.0
   outer loop
      vertex 40.0519686370646 28.3780799123161 10.3
      vertex 41.161401029593 27.9185379687949 0.0
      vertex 40.0519686370646 28.3780799123161 0.0
   endloop
endfacet
facet normal 0.382683432365052 0.923879532511303 -0.0
   outer loop
      vertex 41.161401029593 27.9185379687949 0.0
      vertex 40.0519686370646 28.3780799123161 10.3
      vertex 41.161401029593 27.9185379687949 10.3
   endloop
endfacet
facet normal 0.130526192220088 0.991444861373806 -0.0
   outer loop
      vertex 41.161401029593 27.9185379687949 10.3
      vertex 42.3519686370646 27.7617967697245 0.0
      vertex 41.161401029593 27.9185379687949 0.0
   endloop
endfacet
facet normal 0.130526192220088 0.991444861373806 -0.0
   outer loop
      vertex 42.3519686370646 27.7617967697245 0.0
      vertex 41.161401029593 27.9185379687949 10.3
      vertex 42.3519686370646 27.7617967697245 10.3
   endloop
endfacet
facet normal -0.130526192220066 0.991444861373809 -0.0
   outer loop
      vertex 42.3519686370646 27.7617967697245 10.3
      vertex 43.5425362445363 27.9185379687948 0.0
      vertex 42.3519686370646 27.7617967697245 0.0
   endloop
endfacet
facet normal -0.130526192220066 0.991444861373809 -0.0
   outer loop
      vertex 43.5425362445363 27.9185379687948 0.0
      vertex 42.3519686370646 27.7617967697245 10.3
      vertex 43.5425362445363 27.9185379687948 10.3
   endloop
endfacet
facet normal -0.38268343236508 0.923879532511291 -0.0
   outer loop
      vertex 43.5425362445363 27.9185379687948 10.3
      vertex 44.6519686370646 28.3780799123161 0.0
      vertex 43.5425362445363 27.9185379687948 0.0
   endloop
endfacet
facet normal -0.38268343236508 0.923879532511291 -0.0
   outer loop
      vertex 44.6519686370646 28.3780799123161 0.0
      vertex 43.5425362445363 27.9185379687948 10.3
      vertex 44.6519686370646 28.3780799123161 10.3
   endloop
endfacet
facet normal -0.608761429008737 0.793353340291223 -0.0
   outer loop
      vertex 44.6519686370646 28.3780799123161 10.3
      vertex 45.6046598305227 29.1091055762664 0.0
      vertex 44.6519686370646 28.3780799123161 0.0
   endloop
endfacet
facet normal -0.608761429008737 0.793353340291223 -0.0
   outer loop
      vertex 45.6046598305227 29.1091055762664 0.0
      vertex 44.6519686370646 28.3780799123161 10.3
      vertex 45.6046598305227 29.1091055762664 10.3
   endloop
endfacet
facet normal -0.793353340291238 0.608761429008717 0.0
   outer loop
      vertex 46.3356854944731 30.0617967697246 10.3
      vertex 45.6046598305227 29.1091055762664 0.0
      vertex 45.6046598305227 29.1091055762664 10.3
   endloop
endfacet
facet normal -0.793353340291238 0.608761429008717 0.0
   outer loop
      vertex 45.6046598305227 29.1091055762664 0.0
      vertex 46.3356854944731 30.0617967697246 10.3
      vertex 46.3356854944731 30.0617967697246 0.0
   endloop
endfacet
facet normal -0.92387953251128 0.382683432365107 0.0
   outer loop
      vertex 46.7952274379944 31.171229162253 10.3
      vertex 46.3356854944731 30.0617967697246 0.0
      vertex 46.3356854944731 30.0617967697246 10.3
   endloop
endfacet
facet normal -0.92387953251128 0.382683432365107 0.0
   outer loop
      vertex 46.3356854944731 30.0617967697246 0.0
      vertex 46.7952274379944 31.171229162253 10.3
      vertex 46.7952274379944 31.171229162253 0.0
   endloop
endfacet
facet normal -0.991444861373817 0.130526192220002 0.0
   outer loop
      vertex 46.9519686370646 32.3617967697246 10.3
      vertex 46.7952274379944 31.171229162253 0.0
      vertex 46.7952274379944 31.171229162253 10.3
   endloop
endfacet
facet normal -0.991444861373817 0.130526192220002 0.0
   outer loop
      vertex 46.7952274379944 31.171229162253 0.0
      vertex 46.9519686370646 32.3617967697246 10.3
      vertex 46.9519686370646 32.3617967697246 0.0
   endloop
endfacet
facet normal 0.0 0.0 -1.0
   outer loop
      vertex 38.3519686370646 39.7600000000001 0.0
      vertex 32.3519686370645 24.9635935394491 0.0
      vertex 32.3519686370645 39.76 0.0
   endloop
endfacet
facet normal 0.0 0.0 -1.0
   outer loop
      vertex 32.3519686370645 24.9635935394491 0.0
      vertex 38.3519686370646 39.7600000000001 0.0
      vertex 37.7519686370646 32.3617967697246 0.0
   endloop
endfacet
facet normal 0.0 0.0 -1.0
   outer loop
      vertex 37.7519686370646 32.3617967697246 0.0
      vertex 38.3519686370646 39.7600000000001 0.0
      vertex 37.9087098361349 33.5523643771962 0.0
   endloop
endfacet
facet normal 0.0 0.0 -1.0
   outer loop
      vertex 37.9087098361349 33.5523643771962 0.0
      vertex 38.3519686370646 39.7600000000001 0.0
      vertex 38.3682517796562 34.6617967697246 0.0
   endloop
endfacet
facet normal 0.0 0.0 -1.0
   outer loop
      vertex 38.3682517796562 34.6617967697246 0.0
      vertex 38.3519686370646 39.7600000000001 0.0
      vertex 39.0992774436065 35.6144879631827 0.0
   endloop
endfacet
facet normal 0.0 0.0 -1.0
   outer loop
      vertex 39.0992774436065 35.6144879631827 0.0
      vertex 38.3519686370646 39.7600000000001 0.0
      vertex 40.0519686370646 36.345513627133 0.0
   endloop
endfacet
facet normal 0.0 0.0 -1.0
   outer loop
      vertex 40.0519686370646 36.345513627133 0.0
      vertex 38.3519686370646 39.7600000000001 0.0
      vertex 46.3519686370646 39.7600000000001 0.0
   endloop
endfacet
facet normal 0.0 0.0 -1.0
   outer loop
      vertex 40.0519686370646 36.345513627133 0.0
      vertex 46.3519686370646 39.7600000000001 0.0
      vertex 41.1614010295931 36.8050555706543 0.0
   endloop
endfacet
facet normal 0.0 0.0 -1.0
   outer loop
      vertex 41.1614010295931 36.8050555706543 0.0
      vertex 46.3519686370646 39.7600000000001 0.0
      vertex 42.3519686370646 36.9617967697245 0.0
   endloop
endfacet
facet normal 0.0 0.0 -1.0
   outer loop
      vertex 42.3519686370646 36.9617967697245 0.0
      vertex 46.3519686370646 39.7600000000001 0.0
      vertex 43.5425362445363 36.8050555706543 0.0
   endloop
endfacet
facet normal 0.0 0.0 -1.0
   outer loop
      vertex 43.5425362445363 36.8050555706543 0.0
      vertex 46.3519686370646 39.7600000000001 0.0
      vertex 44.6519686370646 36.3455136271329 0.0
   endloop
endfacet
facet normal 0.0 0.0 -1.0
   outer loop
      vertex 44.6519686370646 36.3455136271329 0.0
      vertex 46.3519686370646 39.7600000000001 0.0
      vertex 45.6046598305227 35.6144879631826 0.0
   endloop
endfacet
facet normal 0.0 0.0 -1.0
   outer loop
      vertex 45.6046598305227 35.6144879631826 0.0
      vertex 46.3519686370646 39.7600000000001 0.0
      vertex 46.335685494473 34.6617967697246 0.0
   endloop
endfacet
facet normal 0.0 0.0 -1.0
   outer loop
      vertex 46.335685494473 34.6617967697246 0.0
      vertex 46.3519686370646 39.7600000000001 0.0
      vertex 46.7952274379943 33.5523643771962 0.0
   endloop
endfacet
facet normal 0.0 0.0 -1.0
   outer loop
      vertex 46.7952274379943 33.5523643771962 0.0
      vertex 46.3519686370646 39.7600000000001 0.0
      vertex 52.3519686370647 39.76 0.0
   endloop
endfacet
facet normal 0.0 0.0 -1.0
   outer loop
      vertex 46.7952274379943 33.5523643771962 0.0
      vertex 52.3519686370647 39.76 0.0
      vertex 46.9519686370646 32.3617967697246 0.0
   endloop
endfacet
facet normal 0.0 0.0 -1.0
   outer loop
      vertex 37.7519686370646 32.3617967697246 0.0
      vertex 38.3519686370646 24.963593539449 0.0
      vertex 32.3519686370645 24.9635935394491 0.0
   endloop
endfacet
facet normal 0.0 0.0 -1.0
   outer loop
      vertex 38.3519686370646 24.963593539449 0.0
      vertex 37.7519686370646 32.3617967697246 0.0
      vertex 37.9087098361349 31.171229162253 0.0
   endloop
endfacet
facet normal 0.0 0.0 -1.0
   outer loop
      vertex 38.3519686370646 24.963593539449 0.0
      vertex 37.9087098361349 31.171229162253 0.0
      vertex 38.3682517796562 30.0617967697246 0.0
   endloop
endfacet
facet normal 0.0 0.0 -1.0
   outer loop
      vertex 38.3519686370646 24.963593539449 0.0
      vertex 38.3682517796562 30.0617967697246 0.0
      vertex 39.0992774436066 29.1091055762664 0.0
   endloop
endfacet
facet normal 0.0 0.0 -1.0
   outer loop
      vertex 38.3519686370646 24.963593539449 0.0
      vertex 39.0992774436066 29.1091055762664 0.0
      vertex 40.0519686370646 28.3780799123161 0.0
   endloop
endfacet
facet normal 0.0 0.0 -1.0
   outer loop
      vertex 38.3519686370646 24.963593539449 0.0
      vertex 40.0519686370646 28.3780799123161 0.0
      vertex 46.3519686370646 24.963593539449 0.0
   endloop
endfacet
facet normal 0.0 0.0 -1.0
   outer loop
      vertex 46.3519686370646 24.963593539449 0.0
      vertex 40.0519686370646 28.3780799123161 0.0
      vertex 41.161401029593 27.9185379687949 0.0
   endloop
endfacet
facet normal 0.0 0.0 -1.0
   outer loop
      vertex 46.3519686370646 24.963593539449 0.0
      vertex 41.161401029593 27.9185379687949 0.0
      vertex 42.3519686370646 27.7617967697245 0.0
   endloop
endfacet
facet normal 0.0 0.0 -1.0
   outer loop
      vertex 46.3519686370646 24.963593539449 0.0
      vertex 42.3519686370646 27.7617967697245 0.0
      vertex 43.5425362445363 27.9185379687948 0.0
   endloop
endfacet
facet normal 0.0 0.0 -1.0
   outer loop
      vertex 46.3519686370646 24.963593539449 0.0
      vertex 43.5425362445363 27.9185379687948 0.0
      vertex 44.6519686370646 28.3780799123161 0.0
   endloop
endfacet
facet normal 0.0 0.0 -1.0
   outer loop
      vertex 46.3519686370646 24.963593539449 0.0
      vertex 44.6519686370646 28.3780799123161 0.0
      vertex 45.6046598305227 29.1091055762664 0.0
   endloop
endfacet
facet normal 0.0 0.0 -1.0
   outer loop
      vertex 46.3519686370646 24.963593539449 0.0
      vertex 45.6046598305227 29.1091055762664 0.0
      vertex 46.3356854944731 30.0617967697246 0.0
   endloop
endfacet
facet normal 0.0 0.0 -1.0
   outer loop
      vertex 46.3519686370646 24.963593539449 0.0
      vertex 46.3356854944731 30.0617967697246 0.0
      vertex 46.7952274379944 31.171229162253 0.0
   endloop
endfacet
facet normal 0.0 0.0 -1.0
   outer loop
      vertex 46.3519686370646 24.963593539449 0.0
      vertex 46.7952274379944 31.171229162253 0.0
      vertex 52.3519686370647 24.963593539449 0.0
   endloop
endfacet
facet normal 0.0 0.0 -1.0
   outer loop
      vertex 52.3519686370647 24.963593539449 0.0
      vertex 46.7952274379944 31.171229162253 0.0
      vertex 46.9519686370646 32.3617967697246 0.0
   endloop
endfacet
facet normal 0.0 0.0 -1.0
   outer loop
      vertex 52.3519686370647 24.963593539449 0.0
      vertex 46.9519686370646 32.3617967697246 0.0
      vertex 52.3519686370647 39.76 0.0
   endloop
endfacet
facet normal 1.0 -0.0 -0.0
   outer loop
      vertex 38.6019686370647 39.7600000000001 10.3
      vertex 38.6019686370647 38.8569872981079 17.3
      vertex 38.6019686370647 38.8569872981079 10.3
   endloop
endfacet
facet normal 1.0 -0.0 -0.0
   outer loop
      vertex 38.6019686370647 38.8569872981079 17.3
      vertex 38.6019686370647 39.7600000000001 10.3
      vertex 38.6019686370647 39.7600000000001 17.3
   endloop
endfacet
facet normal 0.866025403784439 -0.5 -0.0
   outer loop
      vertex 38.6019686370647 38.8569872981079 10.3
      vertex 34.8519686370647 32.3617967697246 17.3
      vertex 34.8519686370647 32.3617967697246 10.3
   endloop
endfacet
facet normal 0.866025403784439 -0.5 -0.0
   outer loop
      vertex 34.8519686370647 32.3617967697246 17.3
      vertex 38.6019686370647 38.8569872981079 10.3
      vertex 38.6019686370647 38.8569872981079 17.3
   endloop
endfacet
facet normal 0.866025403784441 0.499999999999995 1.38461898074467e-015
   outer loop
      vertex 34.8519686370647 32.3617967697246 10.3
      vertex 38.6019686370647 25.8666062413413 17.3
      vertex 38.6019686370647 25.8666062413413 10.3
   endloop
endfacet
facet normal 0.866025403784441 0.499999999999995 1.38461898074467e-015
   outer loop
      vertex 38.6019686370647 25.8666062413413 17.3
      vertex 34.8519686370647 32.3617967697246 10.3
      vertex 34.8519686370647 32.3617967697246 17.3
   endloop
endfacet
facet normal 1.0 3.14293983810503e-044 3.2228188371976e-015
   outer loop
      vertex 38.6019686370647 25.8666062413413 10.3
      vertex 38.6019686370647 24.963593539449 17.3
      vertex 38.6019686370647 24.963593539449 10.3
   endloop
endfacet
facet normal 1.0 3.14293983810503e-044 3.2228188371976e-015
   outer loop
      vertex 38.6019686370647 24.963593539449 17.3
      vertex 38.6019686370647 25.8666062413413 10.3
      vertex 38.6019686370647 25.8666062413413 17.3
   endloop
endfacet
facet normal -1.61946280506156e-015 9.73678457048247e-031 1.0
   outer loop
      vertex 32.3519686370645 24.9635935394491 17.3
      vertex 34.8519686370647 32.3617967697246 17.3
      vertex 32.3519686370645 39.76 17.3
   endloop
endfacet
facet normal -1.61946280506156e-015 9.73678457048247e-031 1.0
   outer loop
      vertex 34.8519686370647 32.3617967697246 17.3
      vertex 32.3519686370645 24.9635935394491 17.3
      vertex 38.3519686370646 24.963593539449 17.3
   endloop
endfacet
facet normal -1.61946280506156e-015 9.73678457048247e-031 1.0
   outer loop
      vertex 34.8519686370647 32.3617967697246 17.3
      vertex 38.3519686370646 24.963593539449 17.3
      vertex 38.6019686370647 25.8666062413413 17.3
   endloop
endfacet
facet normal -1.61946280506156e-015 9.73678457048247e-031 1.0
   outer loop
      vertex 38.6019686370647 25.8666062413413 17.3
      vertex 38.3519686370646 24.963593539449 17.3
      vertex 38.6019686370647 24.963593539449 17.3
   endloop
endfacet
facet normal -1.61946280506156e-015 9.73678457048247e-031 1.0
   outer loop
      vertex 34.8519686370647 32.3617967697246 17.3
      vertex 38.3519686370646 39.7600000000001 17.3
      vertex 32.3519686370645 39.76 17.3
   endloop
endfacet
facet normal -1.61946280506156e-015 9.73678457048247e-031 1.0
   outer loop
      vertex 38.3519686370646 39.7600000000001 17.3
      vertex 34.8519686370647 32.3617967697246 17.3
      vertex 38.6019686370647 38.8569872981079 17.3
   endloop
endfacet
facet normal -1.61946280506156e-015 9.73678457048247e-031 1.0
   outer loop
      vertex 38.3519686370646 39.7600000000001 17.3
      vertex 38.6019686370647 38.8569872981079 17.3
      vertex 38.6019686370647 39.7600000000001 17.3
   endloop
endfacet
facet normal -0.866025403784436 -0.500000000000005 1.38461898074466e-015
   outer loop
      vertex 46.1019686370647 38.8569872981079 17.3
      vertex 49.8519686370647 32.3617967697246 10.3
      vertex 49.8519686370648 32.3617967697246 17.3
   endloop
endfacet
facet normal -0.866025403784436 -0.500000000000005 1.38461898074466e-015
   outer loop
      vertex 49.8519686370647 32.3617967697246 10.3
      vertex 46.1019686370647 38.8569872981079 17.3
      vertex 46.1019686370647 38.8569872981079 10.3
   endloop
endfacet
facet normal 1.61946280506157e-015 -1.05355827785484e-030 1.0
   outer loop
      vertex 46.3519686370646 24.963593539449 17.3
      vertex 46.1019686370647 25.8666062413413 17.3
      vertex 46.1019686370647 24.963593539449 17.3
   endloop
endfacet
facet normal 1.61946280506157e-015 -1.05355827785484e-030 1.0
   outer loop
      vertex 46.1019686370647 25.8666062413413 17.3
      vertex 46.3519686370646 24.963593539449 17.3
      vertex 49.8519686370648 32.3617967697246 17.3
   endloop
endfacet
facet normal 1.61946280506157e-015 -1.05355827785484e-030 1.0
   outer loop
      vertex 49.8519686370648 32.3617967697246 17.3
      vertex 46.3519686370646 24.963593539449 17.3
      vertex 52.3519686370647 24.963593539449 17.3
   endloop
endfacet
facet normal 1.61946280506157e-015 -1.05355827785484e-030 1.0
   outer loop
      vertex 49.8519686370648 32.3617967697246 17.3
      vertex 46.1019686370647 39.7600000000001 17.3
      vertex 46.1019686370647 38.8569872981079 17.3
   endloop
endfacet
facet normal 1.61946280506157e-015 -1.05355827785484e-030 1.0
   outer loop
      vertex 46.1019686370647 39.7600000000001 17.3
      vertex 49.8519686370648 32.3617967697246 17.3
      vertex 46.3519686370646 39.7600000000001 17.3
   endloop
endfacet
facet normal 1.61946280506157e-015 -1.05355827785484e-030 1.0
   outer loop
      vertex 46.3519686370646 39.7600000000001 17.3
      vertex 49.8519686370648 32.3617967697246 17.3
      vertex 52.3519686370647 39.76 17.3
   endloop
endfacet
facet normal 1.61946280506157e-015 -1.05355827785484e-030 1.0
   outer loop
      vertex 52.3519686370647 39.76 17.3
      vertex 49.8519686370648 32.3617967697246 17.3
      vertex 52.3519686370647 24.963593539449 17.3
   endloop
endfacet
facet normal -0.0 -0.0 1.0
   outer loop
      vertex 46.1019686370647 24.963593539449 10.3
      vertex 38.6019686370647 25.8666062413413 10.3
      vertex 38.6019686370647 24.963593539449 10.3
   endloop
endfacet
facet normal -0.0 -0.0 1.0
   outer loop
      vertex 38.6019686370647 25.8666062413413 10.3
      vertex 46.1019686370647 24.963593539449 10.3
      vertex 40.0519686370646 28.3780799123161 10.3
   endloop
endfacet
facet normal -0.0 -0.0 1.0
   outer loop
      vertex 38.6019686370647 25.8666062413413 10.3
      vertex 40.0519686370646 28.3780799123161 10.3
      vertex 39.0992774436066 29.1091055762664 10.3
   endloop
endfacet
facet normal -0.0 -0.0 1.0
   outer loop
      vertex 40.0519686370646 28.3780799123161 10.3
      vertex 46.1019686370647 24.963593539449 10.3
      vertex 41.161401029593 27.9185379687949 10.3
   endloop
endfacet
facet normal -0.0 -0.0 1.0
   outer loop
      vertex 41.161401029593 27.9185379687949 10.3
      vertex 46.1019686370647 24.963593539449 10.3
      vertex 42.3519686370646 27.7617967697245 10.3
   endloop
endfacet
facet normal -0.0 -0.0 1.0
   outer loop
      vertex 42.3519686370646 27.7617967697245 10.3
      vertex 46.1019686370647 24.963593539449 10.3
      vertex 43.5425362445363 27.9185379687948 10.3
   endloop
endfacet
facet normal -0.0 -0.0 1.0
   outer loop
      vertex 43.5425362445363 27.9185379687948 10.3
      vertex 46.1019686370647 24.963593539449 10.3
      vertex 44.6519686370646 28.3780799123161 10.3
   endloop
endfacet
facet normal -0.0 -0.0 1.0
   outer loop
      vertex 44.6519686370646 28.3780799123161 10.3
      vertex 46.1019686370647 24.963593539449 10.3
      vertex 45.6046598305227 29.1091055762664 10.3
   endloop
endfacet
facet normal -0.0 -0.0 1.0
   outer loop
      vertex 45.6046598305227 29.1091055762664 10.3
      vertex 46.1019686370647 24.963593539449 10.3
      vertex 46.1019686370647 25.8666062413413 10.3
   endloop
endfacet
facet normal -0.0 -0.0 1.0
   outer loop
      vertex 45.6046598305227 29.1091055762664 10.3
      vertex 46.1019686370647 25.8666062413413 10.3
      vertex 46.3356854944731 30.0617967697246 10.3
   endloop
endfacet
facet normal -0.0 -0.0 1.0
   outer loop
      vertex 46.3356854944731 30.0617967697246 10.3
      vertex 46.1019686370647 25.8666062413413 10.3
      vertex 49.8519686370647 32.3617967697246 10.3
   endloop
endfacet
facet normal -0.0 -0.0 1.0
   outer loop
      vertex 46.3356854944731 30.0617967697246 10.3
      vertex 49.8519686370647 32.3617967697246 10.3
      vertex 46.7952274379944 31.171229162253 10.3
   endloop
endfacet
facet normal -0.0 -0.0 1.0
   outer loop
      vertex 46.7952274379944 31.171229162253 10.3
      vertex 49.8519686370647 32.3617967697246 10.3
      vertex 46.9519686370646 32.3617967697246 10.3
   endloop
endfacet
facet normal -0.0 -0.0 1.0
   outer loop
      vertex 46.335685494473 34.6617967697246 10.3
      vertex 46.1019686370647 38.8569872981079 10.3
      vertex 45.6046598305227 35.6144879631826 10.3
   endloop
endfacet
facet normal -0.0 -0.0 1.0
   outer loop
      vertex 46.1019686370647 38.8569872981079 10.3
      vertex 46.335685494473 34.6617967697246 10.3
      vertex 49.8519686370647 32.3617967697246 10.3
   endloop
endfacet
facet normal -0.0 -0.0 1.0
   outer loop
      vertex 49.8519686370647 32.3617967697246 10.3
      vertex 46.335685494473 34.6617967697246 10.3
      vertex 46.7952274379943 33.5523643771962 10.3
   endloop
endfacet
facet normal -0.0 -0.0 1.0
   outer loop
      vertex 49.8519686370647 32.3617967697246 10.3
      vertex 46.7952274379943 33.5523643771962 10.3
      vertex 46.9519686370646 32.3617967697246 10.3
   endloop
endfacet
facet normal -0.0 -0.0 1.0
   outer loop
      vertex 37.7519686370646 32.3617967697246 10.3
      vertex 38.6019686370647 38.8569872981079 10.3
      vertex 34.8519686370647 32.3617967697246 10.3
   endloop
endfacet
facet normal -0.0 -0.0 1.0
   outer loop
      vertex 38.6019686370647 38.8569872981079 10.3
      vertex 37.7519686370646 32.3617967697246 10.3
      vertex 37.9087098361349 33.5523643771962 10.3
   endloop
endfacet
facet normal -0.0 -0.0 1.0
   outer loop
      vertex 38.6019686370647 38.8569872981079 10.3
      vertex 37.9087098361349 33.5523643771962 10.3
      vertex 38.3682517796562 34.6617967697246 10.3
   endloop
endfacet
facet normal -0.0 -0.0 1.0
   outer loop
      vertex 38.6019686370647 38.8569872981079 10.3
      vertex 38.3682517796562 34.6617967697246 10.3
      vertex 39.0992774436065 35.6144879631827 10.3
   endloop
endfacet
facet normal -0.0 -0.0 1.0
   outer loop
      vertex 38.6019686370647 38.8569872981079 10.3
      vertex 39.0992774436065 35.6144879631827 10.3
      vertex 38.6019686370647 39.7600000000001 10.3
   endloop
endfacet
facet normal -0.0 -0.0 1.0
   outer loop
      vertex 38.6019686370647 39.7600000000001 10.3
      vertex 39.0992774436065 35.6144879631827 10.3
      vertex 40.0519686370646 36.345513627133 10.3
   endloop
endfacet
facet normal -0.0 -0.0 1.0
   outer loop
      vertex 38.6019686370647 39.7600000000001 10.3
      vertex 40.0519686370646 36.345513627133 10.3
      vertex 46.1019686370647 39.7600000000001 10.3
   endloop
endfacet
facet normal -0.0 -0.0 1.0
   outer loop
      vertex 46.1019686370647 39.7600000000001 10.3
      vertex 40.0519686370646 36.345513627133 10.3
      vertex 41.1614010295931 36.8050555706543 10.3
   endloop
endfacet
facet normal -0.0 -0.0 1.0
   outer loop
      vertex 46.1019686370647 39.7600000000001 10.3
      vertex 41.1614010295931 36.8050555706543 10.3
      vertex 42.3519686370646 36.9617967697245 10.3
   endloop
endfacet
facet normal -0.0 -0.0 1.0
   outer loop
      vertex 46.1019686370647 39.7600000000001 10.3
      vertex 42.3519686370646 36.9617967697245 10.3
      vertex 43.5425362445363 36.8050555706543 10.3
   endloop
endfacet
facet normal -0.0 -0.0 1.0
   outer loop
      vertex 46.1019686370647 39.7600000000001 10.3
      vertex 43.5425362445363 36.8050555706543 10.3
      vertex 44.6519686370646 36.3455136271329 10.3
   endloop
endfacet
facet normal -0.0 -0.0 1.0
   outer loop
      vertex 46.1019686370647 39.7600000000001 10.3
      vertex 44.6519686370646 36.3455136271329 10.3
      vertex 45.6046598305227 35.6144879631826 10.3
   endloop
endfacet
facet normal -0.0 -0.0 1.0
   outer loop
      vertex 46.1019686370647 39.7600000000001 10.3
      vertex 45.6046598305227 35.6144879631826 10.3
      vertex 46.1019686370647 38.8569872981079 10.3
   endloop
endfacet
facet normal -0.0 -0.0 1.0
   outer loop
      vertex 38.6019686370647 25.8666062413413 10.3
      vertex 37.7519686370646 32.3617967697246 10.3
      vertex 34.8519686370647 32.3617967697246 10.3
   endloop
endfacet
facet normal -0.0 -0.0 1.0
   outer loop
      vertex 37.7519686370646 32.3617967697246 10.3
      vertex 38.6019686370647 25.8666062413413 10.3
      vertex 37.9087098361349 31.171229162253 10.3
   endloop
endfacet
facet normal -0.0 -0.0 1.0
   outer loop
      vertex 37.9087098361349 31.171229162253 10.3
      vertex 38.6019686370647 25.8666062413413 10.3
      vertex 38.3682517796562 30.0617967697246 10.3
   endloop
endfacet
facet normal -0.0 -0.0 1.0
   outer loop
      vertex 38.3682517796562 30.0617967697246 10.3
      vertex 38.6019686370647 25.8666062413413 10.3
      vertex 39.0992774436066 29.1091055762664 10.3
   endloop
endfacet
facet normal -1.73453008056765e-015 -1.0 2.13883528530433e-030
   outer loop
      vertex 52.3519686370647 24.963593539449 17.3
      vertex 46.3519686370646 24.963593539449 0.0
      vertex 52.3519686370647 24.963593539449 0.0
   endloop
endfacet
facet normal -1.73453008056765e-015 -1.0 2.13883528530433e-030
   outer loop
      vertex 46.3519686370646 24.963593539449 0.0
      vertex 52.3519686370647 24.963593539449 17.3
      vertex 38.3519686370646 24.963593539449 0.0
   endloop
endfacet
facet normal -1.73453008056765e-015 -1.0 2.13883528530433e-030
   outer loop
      vertex 38.3519686370646 24.963593539449 0.0
      vertex 52.3519686370647 24.963593539449 17.3
      vertex 46.1019686370647 24.963593539449 10.3
   endloop
endfacet
facet normal -1.73453008056765e-015 -1.0 2.13883528530433e-030
   outer loop
      vertex 38.3519686370646 24.963593539449 0.0
      vertex 46.1019686370647 24.963593539449 10.3
      vertex 32.3519686370645 24.9635935394491 0.0
   endloop
endfacet
facet normal -1.73453008056765e-015 -1.0 2.13883528530433e-030
   outer loop
      vertex 46.1019686370647 24.963593539449 10.3
      vertex 52.3519686370647 24.963593539449 17.3
      vertex 46.1019686370647 24.963593539449 17.3
   endloop
endfacet
facet normal -1.73453008056765e-015 -1.0 2.13883528530433e-030
   outer loop
      vertex 46.1019686370647 24.963593539449 17.3
      vertex 52.3519686370647 24.963593539449 17.3
      vertex 46.3519686370646 24.963593539449 17.3
   endloop
endfacet
facet normal -1.73453008056765e-015 -1.0 2.13883528530433e-030
   outer loop
      vertex 32.3519686370645 24.9635935394491 0.0
      vertex 38.6019686370647 24.963593539449 10.3
      vertex 32.3519686370645 24.9635935394491 17.3
   endloop
endfacet
facet normal -1.73453008056765e-015 -1.0 2.13883528530433e-030
   outer loop
      vertex 38.6019686370647 24.963593539449 10.3
      vertex 32.3519686370645 24.9635935394491 0.0
      vertex 46.1019686370647 24.963593539449 10.3
   endloop
endfacet
facet normal -1.73453008056765e-015 -1.0 2.13883528530433e-030
   outer loop
      vertex 32.3519686370645 24.9635935394491 17.3
      vertex 38.6019686370647 24.963593539449 10.3
      vertex 38.6019686370647 24.963593539449 17.3
   endloop
endfacet
facet normal -1.73453008056765e-015 -1.0 2.13883528530433e-030
   outer loop
      vertex 32.3519686370645 24.9635935394491 17.3
      vertex 38.6019686370647 24.963593539449 17.3
      vertex 38.3519686370646 24.963593539449 17.3
   endloop
endfacet
facet normal -1.34426081243993e-015 1.0 -6.46980597410429e-016
   outer loop
      vertex 52.3519686370647 39.76 0.0
      vertex 46.1019686370647 39.7600000000001 10.3
      vertex 52.3519686370647 39.76 17.3
   endloop
endfacet
facet normal -1.34426081243993e-015 1.0 -6.46980597410429e-016
   outer loop
      vertex 46.1019686370647 39.7600000000001 10.3
      vertex 52.3519686370647 39.76 0.0
      vertex 38.6019686370647 39.7600000000001 10.3
   endloop
endfacet
facet normal -1.34426081243993e-015 1.0 -6.46980597410429e-016
   outer loop
      vertex 52.3519686370647 39.76 17.3
      vertex 46.1019686370647 39.7600000000001 10.3
      vertex 46.1019686370647 39.7600000000001 17.3
   endloop
endfacet
facet normal -1.34426081243993e-015 1.0 -6.46980597410429e-016
   outer loop
      vertex 52.3519686370647 39.76 17.3
      vertex 46.1019686370647 39.7600000000001 17.3
      vertex 46.3519686370646 39.7600000000001 17.3
   endloop
endfacet
facet normal -1.34426081243993e-015 1.0 -6.46980597410429e-016
   outer loop
      vertex 32.3519686370645 39.76 17.3
      vertex 38.3519686370646 39.7600000000001 0.0
      vertex 32.3519686370645 39.76 0.0
   endloop
endfacet
facet normal -1.34426081243993e-015 1.0 -6.46980597410429e-016
   outer loop
      vertex 38.3519686370646 39.7600000000001 0.0
      vertex 32.3519686370645 39.76 17.3
      vertex 46.3519686370646 39.7600000000001 0.0
   endloop
endfacet
facet normal -1.34426081243993e-015 1.0 -6.46980597410429e-016
   outer loop
      vertex 46.3519686370646 39.7600000000001 0.0
      vertex 32.3519686370645 39.76 17.3
      vertex 38.6019686370647 39.7600000000001 10.3
   endloop
endfacet
facet normal -1.34426081243993e-015 1.0 -6.46980597410429e-016
   outer loop
      vertex 46.3519686370646 39.7600000000001 0.0
      vertex 38.6019686370647 39.7600000000001 10.3
      vertex 52.3519686370647 39.76 0.0
   endloop
endfacet
facet normal -1.34426081243993e-015 1.0 -6.46980597410429e-016
   outer loop
      vertex 38.6019686370647 39.7600000000001 10.3
      vertex 32.3519686370645 39.76 17.3
      vertex 38.6019686370647 39.7600000000001 17.3
   endloop
endfacet
facet normal -1.34426081243993e-015 1.0 -6.46980597410429e-016
   outer loop
      vertex 38.6019686370647 39.7600000000001 17.3
      vertex 32.3519686370645 39.76 17.3
      vertex 38.3519686370646 39.7600000000001 17.3
   endloop
endfacet
endsolid z-captive-nut-cradle-plus-pocket2
