solid z-captive-nut-cradle-plus-pocket2
facet normal -0.382683432365079 0.923879532511291 -0.0
   outer loop
      vertex 35.2321196174461 66.3510442659664 1.8
      vertex 35.6421272407718 66.5208749842243 0.0
      vertex 35.2321196174461 66.3510442659664 0.0
   endloop
endfacet
facet normal -0.382683432365079 0.923879532511291 -0.0
   outer loop
      vertex 35.6421272407718 66.5208749842243 0.0
      vertex 35.2321196174461 66.3510442659664 1.8
      vertex 35.6421272407718 66.5208749842243 1.8
   endloop
endfacet
facet normal -0.991444861373807 -0.130526192220078 0.0
   outer loop
      vertex 36.4342011454632 68.4331105473321 1.8
      vertex 36.4921272407718 67.9931181706578 0.0
      vertex 36.4921272407718 67.9931181706578 1.8
   endloop
endfacet
facet normal -0.991444861373807 -0.130526192220078 0.0
   outer loop
      vertex 36.4921272407718 67.9931181706578 0.0
      vertex 36.4342011454632 68.4331105473321 1.8
      vertex 36.4342011454632 68.4331105473321 0.0
   endloop
endfacet
facet normal -0.608761429008731 -0.793353340291227 0.0
   outer loop
      vertex 35.994208768789 69.1951996986749 1.8
      vertex 35.6421272407718 69.4653613570913 0.0
      vertex 35.994208768789 69.1951996986749 0.0
   endloop
endfacet
facet normal -0.608761429008731 -0.793353340291227 0.0
   outer loop
      vertex 35.6421272407718 69.4653613570913 0.0
      vertex 35.994208768789 69.1951996986749 1.8
      vertex 35.6421272407718 69.4653613570913 1.8
   endloop
endfacet
facet normal -0.793353340291203 0.608761429008763 0.0
   outer loop
      vertex 36.2643704272054 67.1431181706578 1.8
      vertex 35.994208768789 66.7910366426407 0.0
      vertex 35.994208768789 66.7910366426407 1.8
   endloop
endfacet
facet normal -0.793353340291203 0.608761429008763 0.0
   outer loop
      vertex 35.994208768789 66.7910366426407 0.0
      vertex 36.2643704272054 67.1431181706578 1.8
      vertex 36.2643704272054 67.1431181706578 0.0
   endloop
endfacet
facet normal -0.608761429008763 0.793353340291203 -0.0
   outer loop
      vertex 35.6421272407718 66.5208749842243 1.8
      vertex 35.994208768789 66.7910366426407 0.0
      vertex 35.6421272407718 66.5208749842243 0.0
   endloop
endfacet
facet normal -0.608761429008763 0.793353340291203 -0.0
   outer loop
      vertex 35.994208768789 66.7910366426407 0.0
      vertex 35.6421272407718 66.5208749842243 1.8
      vertex 35.994208768789 66.7910366426407 1.8
   endloop
endfacet
facet normal 0.970113220489772 0.242652713627859 -0.0
   outer loop
      vertex 58.192127240772 73.691067363089 2.8199664825479e-015
      vertex 59.1921272407719 69.6931181706578 1.8
      vertex 59.1921272407719 69.6931181706578 2.8199664825479e-015
   endloop
endfacet
facet normal 0.970113220489772 0.242652713627859 -0.0
   outer loop
      vertex 59.1921272407719 69.6931181706578 1.8
      vertex 58.192127240772 73.691067363089 2.8199664825479e-015
      vertex 58.192127240772 73.691067363089 1.8
   endloop
endfacet
facet normal -1.0 -1.29485642837797e-015 -5.11359471135763e-016
   outer loop
      vertex 31.7921272407718 88.4931181706577 5.0
      vertex 31.7921272407719 69.7610673630889 1.8
      vertex 31.7921272407719 69.7610673630889 5.0
   endloop
endfacet
facet normal -1.0 -1.29485642837797e-015 -5.11359471135763e-016
   outer loop
      vertex 31.7921272407719 69.7610673630889 1.8
      vertex 31.7921272407718 88.4931181706577 5.0
      vertex 31.7921272407719 73.6910673630889 1.8
   endloop
endfacet
facet normal -1.0 -1.29485642837797e-015 -5.11359471135763e-016
   outer loop
      vertex 31.7921272407719 73.6910673630889 1.8
      vertex 31.7921272407718 88.4931181706577 5.0
      vertex 31.7921272407719 73.6910673630889 0.0
   endloop
endfacet
facet normal -1.0 -1.29485642837797e-015 -5.11359471135763e-016
   outer loop
      vertex 31.7921272407719 73.6910673630889 0.0
      vertex 31.7921272407718 88.4931181706577 5.0
      vertex 31.7921272407718 88.4931181706577 2.50463337407671e-030
   endloop
endfacet
facet normal -1.0 0.0 0.0
   outer loop
      vertex 30.7921272407718 69.6931181706578 1.8
      vertex 30.7921272407718 66.2931181706578 0.0
      vertex 30.7921272407718 66.2931181706578 1.8
   endloop
endfacet
facet normal -1.0 0.0 0.0
   outer loop
      vertex 30.7921272407718 66.2931181706578 0.0
      vertex 30.7921272407718 69.6931181706578 1.8
      vertex 30.7921272407718 69.6931181706578 0.0
   endloop
endfacet
facet normal -0.97011322048977 -0.242652713627864 0.0
   outer loop
      vertex 30.7921272407718 66.2931181706578 1.8
      vertex 31.7921272407718 62.2951689782266 0.0
      vertex 31.7921272407718 62.2951689782266 1.8
   endloop
endfacet
facet normal -0.97011322048977 -0.242652713627864 0.0
   outer loop
      vertex 31.7921272407718 62.2951689782266 0.0
      vertex 30.7921272407718 66.2931181706578 1.8
      vertex 30.7921272407718 66.2931181706578 0.0
   endloop
endfacet
facet normal -0.970113220489768 0.242652713627875 0.0
   outer loop
      vertex 31.7921272407719 73.6910673630889 1.8
      vertex 30.7921272407718 69.6931181706578 0.0
      vertex 30.7921272407718 69.6931181706578 1.8
   endloop
endfacet
facet normal -0.970113220489768 0.242652713627875 0.0
   outer loop
      vertex 30.7921272407718 69.6931181706578 0.0
      vertex 31.7921272407719 73.6910673630889 1.8
      vertex 31.7921272407719 73.6910673630889 0.0
   endloop
endfacet
facet normal 1.0 -0.0 -0.0
   outer loop
      vertex 58.1921272407719 62.2951689782267 2.8199664825479e-015
      vertex 58.1921272407719 47.4931181706577 5.0
      vertex 58.1921272407719 47.4931181706577 -8.01482679704548e-029
   endloop
endfacet
facet normal 1.0 -0.0 -0.0
   outer loop
      vertex 58.1921272407719 47.4931181706577 5.0
      vertex 58.1921272407719 62.2951689782267 2.8199664825479e-015
      vertex 58.1921272407719 62.2951689782267 1.8
   endloop
endfacet
facet normal 1.0 -0.0 -0.0
   outer loop
      vertex 58.1921272407719 47.4931181706577 5.0
      vertex 58.1921272407719 62.2951689782267 1.8
      vertex 58.1921272407719 66.2251689782266 5.0
   endloop
endfacet
facet normal 1.0 -0.0 -0.0
   outer loop
      vertex 58.1921272407719 66.2251689782266 5.0
      vertex 58.1921272407719 62.2951689782267 1.8
      vertex 58.1921272407719 66.2251689782266 1.8
   endloop
endfacet
facet normal 1.0 -0.0 -0.0
   outer loop
      vertex 58.192127240772 88.4931181706578 -8.01482679704548e-029
      vertex 58.192127240772 73.691067363089 1.8
      vertex 58.192127240772 73.691067363089 2.8199664825479e-015
   endloop
endfacet
facet normal 1.0 -0.0 -0.0
   outer loop
      vertex 58.192127240772 73.691067363089 1.8
      vertex 58.192127240772 69.761067363089 5.0
      vertex 58.192127240772 69.761067363089 1.8
   endloop
endfacet
facet normal 1.0 -0.0 -0.0
   outer loop
      vertex 58.192127240772 69.761067363089 5.0
      vertex 58.192127240772 73.691067363089 1.8
      vertex 58.192127240772 88.4931181706578 5.0
   endloop
endfacet
facet normal 1.0 -0.0 -0.0
   outer loop
      vertex 58.192127240772 88.4931181706578 5.0
      vertex 58.192127240772 73.691067363089 1.8
      vertex 58.192127240772 88.4931181706578 -8.01482679704548e-029
   endloop
endfacet
facet normal -1.0 1.29485642837796e-015 -5.11359471135763e-016
   outer loop
      vertex 31.7921272407718 66.2251689782266 5.0
      vertex 31.7921272407718 47.4931181706578 2.50463337407671e-030
      vertex 31.7921272407718 47.4931181706578 5.0
   endloop
endfacet
facet normal -1.0 1.29485642837796e-015 -5.11359471135763e-016
   outer loop
      vertex 31.7921272407718 47.4931181706578 2.50463337407671e-030
      vertex 31.7921272407718 66.2251689782266 5.0
      vertex 31.7921272407718 62.2951689782266 1.8
   endloop
endfacet
facet normal -1.0 1.29485642837796e-015 -5.11359471135763e-016
   outer loop
      vertex 31.7921272407718 62.2951689782266 1.8
      vertex 31.7921272407718 66.2251689782266 5.0
      vertex 31.7921272407718 66.2251689782266 1.8
   endloop
endfacet
facet normal -1.0 1.29485642837796e-015 -5.11359471135763e-016
   outer loop
      vertex 31.7921272407718 62.2951689782266 0.0
      vertex 31.7921272407718 47.4931181706578 2.50463337407671e-030
      vertex 31.7921272407718 62.2951689782266 1.8
   endloop
endfacet
facet normal 0.970113220489767 -0.242652713627879 -0.0
   outer loop
      vertex 59.1921272407719 66.2931181706578 2.8199664825479e-015
      vertex 58.1921272407719 62.2951689782267 1.8
      vertex 58.1921272407719 62.2951689782267 2.8199664825479e-015
   endloop
endfacet
facet normal 0.970113220489767 -0.242652713627879 -0.0
   outer loop
      vertex 58.1921272407719 62.2951689782267 1.8
      vertex 59.1921272407719 66.2931181706578 2.8199664825479e-015
      vertex 59.1921272407719 66.2931181706578 1.8
   endloop
endfacet
facet normal 1.0 -0.0 -0.0
   outer loop
      vertex 59.1921272407719 69.6931181706578 2.8199664825479e-015
      vertex 59.1921272407719 66.2931181706578 1.8
      vertex 59.1921272407719 66.2931181706578 2.8199664825479e-015
   endloop
endfacet
facet normal 1.0 -0.0 -0.0
   outer loop
      vertex 59.1921272407719 66.2931181706578 1.8
      vertex 59.1921272407719 69.6931181706578 2.8199664825479e-015
      vertex 59.1921272407719 69.6931181706578 1.8
   endloop
endfacet
facet normal 0.923879532511299 0.382683432365061 -0.0
   outer loop
      vertex 53.5500533360805 67.5531257939835 0.0
      vertex 53.7198840543383 67.1431181706578 1.80000000000001
      vertex 53.7198840543383 67.1431181706578 0.0
   endloop
endfacet
facet normal 0.923879532511299 0.382683432365061 -0.0
   outer loop
      vertex 53.7198840543383 67.1431181706578 1.80000000000001
      vertex 53.5500533360805 67.5531257939835 0.0
      vertex 53.5500533360805 67.5531257939835 1.80000000000001
   endloop
endfacet
facet normal 0.923879532511291 -0.382683432365079 -0.0
   outer loop
      vertex 53.7198840543383 68.8431181706578 0.0
      vertex 53.5500533360805 68.4331105473321 1.80000000000001
      vertex 53.5500533360805 68.4331105473321 0.0
   endloop
endfacet
facet normal 0.923879532511291 -0.382683432365079 -0.0
   outer loop
      vertex 53.5500533360805 68.4331105473321 1.80000000000001
      vertex 53.7198840543383 68.8431181706578 0.0
      vertex 53.7198840543383 68.8431181706578 1.80000000000001
   endloop
endfacet
facet normal -0.923879532511299 0.382683432365061 0.0
   outer loop
      vertex 36.4342011454632 67.5531257939835 1.8
      vertex 36.2643704272054 67.1431181706578 0.0
      vertex 36.2643704272054 67.1431181706578 1.8
   endloop
endfacet
facet normal -0.923879532511299 0.382683432365061 0.0
   outer loop
      vertex 36.2643704272054 67.1431181706578 0.0
      vertex 36.4342011454632 67.5531257939835 1.8
      vertex 36.4342011454632 67.5531257939835 0.0
   endloop
endfacet
facet normal -0.793353340291223 0.608761429008737 0.0
   outer loop
      vertex 49.0624466385587 58.8931181706578 5.0
      vertex 48.3155291123486 57.919716299081 5.07593966858622e-014
      vertex 48.3155291123486 57.919716299081 5.0
   endloop
endfacet
facet normal -0.793353340291223 0.608761429008737 0.0
   outer loop
      vertex 48.3155291123486 57.919716299081 5.07593966858622e-014
      vertex 49.0624466385587 58.8931181706578 5.0
      vertex 49.0624466385587 58.8931181706578 5.07593966858622e-014
   endloop
endfacet
facet normal 0.382683432365061 -0.923879532511299 0.0
   outer loop
      vertex 54.7521348640976 69.6351920753492 1.80000000000001
      vertex 54.3421272407719 69.4653613570913 0.0
      vertex 54.7521348640976 69.6351920753492 0.0
   endloop
endfacet
facet normal 0.382683432365061 -0.923879532511299 0.0
   outer loop
      vertex 54.3421272407719 69.4653613570913 0.0
      vertex 54.7521348640976 69.6351920753492 1.80000000000001
      vertex 54.3421272407719 69.4653613570913 1.80000000000001
   endloop
endfacet
facet normal -0.991444861373807 0.130526192220078 0.0
   outer loop
      vertex 36.4921272407718 67.9931181706578 1.8
      vertex 36.4342011454632 67.5531257939835 0.0
      vertex 36.4342011454632 67.5531257939835 1.8
   endloop
endfacet
facet normal -0.991444861373807 0.130526192220078 0.0
   outer loop
      vertex 36.4342011454632 67.5531257939835 0.0
      vertex 36.4921272407718 67.9931181706578 1.8
      vertex 36.4921272407718 67.9931181706578 0.0
   endloop
endfacet
facet normal -0.130526192220071 -0.991444861373808 0.0
   outer loop
      vertex 55.6321196174462 69.6351920753492 1.80000000000001
      vertex 55.1921272407719 69.6931181706578 0.0
      vertex 55.6321196174462 69.6351920753492 0.0
   endloop
endfacet
facet normal -0.130526192220071 -0.991444861373808 0.0
   outer loop
      vertex 55.1921272407719 69.6931181706578 0.0
      vertex 55.6321196174462 69.6351920753492 1.80000000000001
      vertex 55.1921272407719 69.6931181706578 1.80000000000001
   endloop
endfacet
facet normal -0.923879532511291 -0.382683432365079 0.0
   outer loop
      vertex 36.2643704272054 68.8431181706578 1.8
      vertex 36.4342011454632 68.4331105473321 0.0
      vertex 36.4342011454632 68.4331105473321 1.8
   endloop
endfacet
facet normal -0.923879532511291 -0.382683432365079 0.0
   outer loop
      vertex 36.4342011454632 68.4331105473321 0.0
      vertex 36.2643704272054 68.8431181706578 1.8
      vertex 36.2643704272054 68.8431181706578 0.0
   endloop
endfacet
facet normal -0.79335334029124 -0.608761429008714 0.0
   outer loop
      vertex 35.994208768789 69.1951996986749 1.8
      vertex 36.2643704272054 68.8431181706578 0.0
      vertex 36.2643704272054 68.8431181706578 1.8
   endloop
endfacet
facet normal -0.79335334029124 -0.608761429008714 0.0
   outer loop
      vertex 36.2643704272054 68.8431181706578 0.0
      vertex 35.994208768789 69.1951996986749 1.8
      vertex 35.994208768789 69.1951996986749 0.0
   endloop
endfacet
facet normal 0.793353340291178 0.608761429008795 -0.0
   outer loop
      vertex 53.7198840543383 67.1431181706578 0.0
      vertex 53.9900457127548 66.7910366426407 1.80000000000001
      vertex 53.9900457127548 66.7910366426407 0.0
   endloop
endfacet
facet normal 0.793353340291178 0.608761429008795 -0.0
   outer loop
      vertex 53.9900457127548 66.7910366426407 1.80000000000001
      vertex 53.7198840543383 67.1431181706578 0.0
      vertex 53.7198840543383 67.1431181706578 1.80000000000001
   endloop
endfacet
facet normal -0.382683432365079 -0.923879532511291 0.0
   outer loop
      vertex 35.6421272407718 69.4653613570913 1.8
      vertex 35.2321196174461 69.6351920753492 0.0
      vertex 35.6421272407718 69.4653613570913 0.0
   endloop
endfacet
facet normal -0.382683432365079 -0.923879532511291 0.0
   outer loop
      vertex 35.2321196174461 69.6351920753492 0.0
      vertex 35.6421272407718 69.4653613570913 1.8
      vertex 35.2321196174461 69.6351920753492 1.8
   endloop
endfacet
facet normal -0.130526192220071 0.991444861373808 -0.0
   outer loop
      vertex 55.1921272407719 66.2931181706578 1.80000000000001
      vertex 55.6321196174462 66.3510442659664 0.0
      vertex 55.1921272407719 66.2931181706578 0.0
   endloop
endfacet
facet normal -0.130526192220071 0.991444861373808 -0.0
   outer loop
      vertex 55.6321196174462 66.3510442659664 0.0
      vertex 55.1921272407719 66.2931181706578 1.80000000000001
      vertex 55.6321196174462 66.3510442659664 1.80000000000001
   endloop
endfacet
facet normal -0.130526192220071 -0.991444861373808 0.0
   outer loop
      vertex 35.2321196174461 69.6351920753492 1.8
      vertex 34.7921272407718 69.6931181706578 0.0
      vertex 35.2321196174461 69.6351920753492 0.0
   endloop
endfacet
facet normal -0.130526192220071 -0.991444861373808 0.0
   outer loop
      vertex 34.7921272407718 69.6931181706578 0.0
      vertex 35.2321196174461 69.6351920753492 1.8
      vertex 34.7921272407718 69.6931181706578 1.8
   endloop
endfacet
facet normal 0.130526192220071 -0.991444861373808 0.0
   outer loop
      vertex 34.7921272407718 69.6931181706578 1.8
      vertex 34.3521348640975 69.6351920753492 0.0
      vertex 34.7921272407718 69.6931181706578 0.0
   endloop
endfacet
facet normal 0.130526192220071 -0.991444861373808 0.0
   outer loop
      vertex 34.3521348640975 69.6351920753492 0.0
      vertex 34.7921272407718 69.6931181706578 1.8
      vertex 34.3521348640975 69.6351920753492 1.8
   endloop
endfacet
facet normal 0.991444861373814 0.130526192220028 -0.0
   outer loop
      vertex 33.0921272407718 67.9931181706578 0.0
      vertex 33.1500533360804 67.5531257939835 1.8
      vertex 33.1500533360804 67.5531257939835 0.0
   endloop
endfacet
facet normal 0.991444861373814 0.130526192220028 -0.0
   outer loop
      vertex 33.1500533360804 67.5531257939835 1.8
      vertex 33.0921272407718 67.9931181706578 0.0
      vertex 33.0921272407718 67.9931181706578 1.8
   endloop
endfacet
facet normal 0.991444861373814 -0.130526192220028 -0.0
   outer loop
      vertex 33.1500533360804 68.4331105473321 0.0
      vertex 33.0921272407718 67.9931181706578 1.8
      vertex 33.0921272407718 67.9931181706578 0.0
   endloop
endfacet
facet normal 0.991444861373814 -0.130526192220028 -0.0
   outer loop
      vertex 33.0921272407718 67.9931181706578 1.8
      vertex 33.1500533360804 68.4331105473321 0.0
      vertex 33.1500533360804 68.4331105473321 1.8
   endloop
endfacet
facet normal 0.382683432365061 -0.923879532511299 0.0
   outer loop
      vertex 34.3521348640975 69.6351920753492 1.8
      vertex 33.9421272407718 69.4653613570913 0.0
      vertex 34.3521348640975 69.6351920753492 0.0
   endloop
endfacet
facet normal 0.382683432365061 -0.923879532511299 0.0
   outer loop
      vertex 33.9421272407718 69.4653613570913 0.0
      vertex 34.3521348640975 69.6351920753492 1.8
      vertex 33.9421272407718 69.4653613570913 1.8
   endloop
endfacet
facet normal -0.923879532511263 0.382683432365148 0.0
   outer loop
      vertex 56.8342011454633 67.5531257939835 1.80000000000001
      vertex 56.6643704272054 67.1431181706578 0.0
      vertex 56.6643704272054 67.1431181706578 1.80000000000001
   endloop
endfacet
facet normal -0.923879532511263 0.382683432365148 0.0
   outer loop
      vertex 56.6643704272054 67.1431181706578 0.0
      vertex 56.8342011454633 67.5531257939835 1.80000000000001
      vertex 56.8342011454633 67.5531257939835 0.0
   endloop
endfacet
facet normal 0.608761429008731 -0.793353340291227 0.0
   outer loop
      vertex 33.9421272407718 69.4653613570913 1.8
      vertex 33.5900457127547 69.1951996986749 0.0
      vertex 33.9421272407718 69.4653613570913 0.0
   endloop
endfacet
facet normal 0.608761429008731 -0.793353340291227 0.0
   outer loop
      vertex 33.5900457127547 69.1951996986749 0.0
      vertex 33.9421272407718 69.4653613570913 1.8
      vertex 33.5900457127547 69.1951996986749 1.8
   endloop
endfacet
facet normal 0.923879532511273 -0.382683432365123 -0.0
   outer loop
      vertex 33.3198840543383 68.8431181706578 0.0
      vertex 33.1500533360804 68.4331105473321 1.8
      vertex 33.1500533360804 68.4331105473321 0.0
   endloop
endfacet
facet normal 0.923879532511273 -0.382683432365123 -0.0
   outer loop
      vertex 33.1500533360804 68.4331105473321 1.8
      vertex 33.3198840543383 68.8431181706578 0.0
      vertex 33.3198840543383 68.8431181706578 1.8
   endloop
endfacet
facet normal -0.991444861373814 0.130526192220028 0.0
   outer loop
      vertex 56.8921272407719 67.9931181706578 1.80000000000001
      vertex 56.8342011454633 67.5531257939835 0.0
      vertex 56.8342011454633 67.5531257939835 1.80000000000001
   endloop
endfacet
facet normal -0.991444861373814 0.130526192220028 0.0
   outer loop
      vertex 56.8342011454633 67.5531257939835 0.0
      vertex 56.8921272407719 67.9931181706578 1.80000000000001
      vertex 56.8921272407719 67.9931181706578 0.0
   endloop
endfacet
facet normal -0.608761429008679 -0.793353340291267 0.0
   outer loop
      vertex 48.3155291123486 78.0665200422345 5.0
      vertex 47.3421272407718 78.8134375684445 5.07593966858622e-014
      vertex 48.3155291123486 78.0665200422345 5.07593966858622e-014
   endloop
endfacet
facet normal -0.608761429008679 -0.793353340291267 0.0
   outer loop
      vertex 47.3421272407718 78.8134375684445 5.07593966858622e-014
      vertex 48.3155291123486 78.0665200422345 5.0
      vertex 47.3421272407718 78.8134375684445 5.0
   endloop
endfacet
facet normal 1.0 -1.28912753487901e-014 -0.0
   outer loop
      vertex 52.1610383275263 69.7431181706578 1.8
      vertex 52.1610383275263 66.2431181706578 5.0
      vertex 52.1610383275263 66.2431181706578 1.8
   endloop
endfacet
facet normal 1.0 -1.28912753487901e-014 -0.0
   outer loop
      vertex 52.1610383275263 66.2431181706578 5.0
      vertex 52.1610383275263 69.7431181706578 1.8
      vertex 52.1610383275263 69.7431181706578 5.0
   endloop
endfacet
facet normal -1.0 1.28912753487902e-014 0.0
   outer loop
      vertex 37.8232161540174 69.7431181706578 5.0
      vertex 37.8232161540174 66.2431181706578 1.8
      vertex 37.8232161540174 66.2431181706578 5.0
   endloop
endfacet
facet normal -1.0 1.28912753487902e-014 0.0
   outer loop
      vertex 37.8232161540174 66.2431181706578 1.8
      vertex 37.8232161540174 69.7431181706578 5.0
      vertex 37.8232161540174 69.7431181706578 1.8
   endloop
endfacet
facet normal 0.499999999999999 -0.866025403784439 6.72540694330638e-031
   outer loop
      vertex 34.7921272407718 71.4931181706578 5.0
      vertex 31.7921272407719 69.7610673630889 1.8
      vertex 34.7921272407718 71.4931181706578 1.8
   endloop
endfacet
facet normal 0.499999999999999 -0.866025403784439 6.72540694330638e-031
   outer loop
      vertex 31.7921272407719 69.7610673630889 1.8
      vertex 34.7921272407718 71.4931181706578 5.0
      vertex 31.7921272407719 69.7610673630889 5.0
   endloop
endfacet
facet normal -0.499999999999986 -0.866025403784447 0.0
   outer loop
      vertex 37.8232161540174 69.7431181706578 5.0
      vertex 34.7921272407718 71.4931181706578 1.8
      vertex 37.8232161540174 69.7431181706578 1.8
   endloop
endfacet
facet normal -0.499999999999986 -0.866025403784447 0.0
   outer loop
      vertex 34.7921272407718 71.4931181706578 1.8
      vertex 37.8232161540174 69.7431181706578 5.0
      vertex 34.7921272407718 71.4931181706578 5.0
   endloop
endfacet
facet normal 0.793353340291212 -0.608761429008751 -0.0
   outer loop
      vertex 41.6687253691951 78.0665200422344 5.07593966858622e-014
      vertex 40.9218078429849 77.0931181706576 5.0
      vertex 40.9218078429849 77.0931181706576 5.07593966858622e-014
   endloop
endfacet
facet normal 0.793353340291212 -0.608761429008751 -0.0
   outer loop
      vertex 40.9218078429849 77.0931181706576 5.0
      vertex 41.6687253691951 78.0665200422344 5.07593966858622e-014
      vertex 41.6687253691951 78.0665200422344 5.0
   endloop
endfacet
facet normal -0.499999999999993 -0.866025403784443 0.0
   outer loop
      vertex 58.192127240772 69.761067363089 5.0
      vertex 55.1921272407719 71.4931181706578 1.8
      vertex 58.192127240772 69.761067363089 1.8
   endloop
endfacet
facet normal -0.499999999999993 -0.866025403784443 0.0
   outer loop
      vertex 55.1921272407719 71.4931181706578 1.8
      vertex 58.192127240772 69.761067363089 5.0
      vertex 55.1921272407719 71.4931181706578 5.0
   endloop
endfacet
facet normal -0.499999999999999 0.86602540378444 -0.0
   outer loop
      vertex 55.1921272407719 64.4931181706578 5.0
      vertex 58.1921272407719 66.2251689782266 1.8
      vertex 55.1921272407719 64.4931181706578 1.8
   endloop
endfacet
facet normal -0.499999999999999 0.86602540378444 -0.0
   outer loop
      vertex 58.1921272407719 66.2251689782266 1.8
      vertex 55.1921272407719 64.4931181706578 5.0
      vertex 58.1921272407719 66.2251689782266 5.0
   endloop
endfacet
facet normal -0.382683432365096 0.923879532511284 -0.0
   outer loop
      vertex 46.2085767527538 56.7032667870992 5.0
      vertex 47.3421272407719 57.172798772871 5.07593966858622e-014
      vertex 46.2085767527538 56.7032667870992 5.07593966858622e-014
   endloop
endfacet
facet normal -0.382683432365096 0.923879532511284 -0.0
   outer loop
      vertex 47.3421272407719 57.172798772871 5.07593966858622e-014
      vertex 46.2085767527538 56.7032667870992 5.0
      vertex 47.3421272407719 57.172798772871 5.0
   endloop
endfacet
facet normal -0.991444861373804 0.130526192220102 0.0
   outer loop
      vertex 49.6921272407719 61.2431181706578 5.0
      vertex 49.5319786243305 60.0266686586759 5.07593966858622e-014
      vertex 49.5319786243305 60.0266686586759 5.0
   endloop
endfacet
facet normal -0.991444861373804 0.130526192220102 0.0
   outer loop
      vertex 49.5319786243305 60.0266686586759 5.07593966858622e-014
      vertex 49.6921272407719 61.2431181706578 5.0
      vertex 49.6921272407719 61.2431181706578 5.07593966858622e-014
   endloop
endfacet
facet normal 7.0227479115294e-017 -3.6743132323302e-032 -1.0
   outer loop
      vertex 31.7921272407719 73.6910673630889 0.0
      vertex 30.7921272407718 66.2931181706578 0.0
      vertex 30.7921272407718 69.6931181706578 0.0
   endloop
endfacet
facet normal 7.0227479115294e-017 -3.6743132323302e-032 -1.0
   outer loop
      vertex 30.7921272407718 66.2931181706578 0.0
      vertex 31.7921272407719 73.6910673630889 0.0
      vertex 31.7921272407718 62.2951689782266 0.0
   endloop
endfacet
facet normal 7.0227479115294e-017 -3.6743132323302e-032 -1.0
   outer loop
      vertex 58.192127240772 88.4931181706578 -8.01482679704548e-029
      vertex 31.7921272407719 73.6910673630889 0.0
      vertex 31.7921272407718 88.4931181706577 2.50463337407671e-030
   endloop
endfacet
facet normal 7.0227479115294e-017 -3.6743132323302e-032 -1.0
   outer loop
      vertex 31.7921272407719 73.6910673630889 0.0
      vertex 58.192127240772 88.4931181706578 -8.01482679704548e-029
      vertex 42.6421272407718 78.8134375684445 5.07593966858622e-014
   endloop
endfacet
facet normal 7.0227479115294e-017 -3.6743132323302e-032 -1.0
   outer loop
      vertex 31.7921272407719 73.6910673630889 0.0
      vertex 42.6421272407718 78.8134375684445 5.07593966858622e-014
      vertex 41.6687253691951 78.0665200422344 5.07593966858622e-014
   endloop
endfacet
facet normal 7.0227479115294e-017 -3.6743132323302e-032 -1.0
   outer loop
      vertex 31.7921272407719 73.6910673630889 0.0
      vertex 41.6687253691951 78.0665200422344 5.07593966858622e-014
      vertex 33.5900457127547 69.1951996986749 0.0
   endloop
endfacet
facet normal 7.0227479115294e-017 -3.6743132323302e-032 -1.0
   outer loop
      vertex 31.7921272407719 73.6910673630889 0.0
      vertex 33.5900457127547 69.1951996986749 0.0
      vertex 33.3198840543383 68.8431181706578 0.0
   endloop
endfacet
facet normal 7.0227479115294e-017 -3.6743132323302e-032 -1.0
   outer loop
      vertex 31.7921272407719 73.6910673630889 0.0
      vertex 33.3198840543383 68.8431181706578 0.0
      vertex 33.1500533360804 68.4331105473321 0.0
   endloop
endfacet
facet normal 7.0227479115294e-017 -3.6743132323302e-032 -1.0
   outer loop
      vertex 31.7921272407719 73.6910673630889 0.0
      vertex 33.1500533360804 68.4331105473321 0.0
      vertex 33.0921272407718 67.9931181706578 0.0
   endloop
endfacet
facet normal 7.0227479115294e-017 -3.6743132323302e-032 -1.0
   outer loop
      vertex 33.5900457127547 69.1951996986749 0.0
      vertex 41.6687253691951 78.0665200422344 5.07593966858622e-014
      vertex 33.9421272407718 69.4653613570913 0.0
   endloop
endfacet
facet normal 7.0227479115294e-017 -3.6743132323302e-032 -1.0
   outer loop
      vertex 33.9421272407718 69.4653613570913 0.0
      vertex 41.6687253691951 78.0665200422344 5.07593966858622e-014
      vertex 34.3521348640975 69.6351920753492 0.0
   endloop
endfacet
facet normal 7.0227479115294e-017 -3.6743132323302e-032 -1.0
   outer loop
      vertex 34.3521348640975 69.6351920753492 0.0
      vertex 41.6687253691951 78.0665200422344 5.07593966858622e-014
      vertex 34.7921272407718 69.6931181706578 0.0
   endloop
endfacet
facet normal 7.0227479115294e-017 -3.6743132323302e-032 -1.0
   outer loop
      vertex 34.7921272407718 69.6931181706578 0.0
      vertex 41.6687253691951 78.0665200422344 5.07593966858622e-014
      vertex 40.9218078429849 77.0931181706576 5.07593966858622e-014
   endloop
endfacet
facet normal 7.0227479115294e-017 -3.6743132323302e-032 -1.0
   outer loop
      vertex 34.7921272407718 69.6931181706578 0.0
      vertex 40.9218078429849 77.0931181706576 5.07593966858622e-014
      vertex 35.2321196174461 69.6351920753492 0.0
   endloop
endfacet
facet normal 7.0227479115294e-017 -3.6743132323302e-032 -1.0
   outer loop
      vertex 35.2321196174461 69.6351920753492 0.0
      vertex 40.9218078429849 77.0931181706576 5.07593966858622e-014
      vertex 35.6421272407718 69.4653613570913 0.0
   endloop
endfacet
facet normal 7.0227479115294e-017 -3.6743132323302e-032 -1.0
   outer loop
      vertex 35.6421272407718 69.4653613570913 0.0
      vertex 40.9218078429849 77.0931181706576 5.07593966858622e-014
      vertex 35.994208768789 69.1951996986749 0.0
   endloop
endfacet
facet normal 7.0227479115294e-017 -3.6743132323302e-032 -1.0
   outer loop
      vertex 35.994208768789 69.1951996986749 0.0
      vertex 40.9218078429849 77.0931181706576 5.07593966858622e-014
      vertex 36.2643704272054 68.8431181706578 0.0
   endloop
endfacet
facet normal 7.0227479115294e-017 -3.6743132323302e-032 -1.0
   outer loop
      vertex 36.2643704272054 68.8431181706578 0.0
      vertex 40.9218078429849 77.0931181706576 5.07593966858622e-014
      vertex 36.4342011454632 68.4331105473321 0.0
   endloop
endfacet
facet normal 7.0227479115294e-017 -3.6743132323302e-032 -1.0
   outer loop
      vertex 36.4342011454632 68.4331105473321 0.0
      vertex 40.9218078429849 77.0931181706576 5.07593966858622e-014
      vertex 36.4921272407718 67.9931181706578 0.0
   endloop
endfacet
facet normal 7.0227479115294e-017 -3.6743132323302e-032 -1.0
   outer loop
      vertex 36.4921272407718 67.9931181706578 0.0
      vertex 40.9218078429849 77.0931181706576 5.07593966858622e-014
      vertex 40.4522758572132 75.9595676826395 5.07593966858622e-014
   endloop
endfacet
facet normal 7.0227479115294e-017 -3.6743132323302e-032 -1.0
   outer loop
      vertex 36.4921272407718 67.9931181706578 0.0
      vertex 40.4522758572132 75.9595676826395 5.07593966858622e-014
      vertex 40.2921272407719 74.7431181706577 5.07593966858622e-014
   endloop
endfacet
facet normal 7.0227479115294e-017 -3.6743132323302e-032 -1.0
   outer loop
      vertex 42.6421272407718 78.8134375684445 5.07593966858622e-014
      vertex 58.192127240772 88.4931181706578 -8.01482679704548e-029
      vertex 43.77567772879 79.2829695542162 5.07593966858622e-014
   endloop
endfacet
facet normal 7.0227479115294e-017 -3.6743132323302e-032 -1.0
   outer loop
      vertex 43.77567772879 79.2829695542162 5.07593966858622e-014
      vertex 58.192127240772 88.4931181706578 -8.01482679704548e-029
      vertex 44.9921272407719 79.4431181706577 5.07593966858622e-014
   endloop
endfacet
facet normal 7.0227479115294e-017 -3.6743132323302e-032 -1.0
   outer loop
      vertex 44.9921272407719 79.4431181706577 5.07593966858622e-014
      vertex 58.192127240772 88.4931181706578 -8.01482679704548e-029
      vertex 46.2085767527538 79.2829695542162 5.07593966858622e-014
   endloop
endfacet
facet normal 7.0227479115294e-017 -3.6743132323302e-032 -1.0
   outer loop
      vertex 46.2085767527538 79.2829695542162 5.07593966858622e-014
      vertex 58.192127240772 88.4931181706578 -8.01482679704548e-029
      vertex 47.3421272407718 78.8134375684445 5.07593966858622e-014
   endloop
endfacet
facet normal 7.0227479115294e-017 -3.6743132323302e-032 -1.0
   outer loop
      vertex 47.3421272407718 78.8134375684445 5.07593966858622e-014
      vertex 58.192127240772 88.4931181706578 -8.01482679704548e-029
      vertex 48.3155291123486 78.0665200422345 5.07593966858622e-014
   endloop
endfacet
facet normal 7.0227479115294e-017 -3.6743132323302e-032 -1.0
   outer loop
      vertex 48.3155291123486 78.0665200422345 5.07593966858622e-014
      vertex 58.192127240772 88.4931181706578 -8.01482679704548e-029
      vertex 49.0624466385588 77.0931181706577 5.07593966858622e-014
   endloop
endfacet
facet normal 7.0227479115294e-017 -3.6743132323302e-032 -1.0
   outer loop
      vertex 49.0624466385588 77.0931181706577 5.07593966858622e-014
      vertex 58.192127240772 88.4931181706578 -8.01482679704548e-029
      vertex 49.5319786243305 75.9595676826395 5.07593966858622e-014
   endloop
endfacet
facet normal 7.0227479115294e-017 -3.6743132323302e-032 -1.0
   outer loop
      vertex 49.5319786243305 75.9595676826395 5.07593966858622e-014
      vertex 58.192127240772 88.4931181706578 -8.01482679704548e-029
      vertex 49.6921272407719 74.7431181706578 5.07593966858622e-014
   endloop
endfacet
facet normal 7.0227479115294e-017 -3.6743132323302e-032 -1.0
   outer loop
      vertex 49.6921272407719 74.7431181706578 5.07593966858622e-014
      vertex 58.192127240772 88.4931181706578 -8.01482679704548e-029
      vertex 49.6921272407719 61.2431181706578 5.07593966858622e-014
   endloop
endfacet
facet normal 7.0227479115294e-017 -3.6743132323302e-032 -1.0
   outer loop
      vertex 49.6921272407719 61.2431181706578 5.07593966858622e-014
      vertex 58.192127240772 88.4931181706578 -8.01482679704548e-029
      vertex 53.5500533360805 68.4331105473321 0.0
   endloop
endfacet
facet normal 7.0227479115294e-017 -3.6743132323302e-032 -1.0
   outer loop
      vertex 49.6921272407719 61.2431181706578 5.07593966858622e-014
      vertex 53.5500533360805 68.4331105473321 0.0
      vertex 53.4921272407719 67.9931181706578 0.0
   endloop
endfacet
facet normal 7.0227479115294e-017 -3.6743132323302e-032 -1.0
   outer loop
      vertex 53.5500533360805 68.4331105473321 0.0
      vertex 58.192127240772 88.4931181706578 -8.01482679704548e-029
      vertex 53.7198840543383 68.8431181706578 0.0
   endloop
endfacet
facet normal 7.0227479115294e-017 -3.6743132323302e-032 -1.0
   outer loop
      vertex 53.7198840543383 68.8431181706578 0.0
      vertex 58.192127240772 88.4931181706578 -8.01482679704548e-029
      vertex 53.9900457127548 69.1951996986749 0.0
   endloop
endfacet
facet normal 7.0227479115294e-017 -3.6743132323302e-032 -1.0
   outer loop
      vertex 53.9900457127548 69.1951996986749 0.0
      vertex 58.192127240772 88.4931181706578 -8.01482679704548e-029
      vertex 54.3421272407719 69.4653613570913 0.0
   endloop
endfacet
facet normal 7.0227479115294e-017 -3.6743132323302e-032 -1.0
   outer loop
      vertex 54.3421272407719 69.4653613570913 0.0
      vertex 58.192127240772 88.4931181706578 -8.01482679704548e-029
      vertex 54.7521348640976 69.6351920753492 0.0
   endloop
endfacet
facet normal 7.0227479115294e-017 -3.6743132323302e-032 -1.0
   outer loop
      vertex 54.7521348640976 69.6351920753492 0.0
      vertex 58.192127240772 88.4931181706578 -8.01482679704548e-029
      vertex 55.1921272407719 69.6931181706578 0.0
   endloop
endfacet
facet normal 7.0227479115294e-017 -3.6743132323302e-032 -1.0
   outer loop
      vertex 55.1921272407719 69.6931181706578 0.0
      vertex 58.192127240772 88.4931181706578 -8.01482679704548e-029
      vertex 55.6321196174462 69.6351920753492 0.0
   endloop
endfacet
facet normal 7.0227479115294e-017 -3.6743132323302e-032 -1.0
   outer loop
      vertex 55.6321196174462 69.6351920753492 0.0
      vertex 58.192127240772 88.4931181706578 -8.01482679704548e-029
      vertex 56.0421272407719 69.4653613570913 0.0
   endloop
endfacet
facet normal 7.0227479115294e-017 -3.6743132323302e-032 -1.0
   outer loop
      vertex 56.0421272407719 69.4653613570913 0.0
      vertex 58.192127240772 88.4931181706578 -8.01482679704548e-029
      vertex 56.394208768789 69.1951996986749 0.0
   endloop
endfacet
facet normal 7.0227479115294e-017 -3.6743132323302e-032 -1.0
   outer loop
      vertex 56.394208768789 69.1951996986749 0.0
      vertex 58.192127240772 88.4931181706578 -8.01482679704548e-029
      vertex 56.6643704272054 68.8431181706578 0.0
   endloop
endfacet
facet normal 7.0227479115294e-017 -3.6743132323302e-032 -1.0
   outer loop
      vertex 56.6643704272054 68.8431181706578 0.0
      vertex 58.192127240772 88.4931181706578 -8.01482679704548e-029
      vertex 56.8342011454633 68.4331105473321 0.0
   endloop
endfacet
facet normal 7.0227479115294e-017 -3.6743132323302e-032 -1.0
   outer loop
      vertex 56.8342011454633 68.4331105473321 0.0
      vertex 58.192127240772 88.4931181706578 -8.01482679704548e-029
      vertex 56.8921272407719 67.9931181706578 0.0
   endloop
endfacet
facet normal 7.0227479115294e-017 -3.6743132323302e-032 -1.0
   outer loop
      vertex 56.8921272407719 67.9931181706578 0.0
      vertex 58.192127240772 88.4931181706578 -8.01482679704548e-029
      vertex 58.1921272407719 62.2951689782267 2.8199664825479e-015
   endloop
endfacet
facet normal 7.0227479115294e-017 -3.6743132323302e-032 -1.0
   outer loop
      vertex 58.1921272407719 62.2951689782267 2.8199664825479e-015
      vertex 58.192127240772 88.4931181706578 -8.01482679704548e-029
      vertex 58.192127240772 73.691067363089 2.8199664825479e-015
   endloop
endfacet
facet normal 7.0227479115294e-017 -3.6743132323302e-032 -1.0
   outer loop
      vertex 58.1921272407719 62.2951689782267 2.8199664825479e-015
      vertex 58.192127240772 73.691067363089 2.8199664825479e-015
      vertex 59.1921272407719 66.2931181706578 2.8199664825479e-015
   endloop
endfacet
facet normal 7.0227479115294e-017 -3.6743132323302e-032 -1.0
   outer loop
      vertex 59.1921272407719 66.2931181706578 2.8199664825479e-015
      vertex 58.192127240772 73.691067363089 2.8199664825479e-015
      vertex 59.1921272407719 69.6931181706578 2.8199664825479e-015
   endloop
endfacet
facet normal 7.0227479115294e-017 -3.6743132323302e-032 -1.0
   outer loop
      vertex 31.7921272407718 62.2951689782266 0.0
      vertex 58.1921272407719 47.4931181706577 -8.01482679704548e-029
      vertex 31.7921272407718 47.4931181706578 2.50463337407671e-030
   endloop
endfacet
facet normal 7.0227479115294e-017 -3.6743132323302e-032 -1.0
   outer loop
      vertex 58.1921272407719 47.4931181706577 -8.01482679704548e-029
      vertex 31.7921272407718 62.2951689782266 0.0
      vertex 42.6421272407718 57.172798772871 5.07593966858622e-014
   endloop
endfacet
facet normal 7.0227479115294e-017 -3.6743132323302e-032 -1.0
   outer loop
      vertex 42.6421272407718 57.172798772871 5.07593966858622e-014
      vertex 31.7921272407718 62.2951689782266 0.0
      vertex 41.6687253691951 57.919716299081 5.07593966858622e-014
   endloop
endfacet
facet normal 7.0227479115294e-017 -3.6743132323302e-032 -1.0
   outer loop
      vertex 41.6687253691951 57.919716299081 5.07593966858622e-014
      vertex 31.7921272407718 62.2951689782266 0.0
      vertex 33.5900457127547 66.7910366426407 0.0
   endloop
endfacet
facet normal 7.0227479115294e-017 -3.6743132323302e-032 -1.0
   outer loop
      vertex 33.5900457127547 66.7910366426407 0.0
      vertex 31.7921272407718 62.2951689782266 0.0
      vertex 33.3198840543383 67.1431181706578 0.0
   endloop
endfacet
facet normal 7.0227479115294e-017 -3.6743132323302e-032 -1.0
   outer loop
      vertex 33.3198840543383 67.1431181706578 0.0
      vertex 31.7921272407718 62.2951689782266 0.0
      vertex 33.1500533360804 67.5531257939835 0.0
   endloop
endfacet
facet normal 7.0227479115294e-017 -3.6743132323302e-032 -1.0
   outer loop
      vertex 33.1500533360804 67.5531257939835 0.0
      vertex 31.7921272407718 62.2951689782266 0.0
      vertex 31.7921272407719 73.6910673630889 0.0
   endloop
endfacet
facet normal 7.0227479115294e-017 -3.6743132323302e-032 -1.0
   outer loop
      vertex 33.1500533360804 67.5531257939835 0.0
      vertex 31.7921272407719 73.6910673630889 0.0
      vertex 33.0921272407718 67.9931181706578 0.0
   endloop
endfacet
facet normal 7.0227479115294e-017 -3.6743132323302e-032 -1.0
   outer loop
      vertex 41.6687253691951 57.919716299081 5.07593966858622e-014
      vertex 33.5900457127547 66.7910366426407 0.0
      vertex 33.9421272407718 66.5208749842243 0.0
   endloop
endfacet
facet normal 7.0227479115294e-017 -3.6743132323302e-032 -1.0
   outer loop
      vertex 41.6687253691951 57.919716299081 5.07593966858622e-014
      vertex 33.9421272407718 66.5208749842243 0.0
      vertex 34.3521348640975 66.3510442659664 0.0
   endloop
endfacet
facet normal 7.0227479115294e-017 -3.6743132323302e-032 -1.0
   outer loop
      vertex 41.6687253691951 57.919716299081 5.07593966858622e-014
      vertex 34.3521348640975 66.3510442659664 0.0
      vertex 34.7921272407718 66.2931181706578 0.0
   endloop
endfacet
facet normal 7.0227479115294e-017 -3.6743132323302e-032 -1.0
   outer loop
      vertex 41.6687253691951 57.919716299081 5.07593966858622e-014
      vertex 34.7921272407718 66.2931181706578 0.0
      vertex 40.921807842985 58.8931181706578 5.07593966858622e-014
   endloop
endfacet
facet normal 7.0227479115294e-017 -3.6743132323302e-032 -1.0
   outer loop
      vertex 40.921807842985 58.8931181706578 5.07593966858622e-014
      vertex 34.7921272407718 66.2931181706578 0.0
      vertex 35.2321196174461 66.3510442659664 0.0
   endloop
endfacet
facet normal 7.0227479115294e-017 -3.6743132323302e-032 -1.0
   outer loop
      vertex 40.921807842985 58.8931181706578 5.07593966858622e-014
      vertex 35.2321196174461 66.3510442659664 0.0
      vertex 35.6421272407718 66.5208749842243 0.0
   endloop
endfacet
facet normal 7.0227479115294e-017 -3.6743132323302e-032 -1.0
   outer loop
      vertex 40.921807842985 58.8931181706578 5.07593966858622e-014
      vertex 35.6421272407718 66.5208749842243 0.0
      vertex 35.994208768789 66.7910366426407 0.0
   endloop
endfacet
facet normal 7.0227479115294e-017 -3.6743132323302e-032 -1.0
   outer loop
      vertex 40.921807842985 58.8931181706578 5.07593966858622e-014
      vertex 35.994208768789 66.7910366426407 0.0
      vertex 36.2643704272054 67.1431181706578 0.0
   endloop
endfacet
facet normal 7.0227479115294e-017 -3.6743132323302e-032 -1.0
   outer loop
      vertex 40.921807842985 58.8931181706578 5.07593966858622e-014
      vertex 36.2643704272054 67.1431181706578 0.0
      vertex 36.4342011454632 67.5531257939835 0.0
   endloop
endfacet
facet normal 7.0227479115294e-017 -3.6743132323302e-032 -1.0
   outer loop
      vertex 40.921807842985 58.8931181706578 5.07593966858622e-014
      vertex 36.4342011454632 67.5531257939835 0.0
      vertex 36.4921272407718 67.9931181706578 0.0
   endloop
endfacet
facet normal 7.0227479115294e-017 -3.6743132323302e-032 -1.0
   outer loop
      vertex 40.921807842985 58.8931181706578 5.07593966858622e-014
      vertex 36.4921272407718 67.9931181706578 0.0
      vertex 40.4522758572133 60.026668658676 5.07593966858622e-014
   endloop
endfacet
facet normal 7.0227479115294e-017 -3.6743132323302e-032 -1.0
   outer loop
      vertex 40.4522758572133 60.026668658676 5.07593966858622e-014
      vertex 36.4921272407718 67.9931181706578 0.0
      vertex 40.2921272407719 61.2431181706578 5.07593966858622e-014
   endloop
endfacet
facet normal 7.0227479115294e-017 -3.6743132323302e-032 -1.0
   outer loop
      vertex 40.2921272407719 61.2431181706578 5.07593966858622e-014
      vertex 36.4921272407718 67.9931181706578 0.0
      vertex 40.2921272407719 74.7431181706577 5.07593966858622e-014
   endloop
endfacet
facet normal 7.0227479115294e-017 -3.6743132323302e-032 -1.0
   outer loop
      vertex 58.1921272407719 47.4931181706577 -8.01482679704548e-029
      vertex 42.6421272407718 57.172798772871 5.07593966858622e-014
      vertex 43.7756777287899 56.7032667870992 5.07593966858622e-014
   endloop
endfacet
facet normal 7.0227479115294e-017 -3.6743132323302e-032 -1.0
   outer loop
      vertex 58.1921272407719 47.4931181706577 -8.01482679704548e-029
      vertex 43.7756777287899 56.7032667870992 5.07593966858622e-014
      vertex 44.9921272407719 56.5431181706579 5.07593966858622e-014
   endloop
endfacet
facet normal 7.0227479115294e-017 -3.6743132323302e-032 -1.0
   outer loop
      vertex 58.1921272407719 47.4931181706577 -8.01482679704548e-029
      vertex 44.9921272407719 56.5431181706579 5.07593966858622e-014
      vertex 46.2085767527538 56.7032667870992 5.07593966858622e-014
   endloop
endfacet
facet normal 7.0227479115294e-017 -3.6743132323302e-032 -1.0
   outer loop
      vertex 58.1921272407719 47.4931181706577 -8.01482679704548e-029
      vertex 46.2085767527538 56.7032667870992 5.07593966858622e-014
      vertex 47.3421272407719 57.172798772871 5.07593966858622e-014
   endloop
endfacet
facet normal 7.0227479115294e-017 -3.6743132323302e-032 -1.0
   outer loop
      vertex 58.1921272407719 47.4931181706577 -8.01482679704548e-029
      vertex 47.3421272407719 57.172798772871 5.07593966858622e-014
      vertex 48.3155291123486 57.919716299081 5.07593966858622e-014
   endloop
endfacet
facet normal 7.0227479115294e-017 -3.6743132323302e-032 -1.0
   outer loop
      vertex 58.1921272407719 47.4931181706577 -8.01482679704548e-029
      vertex 48.3155291123486 57.919716299081 5.07593966858622e-014
      vertex 49.0624466385587 58.8931181706578 5.07593966858622e-014
   endloop
endfacet
facet normal 7.0227479115294e-017 -3.6743132323302e-032 -1.0
   outer loop
      vertex 58.1921272407719 47.4931181706577 -8.01482679704548e-029
      vertex 49.0624466385587 58.8931181706578 5.07593966858622e-014
      vertex 49.5319786243305 60.0266686586759 5.07593966858622e-014
   endloop
endfacet
facet normal 7.0227479115294e-017 -3.6743132323302e-032 -1.0
   outer loop
      vertex 58.1921272407719 47.4931181706577 -8.01482679704548e-029
      vertex 49.5319786243305 60.0266686586759 5.07593966858622e-014
      vertex 49.6921272407719 61.2431181706578 5.07593966858622e-014
   endloop
endfacet
facet normal 7.0227479115294e-017 -3.6743132323302e-032 -1.0
   outer loop
      vertex 58.1921272407719 47.4931181706577 -8.01482679704548e-029
      vertex 49.6921272407719 61.2431181706578 5.07593966858622e-014
      vertex 53.5500533360805 67.5531257939835 0.0
   endloop
endfacet
facet normal 7.0227479115294e-017 -3.6743132323302e-032 -1.0
   outer loop
      vertex 53.5500533360805 67.5531257939835 0.0
      vertex 49.6921272407719 61.2431181706578 5.07593966858622e-014
      vertex 53.4921272407719 67.9931181706578 0.0
   endloop
endfacet
facet normal 7.0227479115294e-017 -3.6743132323302e-032 -1.0
   outer loop
      vertex 58.1921272407719 47.4931181706577 -8.01482679704548e-029
      vertex 53.5500533360805 67.5531257939835 0.0
      vertex 53.7198840543383 67.1431181706578 0.0
   endloop
endfacet
facet normal 7.0227479115294e-017 -3.6743132323302e-032 -1.0
   outer loop
      vertex 58.1921272407719 47.4931181706577 -8.01482679704548e-029
      vertex 53.7198840543383 67.1431181706578 0.0
      vertex 53.9900457127548 66.7910366426407 0.0
   endloop
endfacet
facet normal 7.0227479115294e-017 -3.6743132323302e-032 -1.0
   outer loop
      vertex 58.1921272407719 47.4931181706577 -8.01482679704548e-029
      vertex 53.9900457127548 66.7910366426407 0.0
      vertex 54.3421272407719 66.5208749842243 0.0
   endloop
endfacet
facet normal 7.0227479115294e-017 -3.6743132323302e-032 -1.0
   outer loop
      vertex 58.1921272407719 47.4931181706577 -8.01482679704548e-029
      vertex 54.3421272407719 66.5208749842243 0.0
      vertex 54.7521348640976 66.3510442659664 0.0
   endloop
endfacet
facet normal 7.0227479115294e-017 -3.6743132323302e-032 -1.0
   outer loop
      vertex 58.1921272407719 47.4931181706577 -8.01482679704548e-029
      vertex 54.7521348640976 66.3510442659664 0.0
      vertex 55.1921272407719 66.2931181706578 0.0
   endloop
endfacet
facet normal 7.0227479115294e-017 -3.6743132323302e-032 -1.0
   outer loop
      vertex 58.1921272407719 47.4931181706577 -8.01482679704548e-029
      vertex 55.1921272407719 66.2931181706578 0.0
      vertex 55.6321196174462 66.3510442659664 0.0
   endloop
endfacet
facet normal 7.0227479115294e-017 -3.6743132323302e-032 -1.0
   outer loop
      vertex 58.1921272407719 47.4931181706577 -8.01482679704548e-029
      vertex 55.6321196174462 66.3510442659664 0.0
      vertex 56.0421272407719 66.5208749842243 0.0
   endloop
endfacet
facet normal 7.0227479115294e-017 -3.6743132323302e-032 -1.0
   outer loop
      vertex 58.1921272407719 47.4931181706577 -8.01482679704548e-029
      vertex 56.0421272407719 66.5208749842243 0.0
      vertex 56.394208768789 66.7910366426407 0.0
   endloop
endfacet
facet normal 7.0227479115294e-017 -3.6743132323302e-032 -1.0
   outer loop
      vertex 58.1921272407719 47.4931181706577 -8.01482679704548e-029
      vertex 56.394208768789 66.7910366426407 0.0
      vertex 56.6643704272054 67.1431181706578 0.0
   endloop
endfacet
facet normal 7.0227479115294e-017 -3.6743132323302e-032 -1.0
   outer loop
      vertex 58.1921272407719 47.4931181706577 -8.01482679704548e-029
      vertex 56.6643704272054 67.1431181706578 0.0
      vertex 56.8342011454633 67.5531257939835 0.0
   endloop
endfacet
facet normal 7.0227479115294e-017 -3.6743132323302e-032 -1.0
   outer loop
      vertex 58.1921272407719 47.4931181706577 -8.01482679704548e-029
      vertex 56.8342011454633 67.5531257939835 0.0
      vertex 56.8921272407719 67.9931181706578 0.0
   endloop
endfacet
facet normal 7.0227479115294e-017 -3.6743132323302e-032 -1.0
   outer loop
      vertex 58.1921272407719 47.4931181706577 -8.01482679704548e-029
      vertex 56.8921272407719 67.9931181706578 0.0
      vertex 58.1921272407719 62.2951689782267 2.8199664825479e-015
   endloop
endfacet
facet normal 0.79335334029123 0.608761429008728 -0.0
   outer loop
      vertex 40.921807842985 58.8931181706578 5.07593966858622e-014
      vertex 41.6687253691951 57.919716299081 5.0
      vertex 41.6687253691951 57.919716299081 5.07593966858622e-014
   endloop
endfacet
facet normal 0.79335334029123 0.608761429008728 -0.0
   outer loop
      vertex 41.6687253691951 57.919716299081 5.0
      vertex 40.921807842985 58.8931181706578 5.07593966858622e-014
      vertex 40.921807842985 58.8931181706578 5.0
   endloop
endfacet
facet normal -1.70907059548357e-015 1.0 -0.0
   outer loop
      vertex 31.7921272407718 88.4931181706577 2.50463337407671e-030
      vertex 58.192127240772 88.4931181706578 5.0
      vertex 58.192127240772 88.4931181706578 -8.01482679704548e-029
   endloop
endfacet
facet normal -1.70907059548357e-015 1.0 -0.0
   outer loop
      vertex 58.192127240772 88.4931181706578 5.0
      vertex 31.7921272407718 88.4931181706577 2.50463337407671e-030
      vertex 31.7921272407718 88.4931181706577 5.0
   endloop
endfacet
facet normal 0.499999999999986 0.866025403784447 -0.0
   outer loop
      vertex 52.1610383275263 66.2431181706578 5.0
      vertex 55.1921272407719 64.4931181706578 1.8
      vertex 52.1610383275263 66.2431181706578 1.8
   endloop
endfacet
facet normal 0.499999999999986 0.866025403784447 -0.0
   outer loop
      vertex 55.1921272407719 64.4931181706578 1.8
      vertex 52.1610383275263 66.2431181706578 5.0
      vertex 55.1921272407719 64.4931181706578 5.0
   endloop
endfacet
facet normal -0.0 -0.0 1.0
   outer loop
      vertex 55.1921272407719 64.4931181706578 1.8
      vertex 52.1610383275263 69.7431181706578 1.8
      vertex 52.1610383275263 66.2431181706578 1.8
   endloop
endfacet
facet normal -0.0 -0.0 1.0
   outer loop
      vertex 52.1610383275263 69.7431181706578 1.8
      vertex 55.1921272407719 64.4931181706578 1.8
      vertex 53.7198840543383 67.1431181706578 1.80000000000001
   endloop
endfacet
facet normal -0.0 -0.0 1.0
   outer loop
      vertex 52.1610383275263 69.7431181706578 1.8
      vertex 53.7198840543383 67.1431181706578 1.80000000000001
      vertex 53.5500533360805 67.5531257939835 1.80000000000001
   endloop
endfacet
facet normal -0.0 -0.0 1.0
   outer loop
      vertex 52.1610383275263 69.7431181706578 1.8
      vertex 53.5500533360805 67.5531257939835 1.80000000000001
      vertex 53.4921272407719 67.9931181706578 1.80000000000001
   endloop
endfacet
facet normal -0.0 -0.0 1.0
   outer loop
      vertex 53.7198840543383 67.1431181706578 1.80000000000001
      vertex 55.1921272407719 64.4931181706578 1.8
      vertex 53.9900457127548 66.7910366426407 1.80000000000001
   endloop
endfacet
facet normal -0.0 -0.0 1.0
   outer loop
      vertex 53.9900457127548 66.7910366426407 1.80000000000001
      vertex 55.1921272407719 64.4931181706578 1.8
      vertex 54.3421272407719 66.5208749842243 1.80000000000001
   endloop
endfacet
facet normal -0.0 -0.0 1.0
   outer loop
      vertex 54.3421272407719 66.5208749842243 1.80000000000001
      vertex 55.1921272407719 64.4931181706578 1.8
      vertex 54.7521348640976 66.3510442659664 1.80000000000001
   endloop
endfacet
facet normal -0.0 -0.0 1.0
   outer loop
      vertex 54.7521348640976 66.3510442659664 1.80000000000001
      vertex 55.1921272407719 64.4931181706578 1.8
      vertex 55.1921272407719 66.2931181706578 1.80000000000001
   endloop
endfacet
facet normal -0.0 -0.0 1.0
   outer loop
      vertex 55.1921272407719 66.2931181706578 1.80000000000001
      vertex 55.1921272407719 64.4931181706578 1.8
      vertex 58.1921272407719 66.2251689782266 1.8
   endloop
endfacet
facet normal -0.0 -0.0 1.0
   outer loop
      vertex 55.1921272407719 66.2931181706578 1.80000000000001
      vertex 58.1921272407719 66.2251689782266 1.8
      vertex 55.6321196174462 66.3510442659664 1.80000000000001
   endloop
endfacet
facet normal -0.0 -0.0 1.0
   outer loop
      vertex 55.6321196174462 66.3510442659664 1.80000000000001
      vertex 58.1921272407719 66.2251689782266 1.8
      vertex 56.0421272407719 66.5208749842243 1.80000000000001
   endloop
endfacet
facet normal -0.0 -0.0 1.0
   outer loop
      vertex 56.0421272407719 66.5208749842243 1.80000000000001
      vertex 58.1921272407719 66.2251689782266 1.8
      vertex 56.394208768789 66.7910366426407 1.80000000000001
   endloop
endfacet
facet normal -0.0 -0.0 1.0
   outer loop
      vertex 56.394208768789 66.7910366426407 1.80000000000001
      vertex 58.1921272407719 66.2251689782266 1.8
      vertex 56.6643704272054 67.1431181706578 1.80000000000001
   endloop
endfacet
facet normal -0.0 -0.0 1.0
   outer loop
      vertex 56.6643704272054 67.1431181706578 1.80000000000001
      vertex 58.1921272407719 66.2251689782266 1.8
      vertex 56.8342011454633 67.5531257939835 1.80000000000001
   endloop
endfacet
facet normal -0.0 -0.0 1.0
   outer loop
      vertex 56.8342011454633 67.5531257939835 1.80000000000001
      vertex 58.1921272407719 66.2251689782266 1.8
      vertex 56.8921272407719 67.9931181706578 1.80000000000001
   endloop
endfacet
facet normal -0.0 -0.0 1.0
   outer loop
      vertex 59.1921272407719 66.2931181706578 1.8
      vertex 58.1921272407719 66.2251689782266 1.8
      vertex 58.1921272407719 62.2951689782267 1.8
   endloop
endfacet
facet normal -0.0 -0.0 1.0
   outer loop
      vertex 58.1921272407719 66.2251689782266 1.8
      vertex 59.1921272407719 66.2931181706578 1.8
      vertex 58.192127240772 69.761067363089 1.8
   endloop
endfacet
facet normal -0.0 -0.0 1.0
   outer loop
      vertex 58.192127240772 69.761067363089 1.8
      vertex 59.1921272407719 66.2931181706578 1.8
      vertex 58.192127240772 73.691067363089 1.8
   endloop
endfacet
facet normal -0.0 -0.0 1.0
   outer loop
      vertex 58.192127240772 73.691067363089 1.8
      vertex 59.1921272407719 66.2931181706578 1.8
      vertex 59.1921272407719 69.6931181706578 1.8
   endloop
endfacet
facet normal -0.0 -0.0 1.0
   outer loop
      vertex 52.1610383275263 69.7431181706578 1.8
      vertex 53.7198840543383 68.8431181706578 1.80000000000001
      vertex 55.1921272407719 71.4931181706578 1.8
   endloop
endfacet
facet normal -0.0 -0.0 1.0
   outer loop
      vertex 53.7198840543383 68.8431181706578 1.80000000000001
      vertex 52.1610383275263 69.7431181706578 1.8
      vertex 53.5500533360805 68.4331105473321 1.80000000000001
   endloop
endfacet
facet normal -0.0 -0.0 1.0
   outer loop
      vertex 53.5500533360805 68.4331105473321 1.80000000000001
      vertex 52.1610383275263 69.7431181706578 1.8
      vertex 53.4921272407719 67.9931181706578 1.80000000000001
   endloop
endfacet
facet normal -0.0 -0.0 1.0
   outer loop
      vertex 55.1921272407719 71.4931181706578 1.8
      vertex 53.7198840543383 68.8431181706578 1.80000000000001
      vertex 53.9900457127548 69.1951996986749 1.80000000000001
   endloop
endfacet
facet normal -0.0 -0.0 1.0
   outer loop
      vertex 55.1921272407719 71.4931181706578 1.8
      vertex 53.9900457127548 69.1951996986749 1.80000000000001
      vertex 54.3421272407719 69.4653613570913 1.80000000000001
   endloop
endfacet
facet normal -0.0 -0.0 1.0
   outer loop
      vertex 55.1921272407719 71.4931181706578 1.8
      vertex 54.3421272407719 69.4653613570913 1.80000000000001
      vertex 54.7521348640976 69.6351920753492 1.80000000000001
   endloop
endfacet
facet normal -0.0 -0.0 1.0
   outer loop
      vertex 55.1921272407719 71.4931181706578 1.8
      vertex 54.7521348640976 69.6351920753492 1.80000000000001
      vertex 55.1921272407719 69.6931181706578 1.80000000000001
   endloop
endfacet
facet normal -0.0 -0.0 1.0
   outer loop
      vertex 55.1921272407719 71.4931181706578 1.8
      vertex 55.1921272407719 69.6931181706578 1.80000000000001
      vertex 55.6321196174462 69.6351920753492 1.80000000000001
   endloop
endfacet
facet normal -0.0 -0.0 1.0
   outer loop
      vertex 55.1921272407719 71.4931181706578 1.8
      vertex 55.6321196174462 69.6351920753492 1.80000000000001
      vertex 58.192127240772 69.761067363089 1.8
   endloop
endfacet
facet normal -0.0 -0.0 1.0
   outer loop
      vertex 58.192127240772 69.761067363089 1.8
      vertex 55.6321196174462 69.6351920753492 1.80000000000001
      vertex 56.0421272407719 69.4653613570913 1.80000000000001
   endloop
endfacet
facet normal -0.0 -0.0 1.0
   outer loop
      vertex 58.192127240772 69.761067363089 1.8
      vertex 56.0421272407719 69.4653613570913 1.80000000000001
      vertex 56.394208768789 69.1951996986749 1.80000000000001
   endloop
endfacet
facet normal -0.0 -0.0 1.0
   outer loop
      vertex 58.192127240772 69.761067363089 1.8
      vertex 56.394208768789 69.1951996986749 1.80000000000001
      vertex 56.6643704272054 68.8431181706578 1.80000000000001
   endloop
endfacet
facet normal -0.0 -0.0 1.0
   outer loop
      vertex 58.192127240772 69.761067363089 1.8
      vertex 56.6643704272054 68.8431181706578 1.80000000000001
      vertex 56.8342011454633 68.4331105473321 1.80000000000001
   endloop
endfacet
facet normal -0.0 -0.0 1.0
   outer loop
      vertex 58.192127240772 69.761067363089 1.8
      vertex 56.8342011454633 68.4331105473321 1.80000000000001
      vertex 56.8921272407719 67.9931181706578 1.80000000000001
   endloop
endfacet
facet normal -0.0 -0.0 1.0
   outer loop
      vertex 58.192127240772 69.761067363089 1.8
      vertex 56.8921272407719 67.9931181706578 1.80000000000001
      vertex 58.1921272407719 66.2251689782266 1.8
   endloop
endfacet
facet normal -0.991444861373814 -0.130526192220028 0.0
   outer loop
      vertex 56.8342011454633 68.4331105473321 1.80000000000001
      vertex 56.8921272407719 67.9931181706578 0.0
      vertex 56.8921272407719 67.9931181706578 1.80000000000001
   endloop
endfacet
facet normal -0.991444861373814 -0.130526192220028 0.0
   outer loop
      vertex 56.8921272407719 67.9931181706578 0.0
      vertex 56.8342011454633 68.4331105473321 1.80000000000001
      vertex 56.8342011454633 68.4331105473321 0.0
   endloop
endfacet
facet normal -0.608761429008709 0.793353340291244 -0.0
   outer loop
      vertex 47.3421272407719 57.172798772871 5.0
      vertex 48.3155291123486 57.919716299081 5.07593966858622e-014
      vertex 47.3421272407719 57.172798772871 5.07593966858622e-014
   endloop
endfacet
facet normal -0.608761429008709 0.793353340291244 -0.0
   outer loop
      vertex 48.3155291123486 57.919716299081 5.07593966858622e-014
      vertex 47.3421272407719 57.172798772871 5.0
      vertex 48.3155291123486 57.919716299081 5.0
   endloop
endfacet
facet normal -0.382683432365061 -0.923879532511299 0.0
   outer loop
      vertex 56.0421272407719 69.4653613570913 1.80000000000001
      vertex 55.6321196174462 69.6351920753492 0.0
      vertex 56.0421272407719 69.4653613570913 0.0
   endloop
endfacet
facet normal -0.382683432365061 -0.923879532511299 0.0
   outer loop
      vertex 55.6321196174462 69.6351920753492 0.0
      vertex 56.0421272407719 69.4653613570913 1.80000000000001
      vertex 55.6321196174462 69.6351920753492 1.80000000000001
   endloop
endfacet
facet normal -0.382683432365061 0.923879532511299 -0.0
   outer loop
      vertex 55.6321196174462 66.3510442659664 1.80000000000001
      vertex 56.0421272407719 66.5208749842243 0.0
      vertex 55.6321196174462 66.3510442659664 0.0
   endloop
endfacet
facet normal -0.382683432365061 0.923879532511299 -0.0
   outer loop
      vertex 56.0421272407719 66.5208749842243 0.0
      vertex 55.6321196174462 66.3510442659664 1.80000000000001
      vertex 56.0421272407719 66.5208749842243 1.80000000000001
   endloop
endfacet
facet normal 0.608761429008763 0.793353340291203 -0.0
   outer loop
      vertex 53.9900457127548 66.7910366426407 1.80000000000001
      vertex 54.3421272407719 66.5208749842243 0.0
      vertex 53.9900457127548 66.7910366426407 0.0
   endloop
endfacet
facet normal 0.608761429008763 0.793353340291203 -0.0
   outer loop
      vertex 54.3421272407719 66.5208749842243 0.0
      vertex 53.9900457127548 66.7910366426407 1.80000000000001
      vertex 54.3421272407719 66.5208749842243 1.80000000000001
   endloop
endfacet
facet normal -0.923879532511283 -0.382683432365099 0.0
   outer loop
      vertex 49.0624466385588 77.0931181706577 5.0
      vertex 49.5319786243305 75.9595676826395 5.07593966858622e-014
      vertex 49.5319786243305 75.9595676826395 5.0
   endloop
endfacet
facet normal -0.923879532511283 -0.382683432365099 0.0
   outer loop
      vertex 49.5319786243305 75.9595676826395 5.07593966858622e-014
      vertex 49.0624466385588 77.0931181706577 5.0
      vertex 49.0624466385588 77.0931181706577 5.07593966858622e-014
   endloop
endfacet
facet normal 0.608761429008731 -0.793353340291227 0.0
   outer loop
      vertex 54.3421272407719 69.4653613570913 1.80000000000001
      vertex 53.9900457127548 69.1951996986749 0.0
      vertex 54.3421272407719 69.4653613570913 0.0
   endloop
endfacet
facet normal 0.608761429008731 -0.793353340291227 0.0
   outer loop
      vertex 53.9900457127548 69.1951996986749 0.0
      vertex 54.3421272407719 69.4653613570913 1.80000000000001
      vertex 53.9900457127548 69.1951996986749 1.80000000000001
   endloop
endfacet
facet normal 0.382683432365064 0.923879532511297 -0.0
   outer loop
      vertex 42.6421272407718 57.172798772871 5.0
      vertex 43.7756777287899 56.7032667870992 5.07593966858622e-014
      vertex 42.6421272407718 57.172798772871 5.07593966858622e-014
   endloop
endfacet
facet normal 0.382683432365064 0.923879532511297 -0.0
   outer loop
      vertex 43.7756777287899 56.7032667870992 5.07593966858622e-014
      vertex 42.6421272407718 57.172798772871 5.0
      vertex 43.7756777287899 56.7032667870992 5.0
   endloop
endfacet
facet normal -0.130526192220039 0.991444861373812 -0.0
   outer loop
      vertex 44.9921272407719 56.5431181706579 5.0
      vertex 46.2085767527538 56.7032667870992 5.07593966858622e-014
      vertex 44.9921272407719 56.5431181706579 5.07593966858622e-014
   endloop
endfacet
facet normal -0.130526192220039 0.991444861373812 -0.0
   outer loop
      vertex 46.2085767527538 56.7032667870992 5.07593966858622e-014
      vertex 44.9921272407719 56.5431181706579 5.0
      vertex 46.2085767527538 56.7032667870992 5.0
   endloop
endfacet
facet normal 0.130526192220041 0.991444861373812 -0.0
   outer loop
      vertex 43.7756777287899 56.7032667870992 5.0
      vertex 44.9921272407719 56.5431181706579 5.07593966858622e-014
      vertex 43.7756777287899 56.7032667870992 5.07593966858622e-014
   endloop
endfacet
facet normal 0.130526192220041 0.991444861373812 -0.0
   outer loop
      vertex 44.9921272407719 56.5431181706579 5.07593966858622e-014
      vertex 43.7756777287899 56.7032667870992 5.0
      vertex 44.9921272407719 56.5431181706579 5.0
   endloop
endfacet
facet normal 0.991444861373814 -0.130526192220026 -0.0
   outer loop
      vertex 40.4522758572132 75.9595676826395 5.07593966858622e-014
      vertex 40.2921272407719 74.7431181706577 5.0
      vertex 40.2921272407719 74.7431181706577 5.07593966858622e-014
   endloop
endfacet
facet normal 0.991444861373814 -0.130526192220026 -0.0
   outer loop
      vertex 40.2921272407719 74.7431181706577 5.0
      vertex 40.4522758572132 75.9595676826395 5.07593966858622e-014
      vertex 40.4522758572132 75.9595676826395 5.0
   endloop
endfacet
facet normal 0.608761429008767 0.7933533402912 -0.0
   outer loop
      vertex 41.6687253691951 57.919716299081 5.0
      vertex 42.6421272407718 57.172798772871 5.07593966858622e-014
      vertex 41.6687253691951 57.919716299081 5.07593966858622e-014
   endloop
endfacet
facet normal 0.608761429008767 0.7933533402912 -0.0
   outer loop
      vertex 42.6421272407718 57.172798772871 5.07593966858622e-014
      vertex 41.6687253691951 57.919716299081 5.0
      vertex 42.6421272407718 57.172798772871 5.0
   endloop
endfacet
facet normal 0.499999999999975 0.866025403784453 -0.0
   outer loop
      vertex 31.7921272407718 66.2251689782266 5.0
      vertex 34.7921272407719 64.4931181706578 1.8
      vertex 31.7921272407718 66.2251689782266 1.8
   endloop
endfacet
facet normal 0.499999999999975 0.866025403784453 -0.0
   outer loop
      vertex 34.7921272407719 64.4931181706578 1.8
      vertex 31.7921272407718 66.2251689782266 5.0
      vertex 34.7921272407719 64.4931181706578 5.0
   endloop
endfacet
facet normal -0.382683432365078 -0.923879532511292 0.0
   outer loop
      vertex 47.3421272407718 78.8134375684445 5.0
      vertex 46.2085767527538 79.2829695542162 5.07593966858622e-014
      vertex 47.3421272407718 78.8134375684445 5.07593966858622e-014
   endloop
endfacet
facet normal -0.382683432365078 -0.923879532511292 0.0
   outer loop
      vertex 46.2085767527538 79.2829695542162 5.07593966858622e-014
      vertex 47.3421272407718 78.8134375684445 5.0
      vertex 46.2085767527538 79.2829695542162 5.0
   endloop
endfacet
facet normal -0.608761429008763 0.793353340291203 -0.0
   outer loop
      vertex 56.0421272407719 66.5208749842243 1.80000000000001
      vertex 56.394208768789 66.7910366426407 0.0
      vertex 56.0421272407719 66.5208749842243 0.0
   endloop
endfacet
facet normal -0.608761429008763 0.793353340291203 -0.0
   outer loop
      vertex 56.394208768789 66.7910366426407 0.0
      vertex 56.0421272407719 66.5208749842243 1.80000000000001
      vertex 56.394208768789 66.7910366426407 1.80000000000001
   endloop
endfacet
facet normal 0.991444861373814 -0.130526192220028 -0.0
   outer loop
      vertex 53.5500533360805 68.4331105473321 0.0
      vertex 53.4921272407719 67.9931181706578 1.80000000000001
      vertex 53.4921272407719 67.9931181706578 0.0
   endloop
endfacet
facet normal 0.991444861373814 -0.130526192220028 -0.0
   outer loop
      vertex 53.4921272407719 67.9931181706578 1.80000000000001
      vertex 53.5500533360805 68.4331105473321 0.0
      vertex 53.5500533360805 68.4331105473321 1.80000000000001
   endloop
endfacet
facet normal 0.130526192220071 0.991444861373808 -0.0
   outer loop
      vertex 34.3521348640975 66.3510442659664 1.8
      vertex 34.7921272407718 66.2931181706578 0.0
      vertex 34.3521348640975 66.3510442659664 0.0
   endloop
endfacet
facet normal 0.130526192220071 0.991444861373808 -0.0
   outer loop
      vertex 34.7921272407718 66.2931181706578 0.0
      vertex 34.3521348640975 66.3510442659664 1.8
      vertex 34.7921272407718 66.2931181706578 1.8
   endloop
endfacet
facet normal 0.382683432365061 0.923879532511299 -0.0
   outer loop
      vertex 54.3421272407719 66.5208749842243 1.80000000000001
      vertex 54.7521348640976 66.3510442659664 0.0
      vertex 54.3421272407719 66.5208749842243 0.0
   endloop
endfacet
facet normal 0.382683432365061 0.923879532511299 -0.0
   outer loop
      vertex 54.7521348640976 66.3510442659664 0.0
      vertex 54.3421272407719 66.5208749842243 1.80000000000001
      vertex 54.7521348640976 66.3510442659664 1.80000000000001
   endloop
endfacet
facet normal -0.793353340291227 0.608761429008731 0.0
   outer loop
      vertex 56.6643704272054 67.1431181706578 1.80000000000001
      vertex 56.394208768789 66.7910366426407 0.0
      vertex 56.394208768789 66.7910366426407 1.80000000000001
   endloop
endfacet
facet normal -0.793353340291227 0.608761429008731 0.0
   outer loop
      vertex 56.394208768789 66.7910366426407 0.0
      vertex 56.6643704272054 67.1431181706578 1.80000000000001
      vertex 56.6643704272054 67.1431181706578 0.0
   endloop
endfacet
facet normal -0.923879532511255 -0.382683432365166 0.0
   outer loop
      vertex 56.6643704272054 68.8431181706578 1.80000000000001
      vertex 56.8342011454633 68.4331105473321 0.0
      vertex 56.8342011454633 68.4331105473321 1.80000000000001
   endloop
endfacet
facet normal -0.923879532511255 -0.382683432365166 0.0
   outer loop
      vertex 56.8342011454633 68.4331105473321 0.0
      vertex 56.6643704272054 68.8431181706578 1.80000000000001
      vertex 56.6643704272054 68.8431181706578 0.0
   endloop
endfacet
facet normal -0.793353340291265 -0.608761429008682 0.0
   outer loop
      vertex 56.394208768789 69.1951996986749 1.80000000000001
      vertex 56.6643704272054 68.8431181706578 0.0
      vertex 56.6643704272054 68.8431181706578 1.80000000000001
   endloop
endfacet
facet normal -0.793353340291265 -0.608761429008682 0.0
   outer loop
      vertex 56.6643704272054 68.8431181706578 0.0
      vertex 56.394208768789 69.1951996986749 1.80000000000001
      vertex 56.394208768789 69.1951996986749 0.0
   endloop
endfacet
facet normal 0.793353340291227 0.608761429008731 -0.0
   outer loop
      vertex 33.3198840543383 67.1431181706578 0.0
      vertex 33.5900457127547 66.7910366426407 1.8
      vertex 33.5900457127547 66.7910366426407 0.0
   endloop
endfacet
facet normal 0.793353340291227 0.608761429008731 -0.0
   outer loop
      vertex 33.5900457127547 66.7910366426407 1.8
      vertex 33.3198840543383 67.1431181706578 0.0
      vertex 33.3198840543383 67.1431181706578 1.8
   endloop
endfacet
facet normal 0.130526192220085 -0.991444861373806 0.0
   outer loop
      vertex 55.1921272407719 69.6931181706578 1.80000000000001
      vertex 54.7521348640976 69.6351920753492 0.0
      vertex 55.1921272407719 69.6931181706578 0.0
   endloop
endfacet
facet normal 0.130526192220085 -0.991444861373806 0.0
   outer loop
      vertex 54.7521348640976 69.6351920753492 0.0
      vertex 55.1921272407719 69.6931181706578 1.80000000000001
      vertex 54.7521348640976 69.6351920753492 1.80000000000001
   endloop
endfacet
facet normal 0.793353340291216 -0.608761429008746 -0.0
   outer loop
      vertex 53.9900457127548 69.1951996986749 0.0
      vertex 53.7198840543383 68.8431181706578 1.80000000000001
      vertex 53.7198840543383 68.8431181706578 0.0
   endloop
endfacet
facet normal 0.793353340291216 -0.608761429008746 -0.0
   outer loop
      vertex 53.7198840543383 68.8431181706578 1.80000000000001
      vertex 53.9900457127548 69.1951996986749 0.0
      vertex 53.9900457127548 69.1951996986749 1.80000000000001
   endloop
endfacet
facet normal 0.382683432365061 0.923879532511299 -0.0
   outer loop
      vertex 33.9421272407718 66.5208749842243 1.8
      vertex 34.3521348640975 66.3510442659664 0.0
      vertex 33.9421272407718 66.5208749842243 0.0
   endloop
endfacet
facet normal 0.382683432365061 0.923879532511299 -0.0
   outer loop
      vertex 34.3521348640975 66.3510442659664 0.0
      vertex 33.9421272407718 66.5208749842243 1.8
      vertex 34.3521348640975 66.3510442659664 1.8
   endloop
endfacet
facet normal 0.38268343236502 -0.923879532511316 0.0
   outer loop
      vertex 43.77567772879 79.2829695542162 5.0
      vertex 42.6421272407718 78.8134375684445 5.07593966858622e-014
      vertex 43.77567772879 79.2829695542162 5.07593966858622e-014
   endloop
endfacet
facet normal 0.38268343236502 -0.923879532511316 0.0
   outer loop
      vertex 42.6421272407718 78.8134375684445 5.07593966858622e-014
      vertex 43.77567772879 79.2829695542162 5.0
      vertex 42.6421272407718 78.8134375684445 5.0
   endloop
endfacet
facet normal -0.0 -0.0 1.0
   outer loop
      vertex 31.7921272407718 47.4931181706578 5.0
      vertex 41.6687253691951 57.919716299081 5.0
      vertex 31.7921272407718 66.2251689782266 5.0
   endloop
endfacet
facet normal -0.0 -0.0 1.0
   outer loop
      vertex 41.6687253691951 57.919716299081 5.0
      vertex 31.7921272407718 47.4931181706578 5.0
      vertex 42.6421272407718 57.172798772871 5.0
   endloop
endfacet
facet normal -0.0 -0.0 1.0
   outer loop
      vertex 42.6421272407718 57.172798772871 5.0
      vertex 31.7921272407718 47.4931181706578 5.0
      vertex 58.1921272407719 47.4931181706577 5.0
   endloop
endfacet
facet normal -0.0 -0.0 1.0
   outer loop
      vertex 31.7921272407718 66.2251689782266 5.0
      vertex 41.6687253691951 57.919716299081 5.0
      vertex 34.7921272407719 64.4931181706578 5.0
   endloop
endfacet
facet normal -0.0 -0.0 1.0
   outer loop
      vertex 34.7921272407719 64.4931181706578 5.0
      vertex 41.6687253691951 57.919716299081 5.0
      vertex 40.921807842985 58.8931181706578 5.0
   endloop
endfacet
facet normal -0.0 -0.0 1.0
   outer loop
      vertex 34.7921272407719 64.4931181706578 5.0
      vertex 40.921807842985 58.8931181706578 5.0
      vertex 37.8232161540174 66.2431181706578 5.0
   endloop
endfacet
facet normal -0.0 -0.0 1.0
   outer loop
      vertex 37.8232161540174 66.2431181706578 5.0
      vertex 40.921807842985 58.8931181706578 5.0
      vertex 40.4522758572133 60.026668658676 5.0
   endloop
endfacet
facet normal -0.0 -0.0 1.0
   outer loop
      vertex 37.8232161540174 66.2431181706578 5.0
      vertex 40.4522758572133 60.026668658676 5.0
      vertex 37.8232161540174 69.7431181706578 5.0
   endloop
endfacet
facet normal -0.0 -0.0 1.0
   outer loop
      vertex 37.8232161540174 69.7431181706578 5.0
      vertex 40.4522758572133 60.026668658676 5.0
      vertex 40.2921272407719 61.2431181706578 5.0
   endloop
endfacet
facet normal -0.0 -0.0 1.0
   outer loop
      vertex 37.8232161540174 69.7431181706578 5.0
      vertex 40.2921272407719 61.2431181706578 5.0
      vertex 40.2921272407719 74.7431181706577 5.0
   endloop
endfacet
facet normal -0.0 -0.0 1.0
   outer loop
      vertex 42.6421272407718 57.172798772871 5.0
      vertex 58.1921272407719 47.4931181706577 5.0
      vertex 43.7756777287899 56.7032667870992 5.0
   endloop
endfacet
facet normal -0.0 -0.0 1.0
   outer loop
      vertex 43.7756777287899 56.7032667870992 5.0
      vertex 58.1921272407719 47.4931181706577 5.0
      vertex 44.9921272407719 56.5431181706579 5.0
   endloop
endfacet
facet normal -0.0 -0.0 1.0
   outer loop
      vertex 44.9921272407719 56.5431181706579 5.0
      vertex 58.1921272407719 47.4931181706577 5.0
      vertex 46.2085767527538 56.7032667870992 5.0
   endloop
endfacet
facet normal -0.0 -0.0 1.0
   outer loop
      vertex 46.2085767527538 56.7032667870992 5.0
      vertex 58.1921272407719 47.4931181706577 5.0
      vertex 47.3421272407719 57.172798772871 5.0
   endloop
endfacet
facet normal -0.0 -0.0 1.0
   outer loop
      vertex 47.3421272407719 57.172798772871 5.0
      vertex 58.1921272407719 47.4931181706577 5.0
      vertex 48.3155291123486 57.919716299081 5.0
   endloop
endfacet
facet normal -0.0 -0.0 1.0
   outer loop
      vertex 48.3155291123486 57.919716299081 5.0
      vertex 58.1921272407719 47.4931181706577 5.0
      vertex 49.0624466385587 58.8931181706578 5.0
   endloop
endfacet
facet normal -0.0 -0.0 1.0
   outer loop
      vertex 49.0624466385587 58.8931181706578 5.0
      vertex 58.1921272407719 47.4931181706577 5.0
      vertex 49.5319786243305 60.0266686586759 5.0
   endloop
endfacet
facet normal -0.0 -0.0 1.0
   outer loop
      vertex 49.5319786243305 60.0266686586759 5.0
      vertex 58.1921272407719 47.4931181706577 5.0
      vertex 49.6921272407719 61.2431181706578 5.0
   endloop
endfacet
facet normal -0.0 -0.0 1.0
   outer loop
      vertex 49.6921272407719 61.2431181706578 5.0
      vertex 58.1921272407719 47.4931181706577 5.0
      vertex 52.1610383275263 66.2431181706578 5.0
   endloop
endfacet
facet normal -0.0 -0.0 1.0
   outer loop
      vertex 52.1610383275263 66.2431181706578 5.0
      vertex 58.1921272407719 47.4931181706577 5.0
      vertex 55.1921272407719 64.4931181706578 5.0
   endloop
endfacet
facet normal -0.0 -0.0 1.0
   outer loop
      vertex 55.1921272407719 64.4931181706578 5.0
      vertex 58.1921272407719 47.4931181706577 5.0
      vertex 58.1921272407719 66.2251689782266 5.0
   endloop
endfacet
facet normal -0.0 -0.0 1.0
   outer loop
      vertex 31.7921272407718 88.4931181706577 5.0
      vertex 42.6421272407718 78.8134375684445 5.0
      vertex 58.192127240772 88.4931181706578 5.0
   endloop
endfacet
facet normal -0.0 -0.0 1.0
   outer loop
      vertex 42.6421272407718 78.8134375684445 5.0
      vertex 31.7921272407718 88.4931181706577 5.0
      vertex 41.6687253691951 78.0665200422344 5.0
   endloop
endfacet
facet normal -0.0 -0.0 1.0
   outer loop
      vertex 41.6687253691951 78.0665200422344 5.0
      vertex 31.7921272407718 88.4931181706577 5.0
      vertex 31.7921272407719 69.7610673630889 5.0
   endloop
endfacet
facet normal -0.0 -0.0 1.0
   outer loop
      vertex 41.6687253691951 78.0665200422344 5.0
      vertex 31.7921272407719 69.7610673630889 5.0
      vertex 34.7921272407718 71.4931181706578 5.0
   endloop
endfacet
facet normal -0.0 -0.0 1.0
   outer loop
      vertex 41.6687253691951 78.0665200422344 5.0
      vertex 34.7921272407718 71.4931181706578 5.0
      vertex 40.9218078429849 77.0931181706576 5.0
   endloop
endfacet
facet normal -0.0 -0.0 1.0
   outer loop
      vertex 40.9218078429849 77.0931181706576 5.0
      vertex 34.7921272407718 71.4931181706578 5.0
      vertex 37.8232161540174 69.7431181706578 5.0
   endloop
endfacet
facet normal -0.0 -0.0 1.0
   outer loop
      vertex 40.9218078429849 77.0931181706576 5.0
      vertex 37.8232161540174 69.7431181706578 5.0
      vertex 40.4522758572132 75.9595676826395 5.0
   endloop
endfacet
facet normal -0.0 -0.0 1.0
   outer loop
      vertex 40.4522758572132 75.9595676826395 5.0
      vertex 37.8232161540174 69.7431181706578 5.0
      vertex 40.2921272407719 74.7431181706577 5.0
   endloop
endfacet
facet normal -0.0 -0.0 1.0
   outer loop
      vertex 58.192127240772 88.4931181706578 5.0
      vertex 42.6421272407718 78.8134375684445 5.0
      vertex 43.77567772879 79.2829695542162 5.0
   endloop
endfacet
facet normal -0.0 -0.0 1.0
   outer loop
      vertex 58.192127240772 88.4931181706578 5.0
      vertex 43.77567772879 79.2829695542162 5.0
      vertex 44.9921272407719 79.4431181706577 5.0
   endloop
endfacet
facet normal -0.0 -0.0 1.0
   outer loop
      vertex 58.192127240772 88.4931181706578 5.0
      vertex 44.9921272407719 79.4431181706577 5.0
      vertex 46.2085767527538 79.2829695542162 5.0
   endloop
endfacet
facet normal -0.0 -0.0 1.0
   outer loop
      vertex 58.192127240772 88.4931181706578 5.0
      vertex 46.2085767527538 79.2829695542162 5.0
      vertex 47.3421272407718 78.8134375684445 5.0
   endloop
endfacet
facet normal -0.0 -0.0 1.0
   outer loop
      vertex 58.192127240772 88.4931181706578 5.0
      vertex 47.3421272407718 78.8134375684445 5.0
      vertex 48.3155291123486 78.0665200422345 5.0
   endloop
endfacet
facet normal -0.0 -0.0 1.0
   outer loop
      vertex 58.192127240772 88.4931181706578 5.0
      vertex 48.3155291123486 78.0665200422345 5.0
      vertex 49.0624466385588 77.0931181706577 5.0
   endloop
endfacet
facet normal -0.0 -0.0 1.0
   outer loop
      vertex 58.192127240772 88.4931181706578 5.0
      vertex 49.0624466385588 77.0931181706577 5.0
      vertex 49.5319786243305 75.9595676826395 5.0
   endloop
endfacet
facet normal -0.0 -0.0 1.0
   outer loop
      vertex 58.192127240772 88.4931181706578 5.0
      vertex 49.5319786243305 75.9595676826395 5.0
      vertex 49.6921272407719 74.7431181706578 5.0
   endloop
endfacet
facet normal -0.0 -0.0 1.0
   outer loop
      vertex 58.192127240772 88.4931181706578 5.0
      vertex 49.6921272407719 74.7431181706578 5.0
      vertex 52.1610383275263 69.7431181706578 5.0
   endloop
endfacet
facet normal -0.0 -0.0 1.0
   outer loop
      vertex 52.1610383275263 69.7431181706578 5.0
      vertex 49.6921272407719 74.7431181706578 5.0
      vertex 49.6921272407719 61.2431181706578 5.0
   endloop
endfacet
facet normal -0.0 -0.0 1.0
   outer loop
      vertex 52.1610383275263 69.7431181706578 5.0
      vertex 49.6921272407719 61.2431181706578 5.0
      vertex 52.1610383275263 66.2431181706578 5.0
   endloop
endfacet
facet normal -0.0 -0.0 1.0
   outer loop
      vertex 58.192127240772 88.4931181706578 5.0
      vertex 52.1610383275263 69.7431181706578 5.0
      vertex 55.1921272407719 71.4931181706578 5.0
   endloop
endfacet
facet normal -0.0 -0.0 1.0
   outer loop
      vertex 58.192127240772 88.4931181706578 5.0
      vertex 55.1921272407719 71.4931181706578 5.0
      vertex 58.192127240772 69.761067363089 5.0
   endloop
endfacet
facet normal 0.923879532511281 0.382683432365105 -0.0
   outer loop
      vertex 33.1500533360804 67.5531257939835 0.0
      vertex 33.3198840543383 67.1431181706578 1.8
      vertex 33.3198840543383 67.1431181706578 0.0
   endloop
endfacet
facet normal 0.923879532511281 0.382683432365105 -0.0
   outer loop
      vertex 33.3198840543383 67.1431181706578 1.8
      vertex 33.1500533360804 67.5531257939835 0.0
      vertex 33.1500533360804 67.5531257939835 1.8
   endloop
endfacet
facet normal -0.130526192220089 -0.991444861373806 0.0
   outer loop
      vertex 46.2085767527538 79.2829695542162 5.0
      vertex 44.9921272407719 79.4431181706577 5.07593966858622e-014
      vertex 46.2085767527538 79.2829695542162 5.07593966858622e-014
   endloop
endfacet
facet normal -0.130526192220089 -0.991444861373806 0.0
   outer loop
      vertex 44.9921272407719 79.4431181706577 5.07593966858622e-014
      vertex 46.2085767527538 79.2829695542162 5.0
      vertex 44.9921272407719 79.4431181706577 5.0
   endloop
endfacet
facet normal 0.130526192220085 0.991444861373806 -0.0
   outer loop
      vertex 54.7521348640976 66.3510442659664 1.80000000000001
      vertex 55.1921272407719 66.2931181706578 0.0
      vertex 54.7521348640976 66.3510442659664 0.0
   endloop
endfacet
facet normal 0.130526192220085 0.991444861373806 -0.0
   outer loop
      vertex 55.1921272407719 66.2931181706578 0.0
      vertex 54.7521348640976 66.3510442659664 1.80000000000001
      vertex 55.1921272407719 66.2931181706578 1.80000000000001
   endloop
endfacet
facet normal 1.0 3.34218249783458e-015 -0.0
   outer loop
      vertex 40.2921272407719 74.7431181706577 5.07593966858622e-014
      vertex 40.2921272407719 61.2431181706578 5.0
      vertex 40.2921272407719 61.2431181706578 5.07593966858622e-014
   endloop
endfacet
facet normal 1.0 3.34218249783458e-015 -0.0
   outer loop
      vertex 40.2921272407719 61.2431181706578 5.0
      vertex 40.2921272407719 74.7431181706577 5.07593966858622e-014
      vertex 40.2921272407719 74.7431181706577 5.0
   endloop
endfacet
facet normal 0.923879532511303 -0.382683432365052 -0.0
   outer loop
      vertex 40.9218078429849 77.0931181706576 5.07593966858622e-014
      vertex 40.4522758572132 75.9595676826395 5.0
      vertex 40.4522758572132 75.9595676826395 5.07593966858622e-014
   endloop
endfacet
facet normal 0.923879532511303 -0.382683432365052 -0.0
   outer loop
      vertex 40.4522758572132 75.9595676826395 5.0
      vertex 40.9218078429849 77.0931181706576 5.07593966858622e-014
      vertex 40.9218078429849 77.0931181706576 5.0
   endloop
endfacet
facet normal -0.991444861373812 -0.130526192220042 0.0
   outer loop
      vertex 49.5319786243305 75.9595676826395 5.0
      vertex 49.6921272407719 74.7431181706578 5.07593966858622e-014
      vertex 49.6921272407719 74.7431181706578 5.0
   endloop
endfacet
facet normal -0.991444861373812 -0.130526192220042 0.0
   outer loop
      vertex 49.6921272407719 74.7431181706578 5.07593966858622e-014
      vertex 49.5319786243305 75.9595676826395 5.0
      vertex 49.5319786243305 75.9595676826395 5.07593966858622e-014
   endloop
endfacet
facet normal -1.0 -3.34218249783456e-015 0.0
   outer loop
      vertex 49.6921272407719 74.7431181706578 5.0
      vertex 49.6921272407719 61.2431181706578 5.07593966858622e-014
      vertex 49.6921272407719 61.2431181706578 5.0
   endloop
endfacet
facet normal -1.0 -3.34218249783456e-015 0.0
   outer loop
      vertex 49.6921272407719 61.2431181706578 5.07593966858622e-014
      vertex 49.6921272407719 74.7431181706578 5.0
      vertex 49.6921272407719 74.7431181706578 5.07593966858622e-014
   endloop
endfacet
facet normal 0.130526192220122 -0.991444861373801 0.0
   outer loop
      vertex 44.9921272407719 79.4431181706577 5.0
      vertex 43.77567772879 79.2829695542162 5.07593966858622e-014
      vertex 44.9921272407719 79.4431181706577 5.07593966858622e-014
   endloop
endfacet
facet normal 0.130526192220122 -0.991444861373801 0.0
   outer loop
      vertex 43.77567772879 79.2829695542162 5.07593966858622e-014
      vertex 44.9921272407719 79.4431181706577 5.0
      vertex 43.77567772879 79.2829695542162 5.0
   endloop
endfacet
facet normal 0.991444861373814 0.130526192220021 -0.0
   outer loop
      vertex 40.2921272407719 61.2431181706578 5.07593966858622e-014
      vertex 40.4522758572133 60.026668658676 5.0
      vertex 40.4522758572133 60.026668658676 5.07593966858622e-014
   endloop
endfacet
facet normal 0.991444861373814 0.130526192220021 -0.0
   outer loop
      vertex 40.4522758572133 60.026668658676 5.0
      vertex 40.2921272407719 61.2431181706578 5.07593966858622e-014
      vertex 40.2921272407719 61.2431181706578 5.0
   endloop
endfacet
facet normal -0.608761429008731 -0.793353340291227 0.0
   outer loop
      vertex 56.394208768789 69.1951996986749 1.80000000000001
      vertex 56.0421272407719 69.4653613570913 0.0
      vertex 56.394208768789 69.1951996986749 0.0
   endloop
endfacet
facet normal -0.608761429008731 -0.793353340291227 0.0
   outer loop
      vertex 56.0421272407719 69.4653613570913 0.0
      vertex 56.394208768789 69.1951996986749 1.80000000000001
      vertex 56.0421272407719 69.4653613570913 1.80000000000001
   endloop
endfacet
facet normal -0.499999999999995 0.866025403784441 -0.0
   outer loop
      vertex 34.7921272407719 64.4931181706578 5.0
      vertex 37.8232161540174 66.2431181706578 1.8
      vertex 34.7921272407719 64.4931181706578 1.8
   endloop
endfacet
facet normal -0.499999999999995 0.866025403784441 -0.0
   outer loop
      vertex 37.8232161540174 66.2431181706578 1.8
      vertex 34.7921272407719 64.4931181706578 5.0
      vertex 37.8232161540174 66.2431181706578 5.0
   endloop
endfacet
facet normal 0.923879532511284 0.382683432365096 -0.0
   outer loop
      vertex 40.4522758572133 60.026668658676 5.07593966858622e-014
      vertex 40.921807842985 58.8931181706578 5.0
      vertex 40.921807842985 58.8931181706578 5.07593966858622e-014
   endloop
endfacet
facet normal 0.923879532511284 0.382683432365096 -0.0
   outer loop
      vertex 40.921807842985 58.8931181706578 5.0
      vertex 40.4522758572133 60.026668658676 5.07593966858622e-014
      vertex 40.4522758572133 60.026668658676 5.0
   endloop
endfacet
facet normal -1.70907059548357e-015 -1.0 0.0
   outer loop
      vertex 58.1921272407719 47.4931181706577 5.0
      vertex 31.7921272407718 47.4931181706578 2.50463337407671e-030
      vertex 58.1921272407719 47.4931181706577 -8.01482679704548e-029
   endloop
endfacet
facet normal -1.70907059548357e-015 -1.0 0.0
   outer loop
      vertex 31.7921272407718 47.4931181706578 2.50463337407671e-030
      vertex 58.1921272407719 47.4931181706577 5.0
      vertex 31.7921272407718 47.4931181706578 5.0
   endloop
endfacet
facet normal 0.499999999999996 -0.866025403784441 0.0
   outer loop
      vertex 55.1921272407719 71.4931181706578 5.0
      vertex 52.1610383275263 69.7431181706578 1.8
      vertex 55.1921272407719 71.4931181706578 1.8
   endloop
endfacet
facet normal 0.499999999999996 -0.866025403784441 0.0
   outer loop
      vertex 52.1610383275263 69.7431181706578 1.8
      vertex 55.1921272407719 71.4931181706578 5.0
      vertex 52.1610383275263 69.7431181706578 5.0
   endloop
endfacet
facet normal 0.608761429008737 -0.793353340291223 0.0
   outer loop
      vertex 42.6421272407718 78.8134375684445 5.0
      vertex 41.6687253691951 78.0665200422344 5.07593966858622e-014
      vertex 42.6421272407718 78.8134375684445 5.07593966858622e-014
   endloop
endfacet
facet normal 0.608761429008737 -0.793353340291223 0.0
   outer loop
      vertex 41.6687253691951 78.0665200422344 5.07593966858622e-014
      vertex 42.6421272407718 78.8134375684445 5.0
      vertex 41.6687253691951 78.0665200422344 5.0
   endloop
endfacet
facet normal -0.0 -0.0 1.0
   outer loop
      vertex 34.7921272407719 64.4931181706578 1.8
      vertex 31.7921272407719 69.7610673630889 1.8
      vertex 31.7921272407718 66.2251689782266 1.8
   endloop
endfacet
facet normal -0.0 -0.0 1.0
   outer loop
      vertex 31.7921272407719 69.7610673630889 1.8
      vertex 34.7921272407719 64.4931181706578 1.8
      vertex 33.3198840543383 67.1431181706578 1.8
   endloop
endfacet
facet normal -0.0 -0.0 1.0
   outer loop
      vertex 31.7921272407719 69.7610673630889 1.8
      vertex 33.3198840543383 67.1431181706578 1.8
      vertex 33.1500533360804 67.5531257939835 1.8
   endloop
endfacet
facet normal -0.0 -0.0 1.0
   outer loop
      vertex 31.7921272407719 69.7610673630889 1.8
      vertex 33.1500533360804 67.5531257939835 1.8
      vertex 33.0921272407718 67.9931181706578 1.8
   endloop
endfacet
facet normal -0.0 -0.0 1.0
   outer loop
      vertex 33.3198840543383 67.1431181706578 1.8
      vertex 34.7921272407719 64.4931181706578 1.8
      vertex 33.5900457127547 66.7910366426407 1.8
   endloop
endfacet
facet normal -0.0 -0.0 1.0
   outer loop
      vertex 33.5900457127547 66.7910366426407 1.8
      vertex 34.7921272407719 64.4931181706578 1.8
      vertex 33.9421272407718 66.5208749842243 1.8
   endloop
endfacet
facet normal -0.0 -0.0 1.0
   outer loop
      vertex 33.9421272407718 66.5208749842243 1.8
      vertex 34.7921272407719 64.4931181706578 1.8
      vertex 34.3521348640975 66.3510442659664 1.8
   endloop
endfacet
facet normal -0.0 -0.0 1.0
   outer loop
      vertex 34.3521348640975 66.3510442659664 1.8
      vertex 34.7921272407719 64.4931181706578 1.8
      vertex 34.7921272407718 66.2931181706578 1.8
   endloop
endfacet
facet normal -0.0 -0.0 1.0
   outer loop
      vertex 34.7921272407718 66.2931181706578 1.8
      vertex 34.7921272407719 64.4931181706578 1.8
      vertex 35.2321196174461 66.3510442659664 1.8
   endloop
endfacet
facet normal -0.0 -0.0 1.0
   outer loop
      vertex 35.2321196174461 66.3510442659664 1.8
      vertex 34.7921272407719 64.4931181706578 1.8
      vertex 37.8232161540174 66.2431181706578 1.8
   endloop
endfacet
facet normal -0.0 -0.0 1.0
   outer loop
      vertex 35.2321196174461 66.3510442659664 1.8
      vertex 37.8232161540174 66.2431181706578 1.8
      vertex 35.6421272407718 66.5208749842243 1.8
   endloop
endfacet
facet normal -0.0 -0.0 1.0
   outer loop
      vertex 35.6421272407718 66.5208749842243 1.8
      vertex 37.8232161540174 66.2431181706578 1.8
      vertex 35.994208768789 66.7910366426407 1.8
   endloop
endfacet
facet normal -0.0 -0.0 1.0
   outer loop
      vertex 35.994208768789 66.7910366426407 1.8
      vertex 37.8232161540174 66.2431181706578 1.8
      vertex 36.2643704272054 67.1431181706578 1.8
   endloop
endfacet
facet normal -0.0 -0.0 1.0
   outer loop
      vertex 36.2643704272054 67.1431181706578 1.8
      vertex 37.8232161540174 66.2431181706578 1.8
      vertex 36.4342011454632 67.5531257939835 1.8
   endloop
endfacet
facet normal -0.0 -0.0 1.0
   outer loop
      vertex 36.4342011454632 67.5531257939835 1.8
      vertex 37.8232161540174 66.2431181706578 1.8
      vertex 36.4921272407718 67.9931181706578 1.8
   endloop
endfacet
facet normal -0.0 -0.0 1.0
   outer loop
      vertex 31.7921272407719 69.7610673630889 1.8
      vertex 33.3198840543383 68.8431181706578 1.8
      vertex 34.7921272407718 71.4931181706578 1.8
   endloop
endfacet
facet normal -0.0 -0.0 1.0
   outer loop
      vertex 33.3198840543383 68.8431181706578 1.8
      vertex 31.7921272407719 69.7610673630889 1.8
      vertex 33.1500533360804 68.4331105473321 1.8
   endloop
endfacet
facet normal -0.0 -0.0 1.0
   outer loop
      vertex 33.1500533360804 68.4331105473321 1.8
      vertex 31.7921272407719 69.7610673630889 1.8
      vertex 33.0921272407718 67.9931181706578 1.8
   endloop
endfacet
facet normal -0.0 -0.0 1.0
   outer loop
      vertex 34.7921272407718 71.4931181706578 1.8
      vertex 33.3198840543383 68.8431181706578 1.8
      vertex 33.5900457127547 69.1951996986749 1.8
   endloop
endfacet
facet normal -0.0 -0.0 1.0
   outer loop
      vertex 34.7921272407718 71.4931181706578 1.8
      vertex 33.5900457127547 69.1951996986749 1.8
      vertex 33.9421272407718 69.4653613570913 1.8
   endloop
endfacet
facet normal -0.0 -0.0 1.0
   outer loop
      vertex 34.7921272407718 71.4931181706578 1.8
      vertex 33.9421272407718 69.4653613570913 1.8
      vertex 34.3521348640975 69.6351920753492 1.8
   endloop
endfacet
facet normal -0.0 -0.0 1.0
   outer loop
      vertex 34.7921272407718 71.4931181706578 1.8
      vertex 34.3521348640975 69.6351920753492 1.8
      vertex 34.7921272407718 69.6931181706578 1.8
   endloop
endfacet
facet normal -0.0 -0.0 1.0
   outer loop
      vertex 34.7921272407718 71.4931181706578 1.8
      vertex 34.7921272407718 69.6931181706578 1.8
      vertex 37.8232161540174 69.7431181706578 1.8
   endloop
endfacet
facet normal -0.0 -0.0 1.0
   outer loop
      vertex 37.8232161540174 69.7431181706578 1.8
      vertex 34.7921272407718 69.6931181706578 1.8
      vertex 35.2321196174461 69.6351920753492 1.8
   endloop
endfacet
facet normal -0.0 -0.0 1.0
   outer loop
      vertex 37.8232161540174 69.7431181706578 1.8
      vertex 35.2321196174461 69.6351920753492 1.8
      vertex 35.6421272407718 69.4653613570913 1.8
   endloop
endfacet
facet normal -0.0 -0.0 1.0
   outer loop
      vertex 37.8232161540174 69.7431181706578 1.8
      vertex 35.6421272407718 69.4653613570913 1.8
      vertex 35.994208768789 69.1951996986749 1.8
   endloop
endfacet
facet normal -0.0 -0.0 1.0
   outer loop
      vertex 37.8232161540174 69.7431181706578 1.8
      vertex 35.994208768789 69.1951996986749 1.8
      vertex 36.2643704272054 68.8431181706578 1.8
   endloop
endfacet
facet normal -0.0 -0.0 1.0
   outer loop
      vertex 37.8232161540174 69.7431181706578 1.8
      vertex 36.2643704272054 68.8431181706578 1.8
      vertex 36.4342011454632 68.4331105473321 1.8
   endloop
endfacet
facet normal -0.0 -0.0 1.0
   outer loop
      vertex 37.8232161540174 69.7431181706578 1.8
      vertex 36.4342011454632 68.4331105473321 1.8
      vertex 36.4921272407718 67.9931181706578 1.8
   endloop
endfacet
facet normal -0.0 -0.0 1.0
   outer loop
      vertex 37.8232161540174 69.7431181706578 1.8
      vertex 36.4921272407718 67.9931181706578 1.8
      vertex 37.8232161540174 66.2431181706578 1.8
   endloop
endfacet
facet normal -0.0 -0.0 1.0
   outer loop
      vertex 31.7921272407718 62.2951689782266 1.8
      vertex 30.7921272407718 69.6931181706578 1.8
      vertex 30.7921272407718 66.2931181706578 1.8
   endloop
endfacet
facet normal -0.0 -0.0 1.0
   outer loop
      vertex 30.7921272407718 69.6931181706578 1.8
      vertex 31.7921272407718 62.2951689782266 1.8
      vertex 31.7921272407718 66.2251689782266 1.8
   endloop
endfacet
facet normal -0.0 -0.0 1.0
   outer loop
      vertex 30.7921272407718 69.6931181706578 1.8
      vertex 31.7921272407718 66.2251689782266 1.8
      vertex 31.7921272407719 73.6910673630889 1.8
   endloop
endfacet
facet normal -0.0 -0.0 1.0
   outer loop
      vertex 31.7921272407719 73.6910673630889 1.8
      vertex 31.7921272407718 66.2251689782266 1.8
      vertex 31.7921272407719 69.7610673630889 1.8
   endloop
endfacet
facet normal -0.923879532511289 0.382683432365086 0.0
   outer loop
      vertex 49.5319786243305 60.0266686586759 5.0
      vertex 49.0624466385587 58.8931181706578 5.07593966858622e-014
      vertex 49.0624466385587 58.8931181706578 5.0
   endloop
endfacet
facet normal -0.923879532511289 0.382683432365086 0.0
   outer loop
      vertex 49.0624466385587 58.8931181706578 5.07593966858622e-014
      vertex 49.5319786243305 60.0266686586759 5.0
      vertex 49.5319786243305 60.0266686586759 5.07593966858622e-014
   endloop
endfacet
facet normal -0.793353340291226 -0.608761429008733 0.0
   outer loop
      vertex 48.3155291123486 78.0665200422345 5.0
      vertex 49.0624466385588 77.0931181706577 5.07593966858622e-014
      vertex 49.0624466385588 77.0931181706577 5.0
   endloop
endfacet
facet normal -0.793353340291226 -0.608761429008733 0.0
   outer loop
      vertex 49.0624466385588 77.0931181706577 5.07593966858622e-014
      vertex 48.3155291123486 78.0665200422345 5.0
      vertex 48.3155291123486 78.0665200422345 5.07593966858622e-014
   endloop
endfacet
facet normal 0.608761429008763 0.793353340291203 -0.0
   outer loop
      vertex 33.5900457127547 66.7910366426407 1.8
      vertex 33.9421272407718 66.5208749842243 0.0
      vertex 33.5900457127547 66.7910366426407 0.0
   endloop
endfacet
facet normal 0.608761429008763 0.793353340291203 -0.0
   outer loop
      vertex 33.9421272407718 66.5208749842243 0.0
      vertex 33.5900457127547 66.7910366426407 1.8
      vertex 33.9421272407718 66.5208749842243 1.8
   endloop
endfacet
facet normal 0.991444861373814 0.130526192220028 -0.0
   outer loop
      vertex 53.4921272407719 67.9931181706578 0.0
      vertex 53.5500533360805 67.5531257939835 1.80000000000001
      vertex 53.5500533360805 67.5531257939835 0.0
   endloop
endfacet
facet normal 0.991444861373814 0.130526192220028 -0.0
   outer loop
      vertex 53.5500533360805 67.5531257939835 1.80000000000001
      vertex 53.4921272407719 67.9931181706578 0.0
      vertex 53.4921272407719 67.9931181706578 1.80000000000001
   endloop
endfacet
facet normal -0.130526192220071 0.991444861373808 -0.0
   outer loop
      vertex 34.7921272407718 66.2931181706578 1.8
      vertex 35.2321196174461 66.3510442659664 0.0
      vertex 34.7921272407718 66.2931181706578 0.0
   endloop
endfacet
facet normal -0.130526192220071 0.991444861373808 -0.0
   outer loop
      vertex 35.2321196174461 66.3510442659664 0.0
      vertex 34.7921272407718 66.2931181706578 1.8
      vertex 35.2321196174461 66.3510442659664 1.8
   endloop
endfacet
facet normal 0.793353340291265 -0.608761429008682 -0.0
   outer loop
      vertex 33.5900457127547 69.1951996986749 0.0
      vertex 33.3198840543383 68.8431181706578 1.8
      vertex 33.3198840543383 68.8431181706578 0.0
   endloop
endfacet
facet normal 0.793353340291265 -0.608761429008682 -0.0
   outer loop
      vertex 33.3198840543383 68.8431181706578 1.8
      vertex 33.5900457127547 69.1951996986749 0.0
      vertex 33.5900457127547 69.1951996986749 1.8
   endloop
endfacet
endsolid z-captive-nut-cradle-plus-pocket2
