solid Z-Pulley6bX2
facet normal 0.195620250468148 -0.980679722236969 -1.11286265826408e-018
   outer loop
      vertex 15.1271422515782 3.104288560445 1.33838023209872e-015
      vertex 13.6193498229796 2.80352295282785 7.0
      vertex 13.6193498229796 2.80352295282785 7.203492358851e-017
   endloop
endfacet
facet normal 0.195620250468148 -0.980679722236969 -1.11286265826408e-018
   outer loop
      vertex 13.6193498229796 2.80352295282785 7.0
      vertex 15.1271422515782 3.104288560445 1.33838023209872e-015
      vertex 15.1271422515782 3.104288560445 7.0
   endloop
endfacet
facet normal 0.996749946307603 -0.0805577093504434 -2.05622935912754e-018
   outer loop
      vertex 13.6193498229796 2.80352295282785 7.203492358851e-017
      vertex 13.3927680328046 0.0 7.0
      vertex 13.3927680328046 0.0 0.0
   endloop
endfacet
facet normal 0.996749946307603 -0.0805577093504434 -2.05622935912754e-018
   outer loop
      vertex 13.3927680328046 0.0 7.0
      vertex 13.6193498229796 2.80352295282785 7.203492358851e-017
      vertex 13.6193498229796 2.80352295282785 7.0
   endloop
endfacet
facet normal 0.890805971794118 0.454383891237286 -1.45071332837865e-018
   outer loop
      vertex 8.54496316466737 24.3523678753514 0.0
      vertex 9.8228551688305 21.8470989814284 7.0
      vertex 9.8228551688305 21.8470989814284 1.32976530402562e-015
   endloop
endfacet
facet normal 0.890805971794118 0.454383891237286 -1.45071332837865e-018
   outer loop
      vertex 9.8228551688305 21.8470989814284 7.0
      vertex 8.54496316466737 24.3523678753514 0.0
      vertex 8.54496316466737 24.3523678753514 7.0
   endloop
endfacet
facet normal -0.195728539062408 0.980658115245316 1.11306373253594e-018
   outer loop
      vertex 9.8228551688305 21.8470989814284 1.32976530402562e-015
      vertex 11.3326154654076 22.1484304776854 7.0
      vertex 11.3326154654076 22.1484304776854 4.47589080907358e-017
   endloop
endfacet
facet normal -0.195728539062408 0.980658115245316 1.11306373253594e-018
   outer loop
      vertex 11.3326154654076 22.1484304776854 7.0
      vertex 9.8228551688305 21.8470989814284 1.32976530402562e-015
      vertex 9.8228551688305 21.8470989814284 7.0
   endloop
endfacet
facet normal -0.996749946307603 0.0805577093504428 2.05622935912754e-018
   outer loop
      vertex 11.5591982982056 24.9519663310103 7.0
      vertex 11.3326154654076 22.1484304776854 4.47589080907358e-017
      vertex 11.3326154654076 22.1484304776854 7.0
   endloop
endfacet
facet normal -0.996749946307603 0.0805577093504428 2.05622935912754e-018
   outer loop
      vertex 11.3326154654076 22.1484304776854 4.47589080907358e-017
      vertex 11.5591982982056 24.9519663310103 7.0
      vertex 11.5591982982056 24.9519663310103 0.0
   endloop
endfacet
facet normal 0.0 1.0 7.35136620801708e-019
   outer loop
      vertex 11.5591982982056 24.9519663310103 7.0
      vertex 13.3927680328046 24.9519663310103 0.0
      vertex 11.5591982982056 24.9519663310103 0.0
   endloop
endfacet
facet normal 0.0 1.0 7.35136620801708e-019
   outer loop
      vertex 13.3927680328046 24.9519663310103 0.0
      vertex 11.5591982982056 24.9519663310103 7.0
      vertex 13.3927680328046 24.9519663310103 7.0
   endloop
endfacet
facet normal 0.996749946307603 0.0805577093504424 -1.93778751466472e-018
   outer loop
      vertex 13.3927680328046 24.9519663310103 0.0
      vertex 13.6193498229796 22.1484433781824 7.0
      vertex 13.6193498229796 22.1484433781824 4.15485631125329e-017
   endloop
endfacet
facet normal 0.996749946307603 0.0805577093504424 -1.93778751466472e-018
   outer loop
      vertex 13.6193498229796 22.1484433781824 7.0
      vertex 13.3927680328046 24.9519663310103 0.0
      vertex 13.3927680328046 24.9519663310103 7.0
   endloop
endfacet
facet normal 0.195620250468141 0.980679722236971 3.29004495924018e-019
   outer loop
      vertex 13.6193498229796 22.1484433781824 7.0
      vertex 15.1271422515782 21.8476777705653 1.32679186562555e-015
      vertex 13.6193498229796 22.1484433781824 4.15485631125329e-017
   endloop
endfacet
facet normal 0.195620250468141 0.980679722236971 3.29004495924018e-019
   outer loop
      vertex 15.1271422515782 21.8476777705653 1.32679186562555e-015
      vertex 13.6193498229796 22.1484433781824 7.0
      vertex 15.1271422515782 21.8476777705653 7.0
   endloop
endfacet
facet normal -0.890479921434308 0.455022537378479 2.11859804883478e-018
   outer loop
      vertex 16.4070031663429 24.3523678753514 7.0
      vertex 15.1271422515782 21.8476777705653 1.32679186562555e-015
      vertex 15.1271422515782 21.8476777705653 7.0
   endloop
endfacet
facet normal -0.890479921434308 0.455022537378479 2.11859804883478e-018
   outer loop
      vertex 15.1271422515782 21.8476777705653 1.32679186562555e-015
      vertex 16.4070031663429 24.3523678753514 7.0
      vertex 16.4070031663429 24.3523678753514 0.0
   endloop
endfacet
facet normal 0.382683432365088 0.923879532511287 -8.75362268914108e-020
   outer loop
      vertex 16.4070031663429 24.3523678753514 7.0
      vertex 18.0942044302453 23.65350622939 0.0
      vertex 16.4070031663429 24.3523678753514 0.0
   endloop
endfacet
facet normal 0.382683432365088 0.923879532511287 -8.75362268914108e-020
   outer loop
      vertex 18.0942044302453 23.65350622939 0.0
      vertex 16.4070031663429 24.3523678753514 7.0
      vertex 18.0942044302453 23.65350622939 7.0
   endloop
endfacet
facet normal 0.951087062774666 -0.308922966162534 -2.13262252262445e-018
   outer loop
      vertex 18.0942044302453 23.65350622939 0.0
      vertex 17.2254571092736 20.9788771849389 7.0
      vertex 17.2254571092736 20.9788771849389 1.04745787008588e-015
   endloop
endfacet
facet normal 0.951087062774666 -0.308922966162534 -2.13262252262445e-018
   outer loop
      vertex 17.2254571092736 20.9788771849389 7.0
      vertex 18.0942044302453 23.65350622939 0.0
      vertex 18.0942044302453 23.65350622939 7.0
   endloop
endfacet
facet normal 0.554985213783576 0.831860212103932 -5.00393061567127e-019
   outer loop
      vertex 17.2254571092736 20.9788771849389 1.04745787008588e-015
      vertex 18.5069484941821 20.123915305687 7.0
      vertex 18.5069484941821 20.123915305687 2.17451347706947e-016
   endloop
endfacet
facet normal 0.554985213783576 0.831860212103932 -5.00393061567127e-019
   outer loop
      vertex 18.5069484941821 20.123915305687 7.0
      vertex 17.2254571092736 20.9788771849389 1.04745787008588e-015
      vertex 17.2254571092736 20.9788771849389 7.0
   endloop
endfacet
facet normal -0.647845743622879 0.761771548739987 1.85797805633301e-018
   outer loop
      vertex 18.5069484941821 20.123915305687 2.17451347706947e-016
      vertex 20.6495706672464 21.9461002603597 7.0
      vertex 20.6495706672464 21.9461002603597 0.0
   endloop
endfacet
facet normal -0.647845743622879 0.761771548739987 1.85797805633301e-018
   outer loop
      vertex 20.6495706672464 21.9461002603597 7.0
      vertex 18.5069484941821 20.123915305687 2.17451347706947e-016
      vertex 18.5069484941821 20.123915305687 7.0
   endloop
endfacet
facet normal 0.707106781186545 0.70710678118655 -8.96882477558185e-019
   outer loop
      vertex 20.6495706672464 21.9461002603597 7.0
      vertex 21.9461002603597 20.6495706672464 0.0
      vertex 20.6495706672464 21.9461002603597 0.0
   endloop
endfacet
facet normal 0.707106781186545 0.70710678118655 -8.96882477558185e-019
   outer loop
      vertex 21.9461002603597 20.6495706672464 0.0
      vertex 20.6495706672464 21.9461002603597 7.0
      vertex 21.9461002603597 20.6495706672464 7.0
   endloop
endfacet
facet normal 0.761771548739986 -0.64784574362288 -2.00247965223029e-018
   outer loop
      vertex 21.9461002603597 20.6495706672464 0.0
      vertex 20.123919304746 18.5069531964887 7.0
      vertex 20.123919304746 18.5069531964887 3.05712170981871e-016
   endloop
endfacet
facet normal 0.761771548739986 -0.64784574362288 -2.00247965223029e-018
   outer loop
      vertex 20.123919304746 18.5069531964887 7.0
      vertex 21.9461002603597 20.6495706672464 0.0
      vertex 21.9461002603597 20.6495706672464 7.0
   endloop
endfacet
facet normal -0.308597012621277 0.951192874132909 1.31753699713955e-018
   outer loop
      vertex 20.9784075040335 17.2263179084244 1.19478071541798e-015
      vertex 23.65350622939 18.0942044302453 7.0
      vertex 23.65350622939 18.0942044302453 0.0
   endloop
endfacet
facet normal -0.308597012621277 0.951192874132909 1.31753699713955e-018
   outer loop
      vertex 23.65350622939 18.0942044302453 7.0
      vertex 20.9784075040335 17.2263179084244 1.19478071541798e-015
      vertex 20.9784075040335 17.2263179084244 7.0
   endloop
endfacet
facet normal 0.923879532511286 0.382683432365093 -1.56968650127663e-018
   outer loop
      vertex 23.65350622939 18.0942044302453 0.0
      vertex 24.3523678753514 16.4070031663429 7.0
      vertex 24.3523678753514 16.4070031663429 0.0
   endloop
endfacet
facet normal 0.923879532511286 0.382683432365093 -1.56968650127663e-018
   outer loop
      vertex 24.3523678753514 16.4070031663429 7.0
      vertex 23.65350622939 18.0942044302453 0.0
      vertex 23.65350622939 18.0942044302453 7.0
   endloop
endfacet
facet normal 0.831830980558344 0.555029026072821 -1.2585678305337e-018
   outer loop
      vertex 20.123919304746 18.5069531964887 3.05712170981871e-016
      vertex 20.9784075040335 17.2263179084244 7.0
      vertex 20.9784075040335 17.2263179084244 1.19478071541798e-015
   endloop
endfacet
facet normal 0.831830980558344 0.555029026072821 -1.2585678305337e-018
   outer loop
      vertex 20.9784075040335 17.2263179084244 7.0
      vertex 20.123919304746 18.5069531964887 3.05712170981871e-016
      vertex 20.123919304746 18.5069531964887 7.0
   endloop
endfacet
facet normal 0.45502253737848 -0.890479921434307 -1.56627114733394e-018
   outer loop
      vertex 24.3523678753514 16.4070031663429 7.0
      vertex 21.8476777705653 15.1271422515782 1.04742447714705e-015
      vertex 24.3523678753514 16.4070031663429 0.0
   endloop
endfacet
facet normal 0.45502253737848 -0.890479921434307 -1.56627114733394e-018
   outer loop
      vertex 21.8476777705653 15.1271422515782 1.04742447714705e-015
      vertex 24.3523678753514 16.4070031663429 7.0
      vertex 21.8476777705653 15.1271422515782 7.0
   endloop
endfacet
facet normal 0.980679722236966 0.195620250468162 -1.82100381192697e-018
   outer loop
      vertex 21.8476777705653 15.1271422515782 1.04742447714705e-015
      vertex 22.1484433781824 13.6193498229796 7.0
      vertex 22.1484433781824 13.6193498229796 2.17574996971668e-016
   endloop
endfacet
facet normal 0.980679722236966 0.195620250468162 -1.82100381192697e-018
   outer loop
      vertex 22.1484433781824 13.6193498229796 7.0
      vertex 21.8476777705653 15.1271422515782 1.04742447714705e-015
      vertex 21.8476777705653 15.1271422515782 7.0
   endloop
endfacet
facet normal 0.130526192220053 -0.99144486137381 -9.9035925970459e-019
   outer loop
      vertex 12.4759831655051 16.7259831655051 7.0
      vertex 11.3760022238194 16.5811679272337 0.0
      vertex 12.4759831655051 16.7259831655051 0.0
   endloop
endfacet
facet normal 0.130526192220053 -0.99144486137381 -9.9035925970459e-019
   outer loop
      vertex 11.3760022238194 16.5811679272337 0.0
      vertex 12.4759831655051 16.7259831655051 7.0
      vertex 11.3760022238194 16.5811679272337 7.0
   endloop
endfacet
facet normal -0.707106781186547 -0.707106781186548 8.96882477558191e-019
   outer loop
      vertex 4.30239566376392 3.00586607065057 7.0
      vertex 3.00586607065056 4.30239566376393 0.0
      vertex 4.30239566376392 3.00586607065057 0.0
   endloop
endfacet
facet normal -0.707106781186547 -0.707106781186548 8.96882477558191e-019
   outer loop
      vertex 3.00586607065056 4.30239566376393 0.0
      vertex 4.30239566376392 3.00586607065057 7.0
      vertex 3.00586607065056 4.30239566376393 7.0
   endloop
endfacet
facet normal -0.555120876122475 0.831769687409331 1.72366012636711e-018
   outer loop
      vertex 6.44500327524676 20.1239276895291 7.0
      vertex 7.72384692682431 20.9774245397191 1.32975825275753e-015
      vertex 6.44500327524676 20.1239276895291 4.4820981701826e-017
   endloop
endfacet
facet normal -0.555120876122475 0.831769687409331 1.72366012636711e-018
   outer loop
      vertex 7.72384692682431 20.9774245397191 1.32975825275753e-015
      vertex 6.44500327524676 20.1239276895291 7.0
      vertex 7.72384692682431 20.9774245397191 7.0
   endloop
endfacet
facet normal 0.382683432365088 -0.923879532511288 -1.44589158200783e-018
   outer loop
      vertex 18.0942044302453 1.29846010162031 7.0
      vertex 16.4070031663429 0.599598455658916 0.0
      vertex 18.0942044302453 1.29846010162031 0.0
   endloop
endfacet
facet normal 0.382683432365088 -0.923879532511288 -1.44589158200783e-018
   outer loop
      vertex 16.4070031663429 0.599598455658916 0.0
      vertex 18.0942044302453 1.29846010162031 7.0
      vertex 16.4070031663429 0.599598455658916 7.0
   endloop
endfacet
facet normal -0.555120876122456 -0.831769687409343 5.00731411792286e-019
   outer loop
      vertex 7.72384692682431 3.97454179129117 1.04742447714704e-015
      vertex 6.44500327524675 4.82803864148114 7.0
      vertex 6.44500327524675 4.82803864148114 2.17574996971672e-016
   endloop
endfacet
facet normal -0.555120876122456 -0.831769687409343 5.00731411792286e-019
   outer loop
      vertex 6.44500327524675 4.82803864148114 7.0
      vertex 7.72384692682431 3.97454179129117 1.04742447714704e-015
      vertex 7.72384692682431 3.97454179129117 7.0
   endloop
endfacet
facet normal -0.382683432365092 -0.923879532511286 8.75362268914189e-020
   outer loop
      vertex 14.6009831655051 16.156591131589 7.0
      vertex 13.5759641071909 16.5811679272337 0.0
      vertex 14.6009831655051 16.156591131589 0.0
   endloop
endfacet
facet normal -0.382683432365092 -0.923879532511286 8.75362268914189e-020
   outer loop
      vertex 13.5759641071909 16.5811679272337 0.0
      vertex 14.6009831655051 16.156591131589 7.0
      vertex 13.5759641071909 16.5811679272337 7.0
   endloop
endfacet
facet normal -0.60876142900872 -0.793353340291236 6.36442595079166e-019
   outer loop
      vertex 15.481186985548 15.481186985548 7.0
      vertex 14.6009831655051 16.156591131589 0.0
      vertex 15.481186985548 15.481186985548 0.0
   endloop
endfacet
facet normal -0.60876142900872 -0.793353340291236 6.36442595079166e-019
   outer loop
      vertex 14.6009831655051 16.156591131589 0.0
      vertex 15.481186985548 15.481186985548 7.0
      vertex 14.6009831655051 16.156591131589 7.0
   endloop
endfacet
facet normal -0.60876142900872 0.793353340291236 1.80288878244606e-018
   outer loop
      vertex 14.6009831655051 8.79537519942127 7.0
      vertex 15.481186985548 9.47077934546231 0.0
      vertex 14.6009831655051 8.79537519942127 0.0
   endloop
endfacet
facet normal -0.60876142900872 0.793353340291236 1.80288878244606e-018
   outer loop
      vertex 15.481186985548 9.47077934546231 0.0
      vertex 14.6009831655051 8.79537519942127 7.0
      vertex 15.481186985548 9.47077934546231 7.0
   endloop
endfacet
facet normal 0.382683432365086 -0.923879532511288 -1.44589158200783e-018
   outer loop
      vertex 11.3760022238194 16.5811679272337 7.0
      vertex 10.3509831655051 16.156591131589 0.0
      vertex 11.3760022238194 16.5811679272337 0.0
   endloop
endfacet
facet normal 0.382683432365086 -0.923879532511288 -1.44589158200783e-018
   outer loop
      vertex 10.3509831655051 16.156591131589 0.0
      vertex 11.3760022238194 16.5811679272337 7.0
      vertex 10.3509831655051 16.156591131589 7.0
   endloop
endfacet
facet normal -0.761771548739986 -0.64784574362288 1.0499693906949e-018
   outer loop
      vertex 3.00586607065057 20.6495706672464 7.0
      vertex 4.82803864148115 18.5069630557635 7.2034923588509e-017
      vertex 4.82803864148115 18.5069630557635 7.0
   endloop
endfacet
facet normal -0.761771548739986 -0.64784574362288 1.0499693906949e-018
   outer loop
      vertex 4.82803864148115 18.5069630557635 7.2034923588509e-017
      vertex 3.00586607065057 20.6495706672464 7.0
      vertex 3.00586607065057 20.6495706672464 0.0
   endloop
endfacet
facet normal -0.130526192220052 -0.99144486137381 -4.67335590498532e-019
   outer loop
      vertex 13.5759641071909 16.5811679272337 7.0
      vertex 12.4759831655051 16.7259831655051 0.0
      vertex 13.5759641071909 16.5811679272337 0.0
   endloop
endfacet
facet normal -0.130526192220052 -0.99144486137381 -4.67335590498532e-019
   outer loop
      vertex 12.4759831655051 16.7259831655051 0.0
      vertex 13.5759641071909 16.5811679272337 7.0
      vertex 12.4759831655051 16.7259831655051 7.0
   endloop
endfacet
facet normal 0.382683432365091 0.923879532511286 -8.75362268914159e-020
   outer loop
      vertex 10.3509831655051 8.79537519942128 7.0
      vertex 11.3760022238194 8.3707984037766 0.0
      vertex 10.3509831655051 8.79537519942128 0.0
   endloop
endfacet
facet normal 0.382683432365091 0.923879532511286 -8.75362268914159e-020
   outer loop
      vertex 11.3760022238194 8.3707984037766 0.0
      vertex 10.3509831655051 8.79537519942128 7.0
      vertex 11.3760022238194 8.3707984037766 7.0
   endloop
endfacet
facet normal -0.707106781186547 0.707106781186548 1.93652265689309e-018
   outer loop
      vertex 3.00586607065057 20.6495706672464 7.0
      vertex 4.30239566376394 21.9461002603597 0.0
      vertex 3.00586607065057 20.6495706672464 0.0
   endloop
endfacet
facet normal -0.707106781186547 0.707106781186548 1.93652265689309e-018
   outer loop
      vertex 4.30239566376394 21.9461002603597 0.0
      vertex 3.00586607065057 20.6495706672464 7.0
      vertex 4.30239566376394 21.9461002603597 7.0
   endloop
endfacet
facet normal 0.890805971794118 -0.454383891237284 -2.11878180508047e-018
   outer loop
      vertex 9.8228551688305 3.10486734958194 1.32680682940111e-015
      vertex 8.54496316466737 0.599598455658916 7.0
      vertex 8.54496316466737 0.599598455658916 0.0
   endloop
endfacet
facet normal 0.890805971794118 -0.454383891237284 -2.11878180508047e-018
   outer loop
      vertex 8.54496316466737 0.599598455658916 7.0
      vertex 9.8228551688305 3.10486734958194 1.32680682940111e-015
      vertex 9.8228551688305 3.10486734958194 7.0
   endloop
endfacet
facet normal -0.382683432365088 0.923879532511288 1.44589158200783e-018
   outer loop
      vertex 6.85776190076498 23.65350622939 7.0
      vertex 8.54496316466737 24.3523678753514 0.0
      vertex 6.85776190076498 23.65350622939 0.0
   endloop
endfacet
facet normal -0.382683432365088 0.923879532511288 1.44589158200783e-018
   outer loop
      vertex 8.54496316466737 24.3523678753514 0.0
      vertex 6.85776190076498 23.65350622939 7.0
      vertex 8.54496316466737 24.3523678753514 7.0
   endloop
endfacet
facet normal 0.647845743622884 0.761771548739983 -7.37965732005825e-019
   outer loop
      vertex 4.30239566376394 21.9461002603597 7.0
      vertex 6.44500327524676 20.1239276895291 4.4820981701826e-017
      vertex 4.30239566376394 21.9461002603597 0.0
   endloop
endfacet
facet normal 0.647845743622884 0.761771548739983 -7.37965732005825e-019
   outer loop
      vertex 6.44500327524676 20.1239276895291 4.4820981701826e-017
      vertex 4.30239566376394 21.9461002603597 7.0
      vertex 6.44500327524676 20.1239276895291 7.0
   endloop
endfacet
facet normal -0.0805577093504424 0.996749946307603 8.94146367895507e-019
   outer loop
      vertex 1.43201422941885e-016 13.3927680328046 7.0
      vertex 2.80353585332492 13.6193508656027 4.14950628979817e-017
      vertex 1.32185928869433e-016 13.3927680328046 0.0
   endloop
endfacet
facet normal -0.0805577093504424 0.996749946307603 8.94146367895507e-019
   outer loop
      vertex 2.80353585332492 13.6193508656027 4.14950628979817e-017
      vertex 1.43201422941885e-016 13.3927680328046 7.0
      vertex 2.80353585332492 13.6193508656027 7.0
   endloop
endfacet
facet normal -0.195728539062407 -0.980658115245316 -3.28771653470489e-019
   outer loop
      vertex 11.3326154654076 2.80353585332492 7.0
      vertex 9.8228551688305 3.10486734958194 1.32680682940111e-015
      vertex 11.3326154654076 2.80353585332492 4.14950628979806e-017
   endloop
endfacet
facet normal -0.195728539062407 -0.980658115245316 -3.28771653470489e-019
   outer loop
      vertex 9.8228551688305 3.10486734958194 1.32680682940111e-015
      vertex 11.3326154654076 2.80353585332492 7.0
      vertex 9.8228551688305 3.10486734958194 7.0
   endloop
endfacet
facet normal 0.923879532511287 0.38268343236509 -1.56968650127664e-018
   outer loop
      vertex 8.3707984037766 11.3760022238194 0.0
      vertex 8.79537519942127 10.3509831655051 7.0
      vertex 8.79537519942127 10.3509831655051 0.0
   endloop
endfacet
facet normal 0.923879532511287 0.38268343236509 -1.56968650127664e-018
   outer loop
      vertex 8.79537519942127 10.3509831655051 7.0
      vertex 8.3707984037766 11.3760022238194 0.0
      vertex 8.3707984037766 11.3760022238194 7.0
   endloop
endfacet
facet normal 0.647845743622879 -0.761771548739987 -1.85797805633301e-018
   outer loop
      vertex 6.44500327524675 4.82803864148114 2.17574996971672e-016
      vertex 4.30239566376392 3.00586607065057 7.0
      vertex 4.30239566376392 3.00586607065057 0.0
   endloop
endfacet
facet normal 0.647845743622879 -0.761771548739987 -1.85797805633301e-018
   outer loop
      vertex 4.30239566376392 3.00586607065057 7.0
      vertex 6.44500327524675 4.82803864148114 2.17574996971672e-016
      vertex 6.44500327524675 4.82803864148114 7.0
   endloop
endfacet
facet normal 0.923879532511287 -0.382683432365089 -2.13233571188798e-018
   outer loop
      vertex 8.79537519942128 14.6009831655051 0.0
      vertex 8.3707984037766 13.5759641071909 7.0
      vertex 8.3707984037766 13.5759641071909 0.0
   endloop
endfacet
facet normal 0.923879532511287 -0.382683432365089 -2.13233571188798e-018
   outer loop
      vertex 8.3707984037766 13.5759641071909 7.0
      vertex 8.79537519942128 14.6009831655051 0.0
      vertex 8.79537519942128 14.6009831655051 7.0
   endloop
endfacet
facet normal 0.99144486137381 0.130526192220052 -1.89042500933747e-018
   outer loop
      vertex 8.22598316550514 12.4759831655051 0.0
      vertex 8.3707984037766 11.3760022238194 7.0
      vertex 8.3707984037766 11.3760022238194 0.0
   endloop
endfacet
facet normal 0.99144486137381 0.130526192220052 -1.89042500933747e-018
   outer loop
      vertex 8.3707984037766 11.3760022238194 7.0
      vertex 8.22598316550514 12.4759831655051 0.0
      vertex 8.22598316550514 12.4759831655051 7.0
   endloop
endfacet
facet normal -0.951413912729694 -0.307914869183634 1.67981729118223e-018
   outer loop
      vertex 6.85776190076498 23.65350622939 7.0
      vertex 7.72384692682431 20.9774245397191 1.32975825275753e-015
      vertex 7.72384692682431 20.9774245397191 7.0
   endloop
endfacet
facet normal -0.951413912729694 -0.307914869183634 1.67981729118223e-018
   outer loop
      vertex 7.72384692682431 20.9774245397191 1.32975825275753e-015
      vertex 6.85776190076498 23.65350622939 7.0
      vertex 6.85776190076498 23.65350622939 0.0
   endloop
endfacet
facet normal 0.308597012621278 -0.951192874132908 -1.31753699713955e-018
   outer loop
      vertex 3.97355882697682 7.72564842258585 1.19478071541798e-015
      vertex 1.29846010162031 6.85776190076498 7.0
      vertex 1.29846010162031 6.85776190076498 0.0
   endloop
endfacet
facet normal 0.308597012621278 -0.951192874132908 -1.31753699713955e-018
   outer loop
      vertex 1.29846010162031 6.85776190076498 7.0
      vertex 3.97355882697682 7.72564842258585 1.19478071541798e-015
      vertex 3.97355882697682 7.72564842258585 7.0
   endloop
endfacet
facet normal -0.454383891237287 -0.890805971794117 2.55503114797394e-019
   outer loop
      vertex 3.10486734958193 15.1291111621798 1.32680682940111e-015
      vertex 0.599598455658915 16.4070031663429 7.0
      vertex 0.599598455658915 16.4070031663429 0.0
   endloop
endfacet
facet normal -0.454383891237287 -0.890805971794117 2.55503114797394e-019
   outer loop
      vertex 0.599598455658915 16.4070031663429 7.0
      vertex 3.10486734958193 15.1291111621798 1.32680682940111e-015
      vertex 3.10486734958193 15.1291111621798 7.0
   endloop
endfacet
facet normal -0.455022537378477 0.890479921434309 1.56627114733394e-018
   outer loop
      vertex 0.599598455658914 8.54496316466737 7.0
      vertex 3.10428856044501 9.82482407943209 1.33838023209872e-015
      vertex 0.599598455658914 8.54496316466737 0.0
   endloop
endfacet
facet normal -0.455022537378477 0.890479921434309 1.56627114733394e-018
   outer loop
      vertex 3.10428856044501 9.82482407943209 1.33838023209872e-015
      vertex 0.599598455658914 8.54496316466737 7.0
      vertex 3.10428856044501 9.82482407943209 7.0
   endloop
endfacet
facet normal -0.996749946307603 -0.0805577093504409 1.93778751466472e-018
   outer loop
      vertex 11.3326154654076 2.80353585332492 7.0
      vertex 11.5591982982056 0.0 0.0
      vertex 11.5591982982056 0.0 7.0
   endloop
endfacet
facet normal -0.996749946307603 -0.0805577093504409 1.93778751466472e-018
   outer loop
      vertex 11.5591982982056 0.0 0.0
      vertex 11.3326154654076 2.80353585332492 7.0
      vertex 11.3326154654076 2.80353585332492 4.14950628979806e-017
   endloop
endfacet
facet normal -0.761771548739986 0.647845743622881 2.00247965223028e-018
   outer loop
      vertex 4.82804702626426 6.44501313452156 7.0
      vertex 3.00586607065056 4.30239566376393 0.0
      vertex 3.00586607065056 4.30239566376393 7.0
   endloop
endfacet
facet normal -0.761771548739986 0.647845743622881 2.00247965223028e-018
   outer loop
      vertex 3.00586607065056 4.30239566376393 0.0
      vertex 4.82804702626426 6.44501313452156 7.0
      vertex 4.82804702626426 6.44501313452156 3.05712170981869e-016
   endloop
endfacet
facet normal -0.130526192220053 0.99144486137381 9.9035925970459e-019
   outer loop
      vertex 12.4759831655051 8.22598316550514 7.0
      vertex 13.5759641071909 8.3707984037766 0.0
      vertex 12.4759831655051 8.22598316550514 0.0
   endloop
endfacet
facet normal -0.130526192220053 0.99144486137381 9.9035925970459e-019
   outer loop
      vertex 13.5759641071909 8.3707984037766 0.0
      vertex 12.4759831655051 8.22598316550514 7.0
      vertex 13.5759641071909 8.3707984037766 7.0
   endloop
endfacet
facet normal -0.980679722236969 -0.195620250468148 1.82100381192698e-018
   outer loop
      vertex 2.80352295282785 11.3326165080307 7.0
      vertex 3.10428856044501 9.82482407943209 1.33838023209872e-015
      vertex 3.10428856044501 9.82482407943209 7.0
   endloop
endfacet
facet normal -0.980679722236969 -0.195620250468148 1.82100381192698e-018
   outer loop
      vertex 3.10428856044501 9.82482407943209 1.33838023209872e-015
      vertex 2.80352295282785 11.3326165080307 7.0
      vertex 2.80352295282785 11.3326165080307 7.20349235885072e-017
   endloop
endfacet
facet normal -2.00351998441928e-018 7.35136620801708e-019 -1.0
   outer loop
      vertex 1.32185928869433e-016 13.3927680328046 0.0
      vertex 2.80352295282785 11.3326165080307 7.20349235885072e-017
      vertex 0.0 11.5591982982056 0.0
   endloop
endfacet
facet normal -2.00351998441928e-018 7.35136620801708e-019 -1.0
   outer loop
      vertex 2.80352295282785 11.3326165080307 7.20349235885072e-017
      vertex 1.32185928869433e-016 13.3927680328046 0.0
      vertex 2.80353585332492 13.6193508656027 4.14950628979817e-017
   endloop
endfacet
facet normal -2.00351998441928e-018 7.35136620801708e-019 -1.0
   outer loop
      vertex 2.80352295282785 11.3326165080307 7.20349235885072e-017
      vertex 2.80353585332492 13.6193508656027 4.14950628979817e-017
      vertex 3.10428856044501 9.82482407943209 1.33838023209872e-015
   endloop
endfacet
facet normal -2.00351998441928e-018 7.35136620801708e-019 -1.0
   outer loop
      vertex 3.10428856044501 9.82482407943209 1.33838023209872e-015
      vertex 2.80353585332492 13.6193508656027 4.14950628979817e-017
      vertex 3.10486734958193 15.1291111621798 1.32680682940111e-015
   endloop
endfacet
facet normal -2.00351998441928e-018 7.35136620801708e-019 -1.0
   outer loop
      vertex 4.30239566376394 21.9461002603597 0.0
      vertex 4.82803864148115 18.5069630557635 7.2034923588509e-017
      vertex 3.00586607065057 20.6495706672464 0.0
   endloop
endfacet
facet normal -2.00351998441928e-018 7.35136620801708e-019 -1.0
   outer loop
      vertex 4.82803864148115 18.5069630557635 7.2034923588509e-017
      vertex 4.30239566376394 21.9461002603597 0.0
      vertex 6.44500327524676 20.1239276895291 4.4820981701826e-017
   endloop
endfacet
facet normal -2.00351998441928e-018 7.35136620801708e-019 -1.0
   outer loop
      vertex 4.82803864148115 18.5069630557635 7.2034923588509e-017
      vertex 6.44500327524676 20.1239276895291 4.4820981701826e-017
      vertex 4.82804702626426 6.44501313452156 3.05712170981869e-016
   endloop
endfacet
facet normal -2.00351998441928e-018 7.35136620801708e-019 -1.0
   outer loop
      vertex 4.82804702626426 6.44501313452156 3.05712170981869e-016
      vertex 6.44500327524676 20.1239276895291 4.4820981701826e-017
      vertex 6.44500327524675 4.82803864148114 2.17574996971672e-016
   endloop
endfacet
facet normal -2.00351998441928e-018 7.35136620801708e-019 -1.0
   outer loop
      vertex 6.44500327524675 4.82803864148114 2.17574996971672e-016
      vertex 6.44500327524676 20.1239276895291 4.4820981701826e-017
      vertex 7.72384692682431 3.97454179129117 1.04742447714704e-015
   endloop
endfacet
facet normal -2.00351998441928e-018 7.35136620801708e-019 -1.0
   outer loop
      vertex 7.72384692682431 3.97454179129117 1.04742447714704e-015
      vertex 6.44500327524676 20.1239276895291 4.4820981701826e-017
      vertex 7.72384692682431 20.9774245397191 1.32975825275753e-015
   endloop
endfacet
facet normal -2.00351998441928e-018 7.35136620801708e-019 -1.0
   outer loop
      vertex 8.54496316466737 24.3523678753514 0.0
      vertex 7.72384692682431 20.9774245397191 1.32975825275753e-015
      vertex 6.85776190076498 23.65350622939 0.0
   endloop
endfacet
facet normal -2.00351998441928e-018 7.35136620801708e-019 -1.0
   outer loop
      vertex 7.72384692682431 20.9774245397191 1.32975825275753e-015
      vertex 8.54496316466737 24.3523678753514 0.0
      vertex 8.22598316550514 12.4759831655051 0.0
   endloop
endfacet
facet normal -2.00351998441928e-018 7.35136620801708e-019 -1.0
   outer loop
      vertex 8.22598316550514 12.4759831655051 0.0
      vertex 8.54496316466737 24.3523678753514 0.0
      vertex 8.3707984037766 13.5759641071909 0.0
   endloop
endfacet
facet normal -2.00351998441928e-018 7.35136620801708e-019 -1.0
   outer loop
      vertex 8.3707984037766 13.5759641071909 0.0
      vertex 8.54496316466737 24.3523678753514 0.0
      vertex 8.79537519942128 14.6009831655051 0.0
   endloop
endfacet
facet normal -2.00351998441928e-018 7.35136620801708e-019 -1.0
   outer loop
      vertex 8.79537519942128 14.6009831655051 0.0
      vertex 8.54496316466737 24.3523678753514 0.0
      vertex 9.8228551688305 21.8470989814284 1.32976530402562e-015
   endloop
endfacet
facet normal -2.00351998441928e-018 7.35136620801708e-019 -1.0
   outer loop
      vertex 8.79537519942128 14.6009831655051 0.0
      vertex 9.8228551688305 21.8470989814284 1.32976530402562e-015
      vertex 9.47077934546231 15.481186985548 0.0
   endloop
endfacet
facet normal -2.00351998441928e-018 7.35136620801708e-019 -1.0
   outer loop
      vertex 9.47077934546231 15.481186985548 0.0
      vertex 9.8228551688305 21.8470989814284 1.32976530402562e-015
      vertex 10.3509831655051 16.156591131589 0.0
   endloop
endfacet
facet normal -2.00351998441928e-018 7.35136620801708e-019 -1.0
   outer loop
      vertex 10.3509831655051 16.156591131589 0.0
      vertex 9.8228551688305 21.8470989814284 1.32976530402562e-015
      vertex 11.3326154654076 22.1484304776854 4.47589080907358e-017
   endloop
endfacet
facet normal -2.00351998441928e-018 7.35136620801708e-019 -1.0
   outer loop
      vertex 10.3509831655051 16.156591131589 0.0
      vertex 11.3326154654076 22.1484304776854 4.47589080907358e-017
      vertex 11.3760022238194 16.5811679272337 0.0
   endloop
endfacet
facet normal -2.00351998441928e-018 7.35136620801708e-019 -1.0
   outer loop
      vertex 11.3760022238194 16.5811679272337 0.0
      vertex 11.3326154654076 22.1484304776854 4.47589080907358e-017
      vertex 11.5591982982056 24.9519663310103 0.0
   endloop
endfacet
facet normal -2.00351998441928e-018 7.35136620801708e-019 -1.0
   outer loop
      vertex 11.3760022238194 16.5811679272337 0.0
      vertex 11.5591982982056 24.9519663310103 0.0
      vertex 12.4759831655051 16.7259831655051 0.0
   endloop
endfacet
facet normal -2.00351998441928e-018 7.35136620801708e-019 -1.0
   outer loop
      vertex 12.4759831655051 16.7259831655051 0.0
      vertex 11.5591982982056 24.9519663310103 0.0
      vertex 13.3927680328046 24.9519663310103 0.0
   endloop
endfacet
facet normal -2.00351998441928e-018 7.35136620801708e-019 -1.0
   outer loop
      vertex 12.4759831655051 16.7259831655051 0.0
      vertex 13.3927680328046 24.9519663310103 0.0
      vertex 13.5759641071909 16.5811679272337 0.0
   endloop
endfacet
facet normal -2.00351998441928e-018 7.35136620801708e-019 -1.0
   outer loop
      vertex 13.5759641071909 16.5811679272337 0.0
      vertex 13.3927680328046 24.9519663310103 0.0
      vertex 13.6193498229796 22.1484433781824 4.15485631125329e-017
   endloop
endfacet
facet normal -2.00351998441928e-018 7.35136620801708e-019 -1.0
   outer loop
      vertex 13.5759641071909 16.5811679272337 0.0
      vertex 13.6193498229796 22.1484433781824 4.15485631125329e-017
      vertex 14.6009831655051 16.156591131589 0.0
   endloop
endfacet
facet normal -2.00351998441928e-018 7.35136620801708e-019 -1.0
   outer loop
      vertex 14.6009831655051 16.156591131589 0.0
      vertex 13.6193498229796 22.1484433781824 4.15485631125329e-017
      vertex 15.1271422515782 21.8476777705653 1.32679186562555e-015
   endloop
endfacet
facet normal -2.00351998441928e-018 7.35136620801708e-019 -1.0
   outer loop
      vertex 14.6009831655051 16.156591131589 0.0
      vertex 15.1271422515782 21.8476777705653 1.32679186562555e-015
      vertex 15.481186985548 15.481186985548 0.0
   endloop
endfacet
facet normal -2.00351998441928e-018 7.35136620801708e-019 -1.0
   outer loop
      vertex 15.481186985548 15.481186985548 0.0
      vertex 15.1271422515782 21.8476777705653 1.32679186562555e-015
      vertex 16.4070031663429 24.3523678753514 0.0
   endloop
endfacet
facet normal -2.00351998441928e-018 7.35136620801708e-019 -1.0
   outer loop
      vertex 15.481186985548 15.481186985548 0.0
      vertex 16.4070031663429 24.3523678753514 0.0
      vertex 16.156591131589 14.6009831655051 0.0
   endloop
endfacet
facet normal -2.00351998441928e-018 7.35136620801708e-019 -1.0
   outer loop
      vertex 16.156591131589 14.6009831655051 0.0
      vertex 16.4070031663429 24.3523678753514 0.0
      vertex 16.5811679272337 13.5759641071909 0.0
   endloop
endfacet
facet normal -2.00351998441928e-018 7.35136620801708e-019 -1.0
   outer loop
      vertex 16.5811679272337 13.5759641071909 0.0
      vertex 16.4070031663429 24.3523678753514 0.0
      vertex 17.2254571092736 20.9788771849389 1.04745787008588e-015
   endloop
endfacet
facet normal -2.00351998441928e-018 7.35136620801708e-019 -1.0
   outer loop
      vertex 17.2254571092736 20.9788771849389 1.04745787008588e-015
      vertex 16.4070031663429 24.3523678753514 0.0
      vertex 18.0942044302453 23.65350622939 0.0
   endloop
endfacet
facet normal -2.00351998441928e-018 7.35136620801708e-019 -1.0
   outer loop
      vertex 16.5811679272337 13.5759641071909 0.0
      vertex 17.2254571092736 20.9788771849389 1.04745787008588e-015
      vertex 16.7259831655051 12.4759831655051 0.0
   endloop
endfacet
facet normal -2.00351998441928e-018 7.35136620801708e-019 -1.0
   outer loop
      vertex 18.5069484941821 20.123915305687 2.17451347706947e-016
      vertex 17.2263179084244 3.97355882697681 1.19478071541798e-015
      vertex 17.2254571092736 20.9788771849389 1.04745787008588e-015
   endloop
endfacet
facet normal -2.00351998441928e-018 7.35136620801708e-019 -1.0
   outer loop
      vertex 17.2263179084244 3.97355882697681 1.19478071541798e-015
      vertex 18.5069484941821 20.123915305687 2.17451347706947e-016
      vertex 18.5069531964887 4.82804702626426 3.0571217098187e-016
   endloop
endfacet
facet normal -2.00351998441928e-018 7.35136620801708e-019 -1.0
   outer loop
      vertex 18.5069531964887 4.82804702626426 3.0571217098187e-016
      vertex 18.5069484941821 20.123915305687 2.17451347706947e-016
      vertex 20.123919304746 18.5069531964887 3.05712170981871e-016
   endloop
endfacet
facet normal -2.00351998441928e-018 7.35136620801708e-019 -1.0
   outer loop
      vertex 20.123919304746 18.5069531964887 3.05712170981871e-016
      vertex 18.5069484941821 20.123915305687 2.17451347706947e-016
      vertex 20.6495706672464 21.9461002603597 0.0
   endloop
endfacet
facet normal -2.00351998441928e-018 7.35136620801708e-019 -1.0
   outer loop
      vertex 20.123919304746 18.5069531964887 3.05712170981871e-016
      vertex 20.6495706672464 21.9461002603597 0.0
      vertex 21.9461002603597 20.6495706672464 0.0
   endloop
endfacet
facet normal -2.00351998441928e-018 7.35136620801708e-019 -1.0
   outer loop
      vertex 20.9784075040335 17.2263179084244 1.19478071541798e-015
      vertex 21.8476777705653 15.1271422515782 1.04742447714705e-015
      vertex 21.8470989814283 9.8228551688305 1.32680682940111e-015
   endloop
endfacet
facet normal -2.00351998441928e-018 7.35136620801708e-019 -1.0
   outer loop
      vertex 21.8476777705653 15.1271422515782 1.04742447714705e-015
      vertex 20.9784075040335 17.2263179084244 1.19478071541798e-015
      vertex 23.65350622939 18.0942044302453 0.0
   endloop
endfacet
facet normal -2.00351998441928e-018 7.35136620801708e-019 -1.0
   outer loop
      vertex 21.8476777705653 15.1271422515782 1.04742447714705e-015
      vertex 23.65350622939 18.0942044302453 0.0
      vertex 24.3523678753514 16.4070031663429 0.0
   endloop
endfacet
facet normal -2.00351998441928e-018 7.35136620801708e-019 -1.0
   outer loop
      vertex 21.8476777705653 15.1271422515782 1.04742447714705e-015
      vertex 22.1484304776854 11.3326154654076 4.14950628979816e-017
      vertex 21.8470989814283 9.8228551688305 1.32680682940111e-015
   endloop
endfacet
facet normal -2.00351998441928e-018 7.35136620801708e-019 -1.0
   outer loop
      vertex 22.1484304776854 11.3326154654076 4.14950628979816e-017
      vertex 21.8476777705653 15.1271422515782 1.04742447714705e-015
      vertex 22.1484433781824 13.6193498229796 2.17574996971668e-016
   endloop
endfacet
facet normal -2.00351998441928e-018 7.35136620801708e-019 -1.0
   outer loop
      vertex 22.1484304776854 11.3326154654076 4.14950628979816e-017
      vertex 22.1484433781824 13.6193498229796 2.17574996971668e-016
      vertex 24.9519663310103 11.5591982982056 0.0
   endloop
endfacet
facet normal -2.00351998441928e-018 7.35136620801708e-019 -1.0
   outer loop
      vertex 24.9519663310103 11.5591982982056 0.0
      vertex 22.1484433781824 13.6193498229796 2.17574996971668e-016
      vertex 24.9519663310103 13.3927680328046 0.0
   endloop
endfacet
facet normal -2.00351998441928e-018 7.35136620801708e-019 -1.0
   outer loop
      vertex 20.9784075040335 17.2263179084244 1.19478071541798e-015
      vertex 20.1239276895291 6.44500327524675 2.17574996971676e-016
      vertex 20.123919304746 18.5069531964887 3.05712170981871e-016
   endloop
endfacet
facet normal -2.00351998441928e-018 7.35136620801708e-019 -1.0
   outer loop
      vertex 20.1239276895291 6.44500327524675 2.17574996971676e-016
      vertex 20.9784075040335 17.2263179084244 1.19478071541798e-015
      vertex 20.9774245397191 7.7238469268243 1.04742447714704e-015
   endloop
endfacet
facet normal -2.00351998441928e-018 7.35136620801708e-019 -1.0
   outer loop
      vertex 20.9774245397191 7.7238469268243 1.04742447714704e-015
      vertex 20.9784075040335 17.2263179084244 1.19478071541798e-015
      vertex 21.8470989814283 9.8228551688305 1.32680682940111e-015
   endloop
endfacet
facet normal -2.00351998441928e-018 7.35136620801708e-019 -1.0
   outer loop
      vertex 20.9774245397191 7.7238469268243 1.04742447714704e-015
      vertex 21.8470989814283 9.8228551688305 1.32680682940111e-015
      vertex 23.65350622939 6.85776190076498 0.0
   endloop
endfacet
facet normal -2.00351998441928e-018 7.35136620801708e-019 -1.0
   outer loop
      vertex 23.65350622939 6.85776190076498 0.0
      vertex 21.8470989814283 9.8228551688305 1.32680682940111e-015
      vertex 24.3523678753514 8.54496316466737 0.0
   endloop
endfacet
facet normal -2.00351998441928e-018 7.35136620801708e-019 -1.0
   outer loop
      vertex 18.5069531964887 4.82804702626426 3.0571217098187e-016
      vertex 20.1239276895291 6.44500327524675 2.17574996971676e-016
      vertex 20.6495706672463 3.00586607065056 0.0
   endloop
endfacet
facet normal -2.00351998441928e-018 7.35136620801708e-019 -1.0
   outer loop
      vertex 20.1239276895291 6.44500327524675 2.17574996971676e-016
      vertex 18.5069531964887 4.82804702626426 3.0571217098187e-016
      vertex 20.123919304746 18.5069531964887 3.05712170981871e-016
   endloop
endfacet
facet normal -2.00351998441928e-018 7.35136620801708e-019 -1.0
   outer loop
      vertex 20.6495706672463 3.00586607065056 0.0
      vertex 20.1239276895291 6.44500327524675 2.17574996971676e-016
      vertex 21.9461002603597 4.30239566376393 0.0
   endloop
endfacet
facet normal -2.00351998441928e-018 7.35136620801708e-019 -1.0
   outer loop
      vertex 7.72384692682431 3.97454179129117 1.04742447714704e-015
      vertex 8.54496316466737 0.599598455658916 0.0
      vertex 6.85776190076497 1.29846010162032 0.0
   endloop
endfacet
facet normal -2.00351998441928e-018 7.35136620801708e-019 -1.0
   outer loop
      vertex 8.54496316466737 0.599598455658916 0.0
      vertex 7.72384692682431 3.97454179129117 1.04742447714704e-015
      vertex 7.72384692682431 20.9774245397191 1.32975825275753e-015
   endloop
endfacet
facet normal -2.00351998441928e-018 7.35136620801708e-019 -1.0
   outer loop
      vertex 8.54496316466737 0.599598455658916 0.0
      vertex 7.72384692682431 20.9774245397191 1.32975825275753e-015
      vertex 8.22598316550514 12.4759831655051 0.0
   endloop
endfacet
facet normal -2.00351998441928e-018 7.35136620801708e-019 -1.0
   outer loop
      vertex 8.54496316466737 0.599598455658916 0.0
      vertex 8.22598316550514 12.4759831655051 0.0
      vertex 8.3707984037766 11.3760022238194 0.0
   endloop
endfacet
facet normal -2.00351998441928e-018 7.35136620801708e-019 -1.0
   outer loop
      vertex 8.54496316466737 0.599598455658916 0.0
      vertex 8.3707984037766 11.3760022238194 0.0
      vertex 8.79537519942127 10.3509831655051 0.0
   endloop
endfacet
facet normal -2.00351998441928e-018 7.35136620801708e-019 -1.0
   outer loop
      vertex 8.54496316466737 0.599598455658916 0.0
      vertex 8.79537519942127 10.3509831655051 0.0
      vertex 9.8228551688305 3.10486734958194 1.32680682940111e-015
   endloop
endfacet
facet normal -2.00351998441928e-018 7.35136620801708e-019 -1.0
   outer loop
      vertex 9.8228551688305 3.10486734958194 1.32680682940111e-015
      vertex 8.79537519942127 10.3509831655051 0.0
      vertex 9.47077934546231 9.47077934546231 0.0
   endloop
endfacet
facet normal -2.00351998441928e-018 7.35136620801708e-019 -1.0
   outer loop
      vertex 9.8228551688305 3.10486734958194 1.32680682940111e-015
      vertex 9.47077934546231 9.47077934546231 0.0
      vertex 10.3509831655051 8.79537519942128 0.0
   endloop
endfacet
facet normal -2.00351998441928e-018 7.35136620801708e-019 -1.0
   outer loop
      vertex 9.8228551688305 3.10486734958194 1.32680682940111e-015
      vertex 10.3509831655051 8.79537519942128 0.0
      vertex 11.3326154654076 2.80353585332492 4.14950628979806e-017
   endloop
endfacet
facet normal -2.00351998441928e-018 7.35136620801708e-019 -1.0
   outer loop
      vertex 11.3326154654076 2.80353585332492 4.14950628979806e-017
      vertex 10.3509831655051 8.79537519942128 0.0
      vertex 11.3760022238194 8.3707984037766 0.0
   endloop
endfacet
facet normal -2.00351998441928e-018 7.35136620801708e-019 -1.0
   outer loop
      vertex 11.3326154654076 2.80353585332492 4.14950628979806e-017
      vertex 11.3760022238194 8.3707984037766 0.0
      vertex 11.5591982982056 0.0 0.0
   endloop
endfacet
facet normal -2.00351998441928e-018 7.35136620801708e-019 -1.0
   outer loop
      vertex 11.5591982982056 0.0 0.0
      vertex 11.3760022238194 8.3707984037766 0.0
      vertex 12.4759831655051 8.22598316550514 0.0
   endloop
endfacet
facet normal -2.00351998441928e-018 7.35136620801708e-019 -1.0
   outer loop
      vertex 11.5591982982056 0.0 0.0
      vertex 12.4759831655051 8.22598316550514 0.0
      vertex 13.3927680328046 0.0 0.0
   endloop
endfacet
facet normal -2.00351998441928e-018 7.35136620801708e-019 -1.0
   outer loop
      vertex 13.3927680328046 0.0 0.0
      vertex 12.4759831655051 8.22598316550514 0.0
      vertex 13.5759641071909 8.3707984037766 0.0
   endloop
endfacet
facet normal -2.00351998441928e-018 7.35136620801708e-019 -1.0
   outer loop
      vertex 13.3927680328046 0.0 0.0
      vertex 13.5759641071909 8.3707984037766 0.0
      vertex 13.6193498229796 2.80352295282785 7.203492358851e-017
   endloop
endfacet
facet normal -2.00351998441928e-018 7.35136620801708e-019 -1.0
   outer loop
      vertex 13.6193498229796 2.80352295282785 7.203492358851e-017
      vertex 13.5759641071909 8.3707984037766 0.0
      vertex 14.6009831655051 8.79537519942127 0.0
   endloop
endfacet
facet normal -2.00351998441928e-018 7.35136620801708e-019 -1.0
   outer loop
      vertex 13.6193498229796 2.80352295282785 7.203492358851e-017
      vertex 14.6009831655051 8.79537519942127 0.0
      vertex 15.1271422515782 3.104288560445 1.33838023209872e-015
   endloop
endfacet
facet normal -2.00351998441928e-018 7.35136620801708e-019 -1.0
   outer loop
      vertex 15.1271422515782 3.104288560445 1.33838023209872e-015
      vertex 14.6009831655051 8.79537519942127 0.0
      vertex 15.481186985548 9.47077934546231 0.0
   endloop
endfacet
facet normal -2.00351998441928e-018 7.35136620801708e-019 -1.0
   outer loop
      vertex 15.1271422515782 3.104288560445 1.33838023209872e-015
      vertex 15.481186985548 9.47077934546231 0.0
      vertex 16.4070031663429 0.599598455658916 0.0
   endloop
endfacet
facet normal -2.00351998441928e-018 7.35136620801708e-019 -1.0
   outer loop
      vertex 16.4070031663429 0.599598455658916 0.0
      vertex 15.481186985548 9.47077934546231 0.0
      vertex 16.156591131589 10.3509831655051 0.0
   endloop
endfacet
facet normal -2.00351998441928e-018 7.35136620801708e-019 -1.0
   outer loop
      vertex 16.4070031663429 0.599598455658916 0.0
      vertex 16.156591131589 10.3509831655051 0.0
      vertex 16.5811679272337 11.3760022238194 0.0
   endloop
endfacet
facet normal -2.00351998441928e-018 7.35136620801708e-019 -1.0
   outer loop
      vertex 16.4070031663429 0.599598455658916 0.0
      vertex 16.5811679272337 11.3760022238194 0.0
      vertex 17.2263179084244 3.97355882697681 1.19478071541798e-015
   endloop
endfacet
facet normal -2.00351998441928e-018 7.35136620801708e-019 -1.0
   outer loop
      vertex 16.4070031663429 0.599598455658916 0.0
      vertex 17.2263179084244 3.97355882697681 1.19478071541798e-015
      vertex 18.0942044302453 1.29846010162031 0.0
   endloop
endfacet
facet normal -2.00351998441928e-018 7.35136620801708e-019 -1.0
   outer loop
      vertex 17.2263179084244 3.97355882697681 1.19478071541798e-015
      vertex 16.5811679272337 11.3760022238194 0.0
      vertex 16.7259831655051 12.4759831655051 0.0
   endloop
endfacet
facet normal -2.00351998441928e-018 7.35136620801708e-019 -1.0
   outer loop
      vertex 17.2263179084244 3.97355882697681 1.19478071541798e-015
      vertex 16.7259831655051 12.4759831655051 0.0
      vertex 17.2254571092736 20.9788771849389 1.04745787008588e-015
   endloop
endfacet
facet normal -2.00351998441928e-018 7.35136620801708e-019 -1.0
   outer loop
      vertex 4.82804702626426 6.44501313452156 3.05712170981869e-016
      vertex 4.30239566376392 3.00586607065057 0.0
      vertex 3.00586607065056 4.30239566376393 0.0
   endloop
endfacet
facet normal -2.00351998441928e-018 7.35136620801708e-019 -1.0
   outer loop
      vertex 4.30239566376392 3.00586607065057 0.0
      vertex 4.82804702626426 6.44501313452156 3.05712170981869e-016
      vertex 6.44500327524675 4.82803864148114 2.17574996971672e-016
   endloop
endfacet
facet normal -2.00351998441928e-018 7.35136620801708e-019 -1.0
   outer loop
      vertex 1.29846010162032 18.0942044302453 0.0
      vertex 3.10486734958193 15.1291111621798 1.32680682940111e-015
      vertex 0.599598455658915 16.4070031663429 0.0
   endloop
endfacet
facet normal -2.00351998441928e-018 7.35136620801708e-019 -1.0
   outer loop
      vertex 3.10486734958193 15.1291111621798 1.32680682940111e-015
      vertex 1.29846010162032 18.0942044302453 0.0
      vertex 3.97454179129115 17.228119404186 1.33838023209872e-015
   endloop
endfacet
facet normal -2.00351998441928e-018 7.35136620801708e-019 -1.0
   outer loop
      vertex 3.10486734958193 15.1291111621798 1.32680682940111e-015
      vertex 3.97454179129115 17.228119404186 1.33838023209872e-015
      vertex 3.97355882697682 7.72564842258585 1.19478071541798e-015
   endloop
endfacet
facet normal -2.00351998441928e-018 7.35136620801708e-019 -1.0
   outer loop
      vertex 3.97355882697682 7.72564842258585 1.19478071541798e-015
      vertex 3.97454179129115 17.228119404186 1.33838023209872e-015
      vertex 4.82804702626426 6.44501313452156 3.05712170981869e-016
   endloop
endfacet
facet normal -2.00351998441928e-018 7.35136620801708e-019 -1.0
   outer loop
      vertex 4.82804702626426 6.44501313452156 3.05712170981869e-016
      vertex 3.97454179129115 17.228119404186 1.33838023209872e-015
      vertex 4.82803864148115 18.5069630557635 7.2034923588509e-017
   endloop
endfacet
facet normal -2.00351998441928e-018 7.35136620801708e-019 -1.0
   outer loop
      vertex 3.10428856044501 9.82482407943209 1.33838023209872e-015
      vertex 1.29846010162031 6.85776190076498 0.0
      vertex 0.599598455658914 8.54496316466737 0.0
   endloop
endfacet
facet normal -2.00351998441928e-018 7.35136620801708e-019 -1.0
   outer loop
      vertex 1.29846010162031 6.85776190076498 0.0
      vertex 3.10428856044501 9.82482407943209 1.33838023209872e-015
      vertex 3.97355882697682 7.72564842258585 1.19478071541798e-015
   endloop
endfacet
facet normal -2.00351998441928e-018 7.35136620801708e-019 -1.0
   outer loop
      vertex 3.97355882697682 7.72564842258585 1.19478071541798e-015
      vertex 3.10428856044501 9.82482407943209 1.33838023209872e-015
      vertex 3.10486734958193 15.1291111621798 1.32680682940111e-015
   endloop
endfacet
facet normal 0.130526192220053 0.99144486137381 4.67335590498531e-019
   outer loop
      vertex 11.3760022238194 8.3707984037766 7.0
      vertex 12.4759831655051 8.22598316550514 0.0
      vertex 11.3760022238194 8.3707984037766 0.0
   endloop
endfacet
facet normal 0.130526192220053 0.99144486137381 4.67335590498531e-019
   outer loop
      vertex 12.4759831655051 8.22598316550514 0.0
      vertex 11.3760022238194 8.3707984037766 7.0
      vertex 12.4759831655051 8.22598316550514 7.0
   endloop
endfacet
facet normal -0.38268343236509 -0.923879532511287 8.75362268914138e-020
   outer loop
      vertex 8.54496316466737 0.599598455658916 7.0
      vertex 6.85776190076497 1.29846010162032 0.0
      vertex 8.54496316466737 0.599598455658916 0.0
   endloop
endfacet
facet normal -0.38268343236509 -0.923879532511287 8.75362268914138e-020
   outer loop
      vertex 6.85776190076497 1.29846010162032 0.0
      vertex 8.54496316466737 0.599598455658916 7.0
      vertex 6.85776190076497 1.29846010162032 7.0
   endloop
endfacet
facet normal -0.991444861373811 0.13052619222005 2.082334177087e-018
   outer loop
      vertex 16.7259831655051 12.4759831655051 7.0
      vertex 16.5811679272337 11.3760022238194 0.0
      vertex 16.5811679272337 11.3760022238194 7.0
   endloop
endfacet
facet normal -0.991444861373811 0.13052619222005 2.082334177087e-018
   outer loop
      vertex 16.5811679272337 11.3760022238194 0.0
      vertex 16.7259831655051 12.4759831655051 7.0
      vertex 16.7259831655051 12.4759831655051 0.0
   endloop
endfacet
facet normal 0.608761429008721 0.793353340291235 -6.36442595079167e-019
   outer loop
      vertex 9.47077934546231 9.47077934546231 7.0
      vertex 10.3509831655051 8.79537519942128 0.0
      vertex 9.47077934546231 9.47077934546231 0.0
   endloop
endfacet
facet normal 0.608761429008721 0.793353340291235 -6.36442595079167e-019
   outer loop
      vertex 10.3509831655051 8.79537519942128 0.0
      vertex 9.47077934546231 9.47077934546231 7.0
      vertex 10.3509831655051 8.79537519942128 7.0
   endloop
endfacet
facet normal -0.793353340291236 -0.60876142900872 1.14197645218339e-018
   outer loop
      vertex 15.481186985548 15.481186985548 7.0
      vertex 16.156591131589 14.6009831655051 0.0
      vertex 16.156591131589 14.6009831655051 7.0
   endloop
endfacet
facet normal -0.793353340291236 -0.60876142900872 1.14197645218339e-018
   outer loop
      vertex 16.156591131589 14.6009831655051 0.0
      vertex 15.481186985548 15.481186985548 7.0
      vertex 15.481186985548 15.481186985548 0.0
   endloop
endfacet
facet normal -1.0 7.20921197460439e-017 2.00351998441928e-018
   outer loop
      vertex 1.43201422941885e-016 13.3927680328046 7.0
      vertex 0.0 11.5591982982056 0.0
      vertex 1.10154940724527e-017 11.5591982982056 7.0
   endloop
endfacet
facet normal -1.0 7.20921197460439e-017 2.00351998441928e-018
   outer loop
      vertex 0.0 11.5591982982056 0.0
      vertex 1.43201422941885e-016 13.3927680328046 7.0
      vertex 1.32185928869433e-016 13.3927680328046 0.0
   endloop
endfacet
facet normal 0.951192874132908 0.308597012621279 -1.67887296731459e-018
   outer loop
      vertex 17.2263179084244 3.97355882697681 1.19478071541798e-015
      vertex 18.0942044302453 1.29846010162031 7.0
      vertex 18.0942044302453 1.29846010162031 0.0
   endloop
endfacet
facet normal 0.951192874132908 0.308597012621279 -1.67887296731459e-018
   outer loop
      vertex 18.0942044302453 1.29846010162031 7.0
      vertex 17.2263179084244 3.97355882697681 1.19478071541798e-015
      vertex 17.2263179084244 3.97355882697681 7.0
   endloop
endfacet
facet normal -0.647845743622881 -0.761771548739986 7.37965732005817e-019
   outer loop
      vertex 20.6495706672463 3.00586607065056 7.0
      vertex 18.5069531964887 4.82804702626426 3.0571217098187e-016
      vertex 20.6495706672463 3.00586607065056 0.0
   endloop
endfacet
facet normal -0.647845743622881 -0.761771548739986 7.37965732005817e-019
   outer loop
      vertex 18.5069531964887 4.82804702626426 3.0571217098187e-016
      vertex 20.6495706672463 3.00586607065056 7.0
      vertex 18.5069531964887 4.82804702626426 7.0
   endloop
endfacet
facet normal -0.980658115245317 0.195728539062406 2.10865534857773e-018
   outer loop
      vertex 3.10486734958193 15.1291111621798 7.0
      vertex 2.80353585332492 13.6193508656027 4.14950628979817e-017
      vertex 2.80353585332492 13.6193508656027 7.0
   endloop
endfacet
facet normal -0.980658115245317 0.195728539062406 2.10865534857773e-018
   outer loop
      vertex 2.80353585332492 13.6193508656027 4.14950628979817e-017
      vertex 3.10486734958193 15.1291111621798 7.0
      vertex 3.10486734958193 15.1291111621798 1.32680682940111e-015
   endloop
endfacet
facet normal 0.793353340291233 -0.608761429008723 -2.03702209177517e-018
   outer loop
      vertex 9.47077934546231 15.481186985548 0.0
      vertex 8.79537519942128 14.6009831655051 7.0
      vertex 8.79537519942128 14.6009831655051 0.0
   endloop
endfacet
facet normal 0.793353340291233 -0.608761429008723 -2.03702209177517e-018
   outer loop
      vertex 8.79537519942128 14.6009831655051 7.0
      vertex 9.47077934546231 15.481186985548 0.0
      vertex 9.47077934546231 15.481186985548 7.0
   endloop
endfacet
facet normal -0.382683432365087 0.923879532511288 1.44589158200783e-018
   outer loop
      vertex 13.5759641071909 8.3707984037766 7.0
      vertex 14.6009831655051 8.79537519942127 0.0
      vertex 13.5759641071909 8.3707984037766 0.0
   endloop
endfacet
facet normal -0.382683432365087 0.923879532511288 1.44589158200783e-018
   outer loop
      vertex 14.6009831655051 8.79537519942127 0.0
      vertex 13.5759641071909 8.3707984037766 7.0
      vertex 14.6009831655051 8.79537519942127 7.0
   endloop
endfacet
facet normal -0.831769687409338 0.555120876122464 2.07455687616794e-018
   outer loop
      vertex 4.82803864148115 18.5069630557635 7.0
      vertex 3.97454179129115 17.228119404186 1.33838023209872e-015
      vertex 3.97454179129115 17.228119404186 7.0
   endloop
endfacet
facet normal -0.831769687409338 0.555120876122464 2.07455687616794e-018
   outer loop
      vertex 3.97454179129115 17.228119404186 1.33838023209872e-015
      vertex 4.82803864148115 18.5069630557635 7.0
      vertex 4.82803864148115 18.5069630557635 7.2034923588509e-017
   endloop
endfacet
facet normal 0.99144486137381 -0.130526192220052 -2.082334177087e-018
   outer loop
      vertex 8.3707984037766 13.5759641071909 0.0
      vertex 8.22598316550514 12.4759831655051 7.0
      vertex 8.22598316550514 12.4759831655051 0.0
   endloop
endfacet
facet normal 0.99144486137381 -0.130526192220052 -2.082334177087e-018
   outer loop
      vertex 8.22598316550514 12.4759831655051 7.0
      vertex 8.3707984037766 13.5759641071909 0.0
      vertex 8.3707984037766 13.5759641071909 7.0
   endloop
endfacet
facet normal -0.923879532511286 0.382683432365091 2.13233571188798e-018
   outer loop
      vertex 1.29846010162032 18.0942044302453 7.0
      vertex 0.599598455658915 16.4070031663429 0.0
      vertex 0.599598455658915 16.4070031663429 7.0
   endloop
endfacet
facet normal -0.923879532511286 0.382683432365091 2.13233571188798e-018
   outer loop
      vertex 0.599598455658915 16.4070031663429 0.0
      vertex 1.29846010162032 18.0942044302453 7.0
      vertex 1.29846010162032 18.0942044302453 0.0
   endloop
endfacet
facet normal -0.831830980558342 -0.555029026072823 1.25856783053369e-018
   outer loop
      vertex 3.97355882697682 7.72564842258585 7.0
      vertex 4.82804702626426 6.44501313452156 3.05712170981869e-016
      vertex 4.82804702626426 6.44501313452156 7.0
   endloop
endfacet
facet normal -0.831830980558342 -0.555029026072823 1.25856783053369e-018
   outer loop
      vertex 4.82804702626426 6.44501313452156 3.05712170981869e-016
      vertex 3.97355882697682 7.72564842258585 7.0
      vertex 3.97355882697682 7.72564842258585 1.19478071541798e-015
   endloop
endfacet
facet normal 0.608761429008724 -0.793353340291233 -1.80288878244606e-018
   outer loop
      vertex 10.3509831655051 16.156591131589 7.0
      vertex 9.47077934546231 15.481186985548 0.0
      vertex 10.3509831655051 16.156591131589 0.0
   endloop
endfacet
facet normal 0.608761429008724 -0.793353340291233 -1.80288878244606e-018
   outer loop
      vertex 9.47077934546231 15.481186985548 0.0
      vertex 10.3509831655051 16.156591131589 7.0
      vertex 9.47077934546231 15.481186985548 7.0
   endloop
endfacet
facet normal -0.923879532511287 0.38268343236509 2.13233571188798e-018
   outer loop
      vertex 16.5811679272337 11.3760022238194 7.0
      vertex 16.156591131589 10.3509831655051 0.0
      vertex 16.156591131589 10.3509831655051 7.0
   endloop
endfacet
facet normal -0.923879532511287 0.38268343236509 2.13233571188798e-018
   outer loop
      vertex 16.156591131589 10.3509831655051 0.0
      vertex 16.5811679272337 11.3760022238194 7.0
      vertex 16.5811679272337 11.3760022238194 0.0
   endloop
endfacet
facet normal -0.923879532511287 -0.38268343236509 1.56968650127664e-018
   outer loop
      vertex 16.156591131589 14.6009831655051 7.0
      vertex 16.5811679272337 13.5759641071909 0.0
      vertex 16.5811679272337 13.5759641071909 7.0
   endloop
endfacet
facet normal -0.923879532511287 -0.38268343236509 1.56968650127664e-018
   outer loop
      vertex 16.5811679272337 13.5759641071909 0.0
      vertex 16.156591131589 14.6009831655051 7.0
      vertex 16.156591131589 14.6009831655051 0.0
   endloop
endfacet
facet normal -0.991444861373811 -0.13052619222005 1.89042500933747e-018
   outer loop
      vertex 16.5811679272337 13.5759641071909 7.0
      vertex 16.7259831655051 12.4759831655051 0.0
      vertex 16.7259831655051 12.4759831655051 7.0
   endloop
endfacet
facet normal -0.991444861373811 -0.13052619222005 1.89042500933747e-018
   outer loop
      vertex 16.7259831655051 12.4759831655051 0.0
      vertex 16.5811679272337 13.5759641071909 7.0
      vertex 16.5811679272337 13.5759641071909 0.0
   endloop
endfacet
facet normal -0.793353340291236 0.60876142900872 2.03702209177517e-018
   outer loop
      vertex 16.156591131589 10.3509831655051 7.0
      vertex 15.481186985548 9.47077934546231 0.0
      vertex 15.481186985548 9.47077934546231 7.0
   endloop
endfacet
facet normal -0.793353340291236 0.60876142900872 2.03702209177517e-018
   outer loop
      vertex 15.481186985548 9.47077934546231 0.0
      vertex 16.156591131589 10.3509831655051 7.0
      vertex 16.156591131589 10.3509831655051 0.0
   endloop
endfacet
facet normal -0.923879532511287 -0.38268343236509 1.56968650127664e-018
   outer loop
      vertex 0.599598455658914 8.54496316466737 7.0
      vertex 1.29846010162031 6.85776190076498 0.0
      vertex 1.29846010162031 6.85776190076498 7.0
   endloop
endfacet
facet normal -0.923879532511287 -0.38268343236509 1.56968650127664e-018
   outer loop
      vertex 1.29846010162031 6.85776190076498 0.0
      vertex 0.599598455658914 8.54496316466737 7.0
      vertex 0.599598455658914 8.54496316466737 0.0
   endloop
endfacet
facet normal -0.951413912729694 0.307914869183632 2.13253628403474e-018
   outer loop
      vertex 7.72384692682431 3.97454179129117 7.0
      vertex 6.85776190076497 1.29846010162032 0.0
      vertex 6.85776190076497 1.29846010162032 7.0
   endloop
endfacet
facet normal -0.951413912729694 0.307914869183632 2.13253628403474e-018
   outer loop
      vertex 6.85776190076497 1.29846010162032 0.0
      vertex 7.72384692682431 3.97454179129117 7.0
      vertex 7.72384692682431 3.97454179129117 1.04742447714704e-015
   endloop
endfacet
facet normal -0.0805577093504433 -0.996749946307603 -5.71348406730201e-019
   outer loop
      vertex 2.80352295282785 11.3326165080307 7.20349235885072e-017
      vertex 1.10154940724527e-017 11.5591982982056 7.0
      vertex 0.0 11.5591982982056 0.0
   endloop
endfacet
facet normal -0.0805577093504433 -0.996749946307603 -5.71348406730201e-019
   outer loop
      vertex 1.10154940724527e-017 11.5591982982056 7.0
      vertex 2.80352295282785 11.3326165080307 7.20349235885072e-017
      vertex 2.80352295282785 11.3326165080307 7.0
   endloop
endfacet
facet normal 0.793353340291235 0.608761429008721 -1.14197645218339e-018
   outer loop
      vertex 8.79537519942127 10.3509831655051 0.0
      vertex 9.47077934546231 9.47077934546231 7.0
      vertex 9.47077934546231 9.47077934546231 0.0
   endloop
endfacet
facet normal 0.793353340291235 0.608761429008721 -1.14197645218339e-018
   outer loop
      vertex 9.47077934546231 9.47077934546231 7.0
      vertex 8.79537519942127 10.3509831655051 0.0
      vertex 8.79537519942127 10.3509831655051 7.0
   endloop
endfacet
facet normal 0.307914869183636 0.951413912729693 8.25056148785734e-020
   outer loop
      vertex 1.29846010162032 18.0942044302453 7.0
      vertex 3.97454179129115 17.228119404186 1.33838023209872e-015
      vertex 1.29846010162032 18.0942044302453 0.0
   endloop
endfacet
facet normal 0.307914869183636 0.951413912729693 8.25056148785734e-020
   outer loop
      vertex 3.97454179129115 17.228119404186 1.33838023209872e-015
      vertex 1.29846010162032 18.0942044302453 7.0
      vertex 3.97454179129115 17.228119404186 7.0
   endloop
endfacet
facet normal -0.890479921434308 -0.455022537378479 1.44959058780072e-018
   outer loop
      vertex 15.1271422515782 3.104288560445 7.0
      vertex 16.4070031663429 0.599598455658916 0.0
      vertex 16.4070031663429 0.599598455658916 7.0
   endloop
endfacet
facet normal -0.890479921434308 -0.455022537378479 1.44959058780072e-018
   outer loop
      vertex 16.4070031663429 0.599598455658916 0.0
      vertex 15.1271422515782 3.104288560445 7.0
      vertex 15.1271422515782 3.104288560445 1.33838023209872e-015
   endloop
endfacet
facet normal 0.555029026072824 -0.831830980558342 -1.72352116179551e-018
   outer loop
      vertex 18.5069531964887 4.82804702626426 7.0
      vertex 17.2263179084244 3.97355882697681 1.19478071541798e-015
      vertex 18.5069531964887 4.82804702626426 3.0571217098187e-016
   endloop
endfacet
facet normal 0.555029026072824 -0.831830980558342 -1.72352116179551e-018
   outer loop
      vertex 17.2263179084244 3.97355882697681 1.19478071541798e-015
      vertex 18.5069531964887 4.82804702626426 7.0
      vertex 17.2263179084244 3.97355882697681 7.0
   endloop
endfacet
facet normal 0.0805577093504437 0.996749946307603 5.71348406730201e-019
   outer loop
      vertex 22.1484433781824 13.6193498229796 2.17574996971668e-016
      vertex 24.9519663310103 13.3927680328046 7.0
      vertex 24.9519663310103 13.3927680328046 0.0
   endloop
endfacet
facet normal 0.0805577093504437 0.996749946307603 5.71348406730201e-019
   outer loop
      vertex 24.9519663310103 13.3927680328046 7.0
      vertex 22.1484433781824 13.6193498229796 2.17574996971668e-016
      vertex 22.1484433781824 13.6193498229796 7.0
   endloop
endfacet
facet normal 1.0 0.0 -2.00351998441928e-018
   outer loop
      vertex 24.9519663310103 13.3927680328046 0.0
      vertex 24.9519663310103 11.5591982982056 7.0
      vertex 24.9519663310103 11.5591982982056 0.0
   endloop
endfacet
facet normal 1.0 0.0 -2.00351998441928e-018
   outer loop
      vertex 24.9519663310103 11.5591982982056 7.0
      vertex 24.9519663310103 13.3927680328046 0.0
      vertex 24.9519663310103 13.3927680328046 7.0
   endloop
endfacet
facet normal 0.0805577093504424 -0.996749946307603 -8.94146367895507e-019
   outer loop
      vertex 24.9519663310103 11.5591982982056 7.0
      vertex 22.1484304776854 11.3326154654076 4.14950628979816e-017
      vertex 24.9519663310103 11.5591982982056 0.0
   endloop
endfacet
facet normal 0.0805577093504424 -0.996749946307603 -8.94146367895507e-019
   outer loop
      vertex 22.1484304776854 11.3326154654076 4.14950628979816e-017
      vertex 24.9519663310103 11.5591982982056 7.0
      vertex 22.1484304776854 11.3326154654076 7.0
   endloop
endfacet
facet normal 0.980658115245317 -0.195728539062405 -2.10865534857773e-018
   outer loop
      vertex 22.1484304776854 11.3326154654076 4.14950628979816e-017
      vertex 21.8470989814283 9.8228551688305 7.0
      vertex 21.8470989814283 9.8228551688305 1.32680682940111e-015
   endloop
endfacet
facet normal 0.980658115245317 -0.195728539062405 -2.10865534857773e-018
   outer loop
      vertex 21.8470989814283 9.8228551688305 7.0
      vertex 22.1484304776854 11.3326154654076 4.14950628979816e-017
      vertex 22.1484304776854 11.3326154654076 7.0
   endloop
endfacet
facet normal 0.454383891237285 0.890805971794118 -2.55503114797389e-019
   outer loop
      vertex 21.8470989814283 9.8228551688305 1.32680682940111e-015
      vertex 24.3523678753514 8.54496316466737 7.0
      vertex 24.3523678753514 8.54496316466737 0.0
   endloop
endfacet
facet normal 0.454383891237285 0.890805971794118 -2.55503114797389e-019
   outer loop
      vertex 24.3523678753514 8.54496316466737 7.0
      vertex 21.8470989814283 9.8228551688305 1.32680682940111e-015
      vertex 21.8470989814283 9.8228551688305 7.0
   endloop
endfacet
facet normal 0.923879532511286 -0.382683432365092 -2.13233571188798e-018
   outer loop
      vertex 24.3523678753514 8.54496316466737 0.0
      vertex 23.65350622939 6.85776190076498 7.0
      vertex 23.65350622939 6.85776190076498 0.0
   endloop
endfacet
facet normal 0.923879532511286 -0.382683432365092 -2.13233571188798e-018
   outer loop
      vertex 23.65350622939 6.85776190076498 7.0
      vertex 24.3523678753514 8.54496316466737 0.0
      vertex 24.3523678753514 8.54496316466737 7.0
   endloop
endfacet
facet normal -0.30791486918363 -0.951413912729695 -8.25056148785875e-020
   outer loop
      vertex 23.65350622939 6.85776190076498 7.0
      vertex 20.9774245397191 7.7238469268243 1.04742447714704e-015
      vertex 23.65350622939 6.85776190076498 0.0
   endloop
endfacet
facet normal -0.30791486918363 -0.951413912729695 -8.25056148785875e-020
   outer loop
      vertex 20.9774245397191 7.7238469268243 1.04742447714704e-015
      vertex 23.65350622939 6.85776190076498 7.0
      vertex 20.9774245397191 7.7238469268243 7.0
   endloop
endfacet
facet normal 0.83176968740934 -0.555120876122461 -2.07455687616794e-018
   outer loop
      vertex 20.9774245397191 7.7238469268243 1.04742447714704e-015
      vertex 20.1239276895291 6.44500327524675 7.0
      vertex 20.1239276895291 6.44500327524675 2.17574996971676e-016
   endloop
endfacet
facet normal 0.83176968740934 -0.555120876122461 -2.07455687616794e-018
   outer loop
      vertex 20.1239276895291 6.44500327524675 7.0
      vertex 20.9774245397191 7.7238469268243 1.04742447714704e-015
      vertex 20.9774245397191 7.7238469268243 7.0
   endloop
endfacet
facet normal 0.761771548739987 0.647845743622879 -1.0499693906949e-018
   outer loop
      vertex 20.1239276895291 6.44500327524675 2.17574996971676e-016
      vertex 21.9461002603597 4.30239566376393 7.0
      vertex 21.9461002603597 4.30239566376393 0.0
   endloop
endfacet
facet normal 0.761771548739987 0.647845743622879 -1.0499693906949e-018
   outer loop
      vertex 21.9461002603597 4.30239566376393 7.0
      vertex 20.1239276895291 6.44500327524675 2.17574996971676e-016
      vertex 20.1239276895291 6.44500327524675 7.0
   endloop
endfacet
facet normal 0.707106781186548 -0.707106781186547 -1.93652265689309e-018
   outer loop
      vertex 21.9461002603597 4.30239566376393 0.0
      vertex 20.6495706672463 3.00586607065056 7.0
      vertex 20.6495706672463 3.00586607065056 0.0
   endloop
endfacet
facet normal 0.707106781186548 -0.707106781186547 -1.93652265689309e-018
   outer loop
      vertex 20.6495706672463 3.00586607065056 7.0
      vertex 21.9461002603597 4.30239566376393 0.0
      vertex 21.9461002603597 4.30239566376393 7.0
   endloop
endfacet
facet normal 2.00351998441928e-018 -7.35136620801708e-019 1.0
   outer loop
      vertex 1.29846010162031 6.85776190076498 7.0
      vertex 3.10428856044501 9.82482407943209 7.0
      vertex 0.599598455658914 8.54496316466737 7.0
   endloop
endfacet
facet normal 2.00351998441928e-018 -7.35136620801708e-019 1.0
   outer loop
      vertex 3.10428856044501 9.82482407943209 7.0
      vertex 1.29846010162031 6.85776190076498 7.0
      vertex 3.97355882697682 7.72564842258585 7.0
   endloop
endfacet
facet normal 2.00351998441928e-018 -7.35136620801708e-019 1.0
   outer loop
      vertex 3.10428856044501 9.82482407943209 7.0
      vertex 3.97355882697682 7.72564842258585 7.0
      vertex 3.10486734958193 15.1291111621798 7.0
   endloop
endfacet
facet normal 2.00351998441928e-018 -7.35136620801708e-019 1.0
   outer loop
      vertex 3.10486734958193 15.1291111621798 7.0
      vertex 1.29846010162032 18.0942044302453 7.0
      vertex 0.599598455658915 16.4070031663429 7.0
   endloop
endfacet
facet normal 2.00351998441928e-018 -7.35136620801708e-019 1.0
   outer loop
      vertex 1.29846010162032 18.0942044302453 7.0
      vertex 3.10486734958193 15.1291111621798 7.0
      vertex 3.97454179129115 17.228119404186 7.0
   endloop
endfacet
facet normal 2.00351998441928e-018 -7.35136620801708e-019 1.0
   outer loop
      vertex 3.97454179129115 17.228119404186 7.0
      vertex 3.10486734958193 15.1291111621798 7.0
      vertex 3.97355882697682 7.72564842258585 7.0
   endloop
endfacet
facet normal 2.00351998441928e-018 -7.35136620801708e-019 1.0
   outer loop
      vertex 3.97454179129115 17.228119404186 7.0
      vertex 3.97355882697682 7.72564842258585 7.0
      vertex 4.82804702626426 6.44501313452156 7.0
   endloop
endfacet
facet normal 2.00351998441928e-018 -7.35136620801708e-019 1.0
   outer loop
      vertex 3.97454179129115 17.228119404186 7.0
      vertex 4.82804702626426 6.44501313452156 7.0
      vertex 4.82803864148115 18.5069630557635 7.0
   endloop
endfacet
facet normal 2.00351998441928e-018 -7.35136620801708e-019 1.0
   outer loop
      vertex 4.30239566376392 3.00586607065057 7.0
      vertex 4.82804702626426 6.44501313452156 7.0
      vertex 3.00586607065056 4.30239566376393 7.0
   endloop
endfacet
facet normal 2.00351998441928e-018 -7.35136620801708e-019 1.0
   outer loop
      vertex 4.82804702626426 6.44501313452156 7.0
      vertex 4.30239566376392 3.00586607065057 7.0
      vertex 6.44500327524675 4.82803864148114 7.0
   endloop
endfacet
facet normal 2.00351998441928e-018 -7.35136620801708e-019 1.0
   outer loop
      vertex 7.72384692682431 20.9774245397191 7.0
      vertex 8.54496316466737 24.3523678753514 7.0
      vertex 6.85776190076498 23.65350622939 7.0
   endloop
endfacet
facet normal 2.00351998441928e-018 -7.35136620801708e-019 1.0
   outer loop
      vertex 8.54496316466737 24.3523678753514 7.0
      vertex 7.72384692682431 20.9774245397191 7.0
      vertex 8.22598316550514 12.4759831655051 7.0
   endloop
endfacet
facet normal 2.00351998441928e-018 -7.35136620801708e-019 1.0
   outer loop
      vertex 8.54496316466737 24.3523678753514 7.0
      vertex 8.22598316550514 12.4759831655051 7.0
      vertex 8.3707984037766 13.5759641071909 7.0
   endloop
endfacet
facet normal 2.00351998441928e-018 -7.35136620801708e-019 1.0
   outer loop
      vertex 8.54496316466737 24.3523678753514 7.0
      vertex 8.3707984037766 13.5759641071909 7.0
      vertex 8.79537519942128 14.6009831655051 7.0
   endloop
endfacet
facet normal 2.00351998441928e-018 -7.35136620801708e-019 1.0
   outer loop
      vertex 8.54496316466737 24.3523678753514 7.0
      vertex 8.79537519942128 14.6009831655051 7.0
      vertex 9.8228551688305 21.8470989814284 7.0
   endloop
endfacet
facet normal 2.00351998441928e-018 -7.35136620801708e-019 1.0
   outer loop
      vertex 9.8228551688305 21.8470989814284 7.0
      vertex 8.79537519942128 14.6009831655051 7.0
      vertex 9.47077934546231 15.481186985548 7.0
   endloop
endfacet
facet normal 2.00351998441928e-018 -7.35136620801708e-019 1.0
   outer loop
      vertex 9.8228551688305 21.8470989814284 7.0
      vertex 9.47077934546231 15.481186985548 7.0
      vertex 10.3509831655051 16.156591131589 7.0
   endloop
endfacet
facet normal 2.00351998441928e-018 -7.35136620801708e-019 1.0
   outer loop
      vertex 9.8228551688305 21.8470989814284 7.0
      vertex 10.3509831655051 16.156591131589 7.0
      vertex 11.3326154654076 22.1484304776854 7.0
   endloop
endfacet
facet normal 2.00351998441928e-018 -7.35136620801708e-019 1.0
   outer loop
      vertex 11.3326154654076 22.1484304776854 7.0
      vertex 10.3509831655051 16.156591131589 7.0
      vertex 11.3760022238194 16.5811679272337 7.0
   endloop
endfacet
facet normal 2.00351998441928e-018 -7.35136620801708e-019 1.0
   outer loop
      vertex 11.3326154654076 22.1484304776854 7.0
      vertex 11.3760022238194 16.5811679272337 7.0
      vertex 11.5591982982056 24.9519663310103 7.0
   endloop
endfacet
facet normal 2.00351998441928e-018 -7.35136620801708e-019 1.0
   outer loop
      vertex 11.5591982982056 24.9519663310103 7.0
      vertex 11.3760022238194 16.5811679272337 7.0
      vertex 12.4759831655051 16.7259831655051 7.0
   endloop
endfacet
facet normal 2.00351998441928e-018 -7.35136620801708e-019 1.0
   outer loop
      vertex 11.5591982982056 24.9519663310103 7.0
      vertex 12.4759831655051 16.7259831655051 7.0
      vertex 13.3927680328046 24.9519663310103 7.0
   endloop
endfacet
facet normal 2.00351998441928e-018 -7.35136620801708e-019 1.0
   outer loop
      vertex 13.3927680328046 24.9519663310103 7.0
      vertex 12.4759831655051 16.7259831655051 7.0
      vertex 13.5759641071909 16.5811679272337 7.0
   endloop
endfacet
facet normal 2.00351998441928e-018 -7.35136620801708e-019 1.0
   outer loop
      vertex 13.3927680328046 24.9519663310103 7.0
      vertex 13.5759641071909 16.5811679272337 7.0
      vertex 13.6193498229796 22.1484433781824 7.0
   endloop
endfacet
facet normal 2.00351998441928e-018 -7.35136620801708e-019 1.0
   outer loop
      vertex 13.6193498229796 22.1484433781824 7.0
      vertex 13.5759641071909 16.5811679272337 7.0
      vertex 14.6009831655051 16.156591131589 7.0
   endloop
endfacet
facet normal 2.00351998441928e-018 -7.35136620801708e-019 1.0
   outer loop
      vertex 13.6193498229796 22.1484433781824 7.0
      vertex 14.6009831655051 16.156591131589 7.0
      vertex 15.1271422515782 21.8476777705653 7.0
   endloop
endfacet
facet normal 2.00351998441928e-018 -7.35136620801708e-019 1.0
   outer loop
      vertex 15.1271422515782 21.8476777705653 7.0
      vertex 14.6009831655051 16.156591131589 7.0
      vertex 15.481186985548 15.481186985548 7.0
   endloop
endfacet
facet normal 2.00351998441928e-018 -7.35136620801708e-019 1.0
   outer loop
      vertex 15.1271422515782 21.8476777705653 7.0
      vertex 15.481186985548 15.481186985548 7.0
      vertex 16.4070031663429 24.3523678753514 7.0
   endloop
endfacet
facet normal 2.00351998441928e-018 -7.35136620801708e-019 1.0
   outer loop
      vertex 16.4070031663429 24.3523678753514 7.0
      vertex 15.481186985548 15.481186985548 7.0
      vertex 16.156591131589 14.6009831655051 7.0
   endloop
endfacet
facet normal 2.00351998441928e-018 -7.35136620801708e-019 1.0
   outer loop
      vertex 16.4070031663429 24.3523678753514 7.0
      vertex 16.156591131589 14.6009831655051 7.0
      vertex 16.5811679272337 13.5759641071909 7.0
   endloop
endfacet
facet normal 2.00351998441928e-018 -7.35136620801708e-019 1.0
   outer loop
      vertex 16.4070031663429 24.3523678753514 7.0
      vertex 16.5811679272337 13.5759641071909 7.0
      vertex 17.2254571092736 20.9788771849389 7.0
   endloop
endfacet
facet normal 2.00351998441928e-018 -7.35136620801708e-019 1.0
   outer loop
      vertex 16.4070031663429 24.3523678753514 7.0
      vertex 17.2254571092736 20.9788771849389 7.0
      vertex 18.0942044302453 23.65350622939 7.0
   endloop
endfacet
facet normal 2.00351998441928e-018 -7.35136620801708e-019 1.0
   outer loop
      vertex 17.2254571092736 20.9788771849389 7.0
      vertex 16.5811679272337 13.5759641071909 7.0
      vertex 16.7259831655051 12.4759831655051 7.0
   endloop
endfacet
facet normal 2.00351998441928e-018 -7.35136620801708e-019 1.0
   outer loop
      vertex 4.82803864148115 18.5069630557635 7.0
      vertex 4.30239566376394 21.9461002603597 7.0
      vertex 3.00586607065057 20.6495706672464 7.0
   endloop
endfacet
facet normal 2.00351998441928e-018 -7.35136620801708e-019 1.0
   outer loop
      vertex 4.30239566376394 21.9461002603597 7.0
      vertex 4.82803864148115 18.5069630557635 7.0
      vertex 6.44500327524676 20.1239276895291 7.0
   endloop
endfacet
facet normal 2.00351998441928e-018 -7.35136620801708e-019 1.0
   outer loop
      vertex 6.44500327524676 20.1239276895291 7.0
      vertex 4.82803864148115 18.5069630557635 7.0
      vertex 4.82804702626426 6.44501313452156 7.0
   endloop
endfacet
facet normal 2.00351998441928e-018 -7.35136620801708e-019 1.0
   outer loop
      vertex 6.44500327524676 20.1239276895291 7.0
      vertex 4.82804702626426 6.44501313452156 7.0
      vertex 6.44500327524675 4.82803864148114 7.0
   endloop
endfacet
facet normal 2.00351998441928e-018 -7.35136620801708e-019 1.0
   outer loop
      vertex 6.44500327524676 20.1239276895291 7.0
      vertex 6.44500327524675 4.82803864148114 7.0
      vertex 7.72384692682431 3.97454179129117 7.0
   endloop
endfacet
facet normal 2.00351998441928e-018 -7.35136620801708e-019 1.0
   outer loop
      vertex 6.44500327524676 20.1239276895291 7.0
      vertex 7.72384692682431 3.97454179129117 7.0
      vertex 7.72384692682431 20.9774245397191 7.0
   endloop
endfacet
facet normal 2.00351998441928e-018 -7.35136620801708e-019 1.0
   outer loop
      vertex 2.80352295282785 11.3326165080307 7.0
      vertex 1.43201422941885e-016 13.3927680328046 7.0
      vertex 1.10154940724527e-017 11.5591982982056 7.0
   endloop
endfacet
facet normal 2.00351998441928e-018 -7.35136620801708e-019 1.0
   outer loop
      vertex 1.43201422941885e-016 13.3927680328046 7.0
      vertex 2.80352295282785 11.3326165080307 7.0
      vertex 2.80353585332492 13.6193508656027 7.0
   endloop
endfacet
facet normal 2.00351998441928e-018 -7.35136620801708e-019 1.0
   outer loop
      vertex 2.80353585332492 13.6193508656027 7.0
      vertex 2.80352295282785 11.3326165080307 7.0
      vertex 3.10428856044501 9.82482407943209 7.0
   endloop
endfacet
facet normal 2.00351998441928e-018 -7.35136620801708e-019 1.0
   outer loop
      vertex 2.80353585332492 13.6193508656027 7.0
      vertex 3.10428856044501 9.82482407943209 7.0
      vertex 3.10486734958193 15.1291111621798 7.0
   endloop
endfacet
facet normal 2.00351998441928e-018 -7.35136620801708e-019 1.0
   outer loop
      vertex 8.54496316466737 0.599598455658916 7.0
      vertex 7.72384692682431 3.97454179129117 7.0
      vertex 6.85776190076497 1.29846010162032 7.0
   endloop
endfacet
facet normal 2.00351998441928e-018 -7.35136620801708e-019 1.0
   outer loop
      vertex 7.72384692682431 3.97454179129117 7.0
      vertex 8.54496316466737 0.599598455658916 7.0
      vertex 7.72384692682431 20.9774245397191 7.0
   endloop
endfacet
facet normal 2.00351998441928e-018 -7.35136620801708e-019 1.0
   outer loop
      vertex 7.72384692682431 20.9774245397191 7.0
      vertex 8.54496316466737 0.599598455658916 7.0
      vertex 8.22598316550514 12.4759831655051 7.0
   endloop
endfacet
facet normal 2.00351998441928e-018 -7.35136620801708e-019 1.0
   outer loop
      vertex 8.22598316550514 12.4759831655051 7.0
      vertex 8.54496316466737 0.599598455658916 7.0
      vertex 8.3707984037766 11.3760022238194 7.0
   endloop
endfacet
facet normal 2.00351998441928e-018 -7.35136620801708e-019 1.0
   outer loop
      vertex 8.3707984037766 11.3760022238194 7.0
      vertex 8.54496316466737 0.599598455658916 7.0
      vertex 8.79537519942127 10.3509831655051 7.0
   endloop
endfacet
facet normal 2.00351998441928e-018 -7.35136620801708e-019 1.0
   outer loop
      vertex 8.79537519942127 10.3509831655051 7.0
      vertex 8.54496316466737 0.599598455658916 7.0
      vertex 9.8228551688305 3.10486734958194 7.0
   endloop
endfacet
facet normal 2.00351998441928e-018 -7.35136620801708e-019 1.0
   outer loop
      vertex 8.79537519942127 10.3509831655051 7.0
      vertex 9.8228551688305 3.10486734958194 7.0
      vertex 9.47077934546231 9.47077934546231 7.0
   endloop
endfacet
facet normal 2.00351998441928e-018 -7.35136620801708e-019 1.0
   outer loop
      vertex 9.47077934546231 9.47077934546231 7.0
      vertex 9.8228551688305 3.10486734958194 7.0
      vertex 10.3509831655051 8.79537519942128 7.0
   endloop
endfacet
facet normal 2.00351998441928e-018 -7.35136620801708e-019 1.0
   outer loop
      vertex 10.3509831655051 8.79537519942128 7.0
      vertex 9.8228551688305 3.10486734958194 7.0
      vertex 11.3326154654076 2.80353585332492 7.0
   endloop
endfacet
facet normal 2.00351998441928e-018 -7.35136620801708e-019 1.0
   outer loop
      vertex 10.3509831655051 8.79537519942128 7.0
      vertex 11.3326154654076 2.80353585332492 7.0
      vertex 11.3760022238194 8.3707984037766 7.0
   endloop
endfacet
facet normal 2.00351998441928e-018 -7.35136620801708e-019 1.0
   outer loop
      vertex 11.3760022238194 8.3707984037766 7.0
      vertex 11.3326154654076 2.80353585332492 7.0
      vertex 11.5591982982056 0.0 7.0
   endloop
endfacet
facet normal 2.00351998441928e-018 -7.35136620801708e-019 1.0
   outer loop
      vertex 11.3760022238194 8.3707984037766 7.0
      vertex 11.5591982982056 0.0 7.0
      vertex 12.4759831655051 8.22598316550514 7.0
   endloop
endfacet
facet normal 2.00351998441928e-018 -7.35136620801708e-019 1.0
   outer loop
      vertex 12.4759831655051 8.22598316550514 7.0
      vertex 11.5591982982056 0.0 7.0
      vertex 13.3927680328046 0.0 7.0
   endloop
endfacet
facet normal 2.00351998441928e-018 -7.35136620801708e-019 1.0
   outer loop
      vertex 12.4759831655051 8.22598316550514 7.0
      vertex 13.3927680328046 0.0 7.0
      vertex 13.5759641071909 8.3707984037766 7.0
   endloop
endfacet
facet normal 2.00351998441928e-018 -7.35136620801708e-019 1.0
   outer loop
      vertex 13.5759641071909 8.3707984037766 7.0
      vertex 13.3927680328046 0.0 7.0
      vertex 13.6193498229796 2.80352295282785 7.0
   endloop
endfacet
facet normal 2.00351998441928e-018 -7.35136620801708e-019 1.0
   outer loop
      vertex 13.5759641071909 8.3707984037766 7.0
      vertex 13.6193498229796 2.80352295282785 7.0
      vertex 14.6009831655051 8.79537519942127 7.0
   endloop
endfacet
facet normal 2.00351998441928e-018 -7.35136620801708e-019 1.0
   outer loop
      vertex 14.6009831655051 8.79537519942127 7.0
      vertex 13.6193498229796 2.80352295282785 7.0
      vertex 15.1271422515782 3.104288560445 7.0
   endloop
endfacet
facet normal 2.00351998441928e-018 -7.35136620801708e-019 1.0
   outer loop
      vertex 14.6009831655051 8.79537519942127 7.0
      vertex 15.1271422515782 3.104288560445 7.0
      vertex 15.481186985548 9.47077934546231 7.0
   endloop
endfacet
facet normal 2.00351998441928e-018 -7.35136620801708e-019 1.0
   outer loop
      vertex 15.481186985548 9.47077934546231 7.0
      vertex 15.1271422515782 3.104288560445 7.0
      vertex 16.4070031663429 0.599598455658916 7.0
   endloop
endfacet
facet normal 2.00351998441928e-018 -7.35136620801708e-019 1.0
   outer loop
      vertex 15.481186985548 9.47077934546231 7.0
      vertex 16.4070031663429 0.599598455658916 7.0
      vertex 16.156591131589 10.3509831655051 7.0
   endloop
endfacet
facet normal 2.00351998441928e-018 -7.35136620801708e-019 1.0
   outer loop
      vertex 16.156591131589 10.3509831655051 7.0
      vertex 16.4070031663429 0.599598455658916 7.0
      vertex 16.5811679272337 11.3760022238194 7.0
   endloop
endfacet
facet normal 2.00351998441928e-018 -7.35136620801708e-019 1.0
   outer loop
      vertex 16.5811679272337 11.3760022238194 7.0
      vertex 16.4070031663429 0.599598455658916 7.0
      vertex 17.2263179084244 3.97355882697681 7.0
   endloop
endfacet
facet normal 2.00351998441928e-018 -7.35136620801708e-019 1.0
   outer loop
      vertex 17.2263179084244 3.97355882697681 7.0
      vertex 16.4070031663429 0.599598455658916 7.0
      vertex 18.0942044302453 1.29846010162031 7.0
   endloop
endfacet
facet normal 2.00351998441928e-018 -7.35136620801708e-019 1.0
   outer loop
      vertex 16.5811679272337 11.3760022238194 7.0
      vertex 17.2263179084244 3.97355882697681 7.0
      vertex 16.7259831655051 12.4759831655051 7.0
   endloop
endfacet
facet normal 2.00351998441928e-018 -7.35136620801708e-019 1.0
   outer loop
      vertex 16.7259831655051 12.4759831655051 7.0
      vertex 17.2263179084244 3.97355882697681 7.0
      vertex 17.2254571092736 20.9788771849389 7.0
   endloop
endfacet
facet normal 2.00351998441928e-018 -7.35136620801708e-019 1.0
   outer loop
      vertex 18.5069531964887 4.82804702626426 7.0
      vertex 20.1239276895291 6.44500327524675 7.0
      vertex 20.123919304746 18.5069531964887 7.0
   endloop
endfacet
facet normal 2.00351998441928e-018 -7.35136620801708e-019 1.0
   outer loop
      vertex 20.1239276895291 6.44500327524675 7.0
      vertex 18.5069531964887 4.82804702626426 7.0
      vertex 20.6495706672463 3.00586607065056 7.0
   endloop
endfacet
facet normal 2.00351998441928e-018 -7.35136620801708e-019 1.0
   outer loop
      vertex 20.1239276895291 6.44500327524675 7.0
      vertex 20.6495706672463 3.00586607065056 7.0
      vertex 21.9461002603597 4.30239566376393 7.0
   endloop
endfacet
facet normal 2.00351998441928e-018 -7.35136620801708e-019 1.0
   outer loop
      vertex 20.1239276895291 6.44500327524675 7.0
      vertex 20.9784075040335 17.2263179084244 7.0
      vertex 20.123919304746 18.5069531964887 7.0
   endloop
endfacet
facet normal 2.00351998441928e-018 -7.35136620801708e-019 1.0
   outer loop
      vertex 20.9784075040335 17.2263179084244 7.0
      vertex 20.1239276895291 6.44500327524675 7.0
      vertex 20.9774245397191 7.7238469268243 7.0
   endloop
endfacet
facet normal 2.00351998441928e-018 -7.35136620801708e-019 1.0
   outer loop
      vertex 20.9784075040335 17.2263179084244 7.0
      vertex 20.9774245397191 7.7238469268243 7.0
      vertex 21.8470989814283 9.8228551688305 7.0
   endloop
endfacet
facet normal 2.00351998441928e-018 -7.35136620801708e-019 1.0
   outer loop
      vertex 21.8470989814283 9.8228551688305 7.0
      vertex 20.9774245397191 7.7238469268243 7.0
      vertex 23.65350622939 6.85776190076498 7.0
   endloop
endfacet
facet normal 2.00351998441928e-018 -7.35136620801708e-019 1.0
   outer loop
      vertex 21.8470989814283 9.8228551688305 7.0
      vertex 23.65350622939 6.85776190076498 7.0
      vertex 24.3523678753514 8.54496316466737 7.0
   endloop
endfacet
facet normal 2.00351998441928e-018 -7.35136620801708e-019 1.0
   outer loop
      vertex 22.1484304776854 11.3326154654076 7.0
      vertex 21.8476777705653 15.1271422515782 7.0
      vertex 21.8470989814283 9.8228551688305 7.0
   endloop
endfacet
facet normal 2.00351998441928e-018 -7.35136620801708e-019 1.0
   outer loop
      vertex 21.8476777705653 15.1271422515782 7.0
      vertex 22.1484304776854 11.3326154654076 7.0
      vertex 22.1484433781824 13.6193498229796 7.0
   endloop
endfacet
facet normal 2.00351998441928e-018 -7.35136620801708e-019 1.0
   outer loop
      vertex 22.1484433781824 13.6193498229796 7.0
      vertex 22.1484304776854 11.3326154654076 7.0
      vertex 24.9519663310103 11.5591982982056 7.0
   endloop
endfacet
facet normal 2.00351998441928e-018 -7.35136620801708e-019 1.0
   outer loop
      vertex 22.1484433781824 13.6193498229796 7.0
      vertex 24.9519663310103 11.5591982982056 7.0
      vertex 24.9519663310103 13.3927680328046 7.0
   endloop
endfacet
facet normal 2.00351998441928e-018 -7.35136620801708e-019 1.0
   outer loop
      vertex 20.9784075040335 17.2263179084244 7.0
      vertex 21.8476777705653 15.1271422515782 7.0
      vertex 23.65350622939 18.0942044302453 7.0
   endloop
endfacet
facet normal 2.00351998441928e-018 -7.35136620801708e-019 1.0
   outer loop
      vertex 21.8476777705653 15.1271422515782 7.0
      vertex 20.9784075040335 17.2263179084244 7.0
      vertex 21.8470989814283 9.8228551688305 7.0
   endloop
endfacet
facet normal 2.00351998441928e-018 -7.35136620801708e-019 1.0
   outer loop
      vertex 23.65350622939 18.0942044302453 7.0
      vertex 21.8476777705653 15.1271422515782 7.0
      vertex 24.3523678753514 16.4070031663429 7.0
   endloop
endfacet
facet normal 2.00351998441928e-018 -7.35136620801708e-019 1.0
   outer loop
      vertex 17.2263179084244 3.97355882697681 7.0
      vertex 18.5069484941821 20.123915305687 7.0
      vertex 17.2254571092736 20.9788771849389 7.0
   endloop
endfacet
facet normal 2.00351998441928e-018 -7.35136620801708e-019 1.0
   outer loop
      vertex 18.5069484941821 20.123915305687 7.0
      vertex 17.2263179084244 3.97355882697681 7.0
      vertex 18.5069531964887 4.82804702626426 7.0
   endloop
endfacet
facet normal 2.00351998441928e-018 -7.35136620801708e-019 1.0
   outer loop
      vertex 18.5069484941821 20.123915305687 7.0
      vertex 18.5069531964887 4.82804702626426 7.0
      vertex 20.123919304746 18.5069531964887 7.0
   endloop
endfacet
facet normal 2.00351998441928e-018 -7.35136620801708e-019 1.0
   outer loop
      vertex 18.5069484941821 20.123915305687 7.0
      vertex 20.123919304746 18.5069531964887 7.0
      vertex 20.6495706672464 21.9461002603597 7.0
   endloop
endfacet
facet normal 2.00351998441928e-018 -7.35136620801708e-019 1.0
   outer loop
      vertex 20.6495706672464 21.9461002603597 7.0
      vertex 20.123919304746 18.5069531964887 7.0
      vertex 21.9461002603597 20.6495706672464 7.0
   endloop
endfacet
facet normal 0.0 -1.0 -7.35136620801708e-019
   outer loop
      vertex 13.3927680328046 0.0 7.0
      vertex 11.5591982982056 0.0 0.0
      vertex 13.3927680328046 0.0 0.0
   endloop
endfacet
facet normal 0.0 -1.0 -7.35136620801708e-019
   outer loop
      vertex 11.5591982982056 0.0 0.0
      vertex 13.3927680328046 0.0 7.0
      vertex 11.5591982982056 0.0 7.0
   endloop
endfacet
endsolid Z-Pulley6bX2
